G04 #@! TF.FileFunction,Copper,L1,Top,Signal*
%FSLAX46Y46*%
G04 Gerber Fmt 4.6, Leading zero omitted, Abs format (unit mm)*
G04 Created by KiCad (PCBNEW 4.0.6+dfsg1-1) date Mon Feb 19 23:29:57 2018*
%MOMM*%
%LPD*%
G01*
G04 APERTURE LIST*
%ADD10C,0.100000*%
%ADD11R,1.600000X1.600000*%
%ADD12C,1.600000*%
%ADD13R,1.800000X1.800000*%
%ADD14C,1.800000*%
%ADD15R,1.700000X1.700000*%
%ADD16O,1.700000X1.700000*%
%ADD17R,3.960000X1.980000*%
%ADD18O,3.960000X1.980000*%
%ADD19R,0.800000X1.900000*%
%ADD20C,2.400000*%
%ADD21O,2.400000X2.400000*%
%ADD22C,2.000000*%
%ADD23R,2.000000X3.800000*%
%ADD24R,2.000000X1.500000*%
%ADD25O,1.600000X1.600000*%
%ADD26C,0.600000*%
%ADD27C,0.500000*%
G04 APERTURE END LIST*
D10*
D11*
X142240000Y-126365000D03*
D12*
X142240000Y-128865000D03*
D13*
X196850000Y-114935000D03*
D14*
X196850000Y-112395000D03*
D13*
X196850000Y-120015000D03*
D14*
X196850000Y-122555000D03*
D15*
X151765000Y-116205000D03*
D16*
X151765000Y-113665000D03*
X151765000Y-111125000D03*
D15*
X142240000Y-111125000D03*
D16*
X142240000Y-108585000D03*
X142240000Y-106045000D03*
D15*
X156210000Y-128905000D03*
D16*
X156210000Y-126365000D03*
X156210000Y-123825000D03*
X156210000Y-121285000D03*
D15*
X163830000Y-128905000D03*
D16*
X163830000Y-126365000D03*
X163830000Y-123825000D03*
D17*
X116205000Y-109220000D03*
D18*
X116205000Y-114220000D03*
X116205000Y-124220000D03*
X116205000Y-119220000D03*
D19*
X130490000Y-106450000D03*
X128590000Y-106450000D03*
X129540000Y-109450000D03*
D20*
X184150000Y-106680000D03*
D21*
X196850000Y-106680000D03*
D20*
X184150000Y-128270000D03*
D21*
X196850000Y-128270000D03*
D22*
X190500000Y-115515000D03*
X190500000Y-120015000D03*
X184000000Y-115515000D03*
X184000000Y-120015000D03*
D23*
X128930000Y-126365000D03*
D24*
X135230000Y-126365000D03*
X135230000Y-124065000D03*
X135230000Y-128665000D03*
D11*
X177800000Y-128905000D03*
D25*
X170180000Y-106045000D03*
X177800000Y-126365000D03*
X170180000Y-108585000D03*
X177800000Y-123825000D03*
X170180000Y-111125000D03*
X177800000Y-121285000D03*
X170180000Y-113665000D03*
X177800000Y-118745000D03*
X170180000Y-116205000D03*
X177800000Y-116205000D03*
X170180000Y-118745000D03*
X177800000Y-113665000D03*
X170180000Y-121285000D03*
X177800000Y-111125000D03*
X170180000Y-123825000D03*
X177800000Y-108585000D03*
X170180000Y-126365000D03*
X177800000Y-106045000D03*
X170180000Y-128905000D03*
D26*
X151765000Y-123825000D03*
X126365000Y-106680000D03*
X175260000Y-121285000D03*
D27*
X160655000Y-126365000D02*
X160655000Y-125730000D01*
X160655000Y-125730000D02*
X156210000Y-121285000D01*
X177800000Y-128905000D02*
X173990000Y-132715000D01*
X160655000Y-126365000D02*
X163830000Y-126365000D01*
X160655000Y-132715000D02*
X160655000Y-126365000D01*
X173990000Y-132715000D02*
X160655000Y-132715000D01*
X135230000Y-126365000D02*
X142240000Y-126365000D01*
X151765000Y-116205000D02*
X151765000Y-123825000D01*
X142240000Y-111125000D02*
X144780000Y-111125000D01*
X149860000Y-116205000D02*
X151765000Y-116205000D01*
X144780000Y-111125000D02*
X149860000Y-116205000D01*
X128590000Y-106450000D02*
X126595000Y-106450000D01*
X126595000Y-106450000D02*
X126365000Y-106680000D01*
X135230000Y-128665000D02*
X142040000Y-128665000D01*
X142040000Y-128665000D02*
X142240000Y-128865000D01*
X135230000Y-124065000D02*
X135230000Y-123800000D01*
X135230000Y-123800000D02*
X130650000Y-119220000D01*
X130650000Y-119220000D02*
X116205000Y-119220000D01*
X129540000Y-109450000D02*
X129540000Y-109855000D01*
X129540000Y-109855000D02*
X125175000Y-114220000D01*
X125175000Y-114220000D02*
X116205000Y-114220000D01*
X175260000Y-103505000D02*
X175260000Y-121285000D01*
X131040000Y-106450000D02*
X133985000Y-103505000D01*
X133985000Y-103505000D02*
X175260000Y-103505000D01*
X130490000Y-106450000D02*
X131040000Y-106450000D01*
M02*
