G04 #@! TF.FileFunction,Copper,L2,Bot,Signal*
%FSLAX46Y46*%
G04 Gerber Fmt 4.6, Leading zero omitted, Abs format (unit mm)*
G04 Created by KiCad (PCBNEW 4.0.2+dfsg1-stable) date Wed 21 Feb 2018 03:51:12 PM CET*
%MOMM*%
G01*
G04 APERTURE LIST*
%ADD10C,0.100000*%
%ADD11R,1.600000X1.600000*%
%ADD12C,1.600000*%
%ADD13R,1.800000X1.800000*%
%ADD14C,1.800000*%
%ADD15R,1.700000X1.700000*%
%ADD16O,1.700000X1.700000*%
%ADD17R,3.960000X1.980000*%
%ADD18O,3.960000X1.980000*%
%ADD19C,2.400000*%
%ADD20O,2.400000X2.400000*%
%ADD21C,2.000000*%
%ADD22O,1.600000X1.600000*%
%ADD23C,0.500000*%
%ADD24C,1.000000*%
%ADD25C,0.254000*%
G04 APERTURE END LIST*
D10*
D11*
X142240000Y-126365000D03*
D12*
X142240000Y-128865000D03*
D13*
X196850000Y-114935000D03*
D14*
X196850000Y-112395000D03*
D13*
X196850000Y-120015000D03*
D14*
X196850000Y-122555000D03*
D15*
X151765000Y-116205000D03*
D16*
X151765000Y-113665000D03*
X151765000Y-111125000D03*
D15*
X142240000Y-111125000D03*
D16*
X142240000Y-108585000D03*
X142240000Y-106045000D03*
D15*
X156210000Y-128905000D03*
D16*
X156210000Y-126365000D03*
X156210000Y-123825000D03*
X156210000Y-121285000D03*
D15*
X163830000Y-128905000D03*
D16*
X163830000Y-126365000D03*
X163830000Y-123825000D03*
D17*
X116205000Y-109220000D03*
D18*
X116205000Y-114220000D03*
X116205000Y-124220000D03*
X116205000Y-119220000D03*
D19*
X184150000Y-106680000D03*
D20*
X196850000Y-106680000D03*
D19*
X184150000Y-128270000D03*
D20*
X196850000Y-128270000D03*
D21*
X190500000Y-115515000D03*
X190500000Y-120015000D03*
X184000000Y-115515000D03*
X184000000Y-120015000D03*
D11*
X177800000Y-128905000D03*
D22*
X170180000Y-106045000D03*
X177800000Y-126365000D03*
X170180000Y-108585000D03*
X177800000Y-123825000D03*
X170180000Y-111125000D03*
X177800000Y-121285000D03*
X170180000Y-113665000D03*
X177800000Y-118745000D03*
X170180000Y-116205000D03*
X177800000Y-116205000D03*
X170180000Y-118745000D03*
X177800000Y-113665000D03*
X170180000Y-121285000D03*
X177800000Y-111125000D03*
X170180000Y-123825000D03*
X177800000Y-108585000D03*
X170180000Y-126365000D03*
X177800000Y-106045000D03*
X170180000Y-128905000D03*
D12*
X129540000Y-119380000D03*
X134540000Y-119380000D03*
D23*
X196850000Y-112395000D02*
X196850000Y-106680000D01*
X196850000Y-128270000D02*
X196850000Y-122555000D01*
X170180000Y-111125000D02*
X154305000Y-111125000D01*
X154305000Y-111125000D02*
X151765000Y-113665000D01*
X170180000Y-108585000D02*
X142240000Y-108585000D01*
X170180000Y-121285000D02*
X161290000Y-121285000D01*
X161290000Y-121285000D02*
X156210000Y-126365000D01*
X170180000Y-118745000D02*
X161290000Y-118745000D01*
X161290000Y-118745000D02*
X156210000Y-123825000D01*
X177800000Y-118745000D02*
X182730000Y-118745000D01*
X182730000Y-118745000D02*
X184000000Y-120015000D01*
X172720000Y-113665000D02*
X172720000Y-104775000D01*
X172720000Y-104775000D02*
X175260000Y-102235000D01*
X170180000Y-113665000D02*
X172720000Y-113665000D01*
X184150000Y-105410000D02*
X184150000Y-106680000D01*
X180975000Y-102235000D02*
X184150000Y-105410000D01*
X175260000Y-102235000D02*
X180975000Y-102235000D01*
X177800000Y-126365000D02*
X182245000Y-126365000D01*
X182245000Y-126365000D02*
X184150000Y-128270000D01*
X172720000Y-131445000D02*
X167005000Y-131445000D01*
X172720000Y-116205000D02*
X172720000Y-131445000D01*
X177800000Y-116205000D02*
X172720000Y-116205000D01*
X165100000Y-123825000D02*
X163830000Y-123825000D01*
X167005000Y-125730000D02*
X165100000Y-123825000D01*
X167005000Y-131445000D02*
X167005000Y-125730000D01*
X164465000Y-123825000D02*
X163830000Y-123825000D01*
X116205000Y-109220000D02*
X115570000Y-109220000D01*
D24*
X115570000Y-109220000D02*
X111760000Y-111760000D01*
X111760000Y-111760000D02*
X111760000Y-116840000D01*
X111760000Y-116840000D02*
X116205000Y-119220000D01*
D25*
G36*
X172094210Y-104149210D02*
X171902367Y-104436325D01*
X171902367Y-104436326D01*
X171834999Y-104775000D01*
X171835000Y-104775005D01*
X171835000Y-112780000D01*
X171309473Y-112780000D01*
X171222811Y-112650302D01*
X170840725Y-112395000D01*
X171222811Y-112139698D01*
X171533880Y-111674151D01*
X171643113Y-111125000D01*
X171533880Y-110575849D01*
X171222811Y-110110302D01*
X170840725Y-109855000D01*
X171222811Y-109599698D01*
X171533880Y-109134151D01*
X171643113Y-108585000D01*
X171533880Y-108035849D01*
X171222811Y-107570302D01*
X170840725Y-107315000D01*
X171222811Y-107059698D01*
X171533880Y-106594151D01*
X171643113Y-106045000D01*
X171533880Y-105495849D01*
X171222811Y-105030302D01*
X170757264Y-104719233D01*
X170208113Y-104610000D01*
X170151887Y-104610000D01*
X169602736Y-104719233D01*
X169137189Y-105030302D01*
X168826120Y-105495849D01*
X168716887Y-106045000D01*
X168826120Y-106594151D01*
X169137189Y-107059698D01*
X169519275Y-107315000D01*
X169137189Y-107570302D01*
X169050527Y-107700000D01*
X143429432Y-107700000D01*
X143319147Y-107534946D01*
X142989974Y-107315000D01*
X143319147Y-107095054D01*
X143641054Y-106613285D01*
X143754093Y-106045000D01*
X143641054Y-105476715D01*
X143319147Y-104994946D01*
X142837378Y-104673039D01*
X142269093Y-104560000D01*
X142210907Y-104560000D01*
X141642622Y-104673039D01*
X141160853Y-104994946D01*
X140838946Y-105476715D01*
X140725907Y-106045000D01*
X140838946Y-106613285D01*
X141160853Y-107095054D01*
X141490026Y-107315000D01*
X141160853Y-107534946D01*
X140838946Y-108016715D01*
X140725907Y-108585000D01*
X140838946Y-109153285D01*
X141160853Y-109635054D01*
X141204777Y-109664403D01*
X141030302Y-109736673D01*
X140851673Y-109915301D01*
X140755000Y-110148690D01*
X140755000Y-110839250D01*
X140913750Y-110998000D01*
X142113000Y-110998000D01*
X142113000Y-110978000D01*
X142367000Y-110978000D01*
X142367000Y-110998000D01*
X143566250Y-110998000D01*
X143725000Y-110839250D01*
X143725000Y-110148690D01*
X143628327Y-109915301D01*
X143449698Y-109736673D01*
X143275223Y-109664403D01*
X143319147Y-109635054D01*
X143429432Y-109470000D01*
X169050527Y-109470000D01*
X169137189Y-109599698D01*
X169519275Y-109855000D01*
X169137189Y-110110302D01*
X169050527Y-110240000D01*
X154305000Y-110240000D01*
X153966325Y-110307367D01*
X153679210Y-110499210D01*
X153679208Y-110499213D01*
X153241652Y-110936769D01*
X153166054Y-110556715D01*
X152844147Y-110074946D01*
X152362378Y-109753039D01*
X151794093Y-109640000D01*
X151735907Y-109640000D01*
X151167622Y-109753039D01*
X150685853Y-110074946D01*
X150363946Y-110556715D01*
X150250907Y-111125000D01*
X150363946Y-111693285D01*
X150685853Y-112175054D01*
X151015026Y-112395000D01*
X150685853Y-112614946D01*
X150363946Y-113096715D01*
X150250907Y-113665000D01*
X150363946Y-114233285D01*
X150685853Y-114715054D01*
X150729777Y-114744403D01*
X150555302Y-114816673D01*
X150376673Y-114995301D01*
X150280000Y-115228690D01*
X150280000Y-115919250D01*
X150438750Y-116078000D01*
X151638000Y-116078000D01*
X151638000Y-116058000D01*
X151892000Y-116058000D01*
X151892000Y-116078000D01*
X153091250Y-116078000D01*
X153250000Y-115919250D01*
X153250000Y-115228690D01*
X153153327Y-114995301D01*
X152974698Y-114816673D01*
X152800223Y-114744403D01*
X152844147Y-114715054D01*
X153166054Y-114233285D01*
X153279093Y-113665000D01*
X153235539Y-113446040D01*
X154671579Y-112010000D01*
X169050527Y-112010000D01*
X169137189Y-112139698D01*
X169519275Y-112395000D01*
X169137189Y-112650302D01*
X168826120Y-113115849D01*
X168716887Y-113665000D01*
X168826120Y-114214151D01*
X169137189Y-114679698D01*
X169519275Y-114935000D01*
X169137189Y-115190302D01*
X168826120Y-115655849D01*
X168716887Y-116205000D01*
X168826120Y-116754151D01*
X169137189Y-117219698D01*
X169519275Y-117475000D01*
X169137189Y-117730302D01*
X169050527Y-117860000D01*
X161290005Y-117860000D01*
X161290000Y-117859999D01*
X161007516Y-117916190D01*
X160951325Y-117927367D01*
X160664210Y-118119210D01*
X160664208Y-118119213D01*
X157686651Y-121096769D01*
X157611054Y-120716715D01*
X157289147Y-120234946D01*
X156807378Y-119913039D01*
X156239093Y-119800000D01*
X156180907Y-119800000D01*
X155612622Y-119913039D01*
X155130853Y-120234946D01*
X154808946Y-120716715D01*
X154695907Y-121285000D01*
X154808946Y-121853285D01*
X155130853Y-122335054D01*
X155460026Y-122555000D01*
X155130853Y-122774946D01*
X154808946Y-123256715D01*
X154695907Y-123825000D01*
X154808946Y-124393285D01*
X155130853Y-124875054D01*
X155460026Y-125095000D01*
X155130853Y-125314946D01*
X154808946Y-125796715D01*
X154695907Y-126365000D01*
X154808946Y-126933285D01*
X155130853Y-127415054D01*
X155174777Y-127444403D01*
X155000302Y-127516673D01*
X154821673Y-127695301D01*
X154725000Y-127928690D01*
X154725000Y-128619250D01*
X154883750Y-128778000D01*
X156083000Y-128778000D01*
X156083000Y-128758000D01*
X156337000Y-128758000D01*
X156337000Y-128778000D01*
X157536250Y-128778000D01*
X157695000Y-128619250D01*
X157695000Y-127928690D01*
X157598327Y-127695301D01*
X157419698Y-127516673D01*
X157245223Y-127444403D01*
X157289147Y-127415054D01*
X157611054Y-126933285D01*
X157724093Y-126365000D01*
X157680539Y-126146041D01*
X160001579Y-123825000D01*
X162315907Y-123825000D01*
X162428946Y-124393285D01*
X162750853Y-124875054D01*
X163080026Y-125095000D01*
X162750853Y-125314946D01*
X162428946Y-125796715D01*
X162315907Y-126365000D01*
X162428946Y-126933285D01*
X162750853Y-127415054D01*
X162794777Y-127444403D01*
X162620302Y-127516673D01*
X162441673Y-127695301D01*
X162345000Y-127928690D01*
X162345000Y-128619250D01*
X162503750Y-128778000D01*
X163703000Y-128778000D01*
X163703000Y-128758000D01*
X163957000Y-128758000D01*
X163957000Y-128778000D01*
X165156250Y-128778000D01*
X165315000Y-128619250D01*
X165315000Y-127928690D01*
X165218327Y-127695301D01*
X165039698Y-127516673D01*
X164865223Y-127444403D01*
X164909147Y-127415054D01*
X165231054Y-126933285D01*
X165344093Y-126365000D01*
X165231054Y-125796715D01*
X164909147Y-125314946D01*
X164579974Y-125095000D01*
X164902749Y-124879329D01*
X166120000Y-126096579D01*
X166120000Y-131445000D01*
X166187367Y-131783675D01*
X166379210Y-132070790D01*
X166666325Y-132262633D01*
X167005000Y-132330000D01*
X172720000Y-132330000D01*
X173058675Y-132262633D01*
X173345790Y-132070790D01*
X173537633Y-131783675D01*
X173605000Y-131445000D01*
X173605000Y-117090000D01*
X176670527Y-117090000D01*
X176757189Y-117219698D01*
X177139275Y-117475000D01*
X176757189Y-117730302D01*
X176446120Y-118195849D01*
X176336887Y-118745000D01*
X176446120Y-119294151D01*
X176757189Y-119759698D01*
X177139275Y-120015000D01*
X176757189Y-120270302D01*
X176446120Y-120735849D01*
X176336887Y-121285000D01*
X176446120Y-121834151D01*
X176757189Y-122299698D01*
X177139275Y-122555000D01*
X176757189Y-122810302D01*
X176446120Y-123275849D01*
X176336887Y-123825000D01*
X176446120Y-124374151D01*
X176757189Y-124839698D01*
X177139275Y-125095000D01*
X176757189Y-125350302D01*
X176446120Y-125815849D01*
X176336887Y-126365000D01*
X176446120Y-126914151D01*
X176757189Y-127379698D01*
X176901465Y-127476101D01*
X176764683Y-127501838D01*
X176548559Y-127640910D01*
X176403569Y-127853110D01*
X176352560Y-128105000D01*
X176352560Y-129705000D01*
X176396838Y-129940317D01*
X176535910Y-130156441D01*
X176748110Y-130301431D01*
X177000000Y-130352440D01*
X178600000Y-130352440D01*
X178835317Y-130308162D01*
X179051441Y-130169090D01*
X179196431Y-129956890D01*
X179247440Y-129705000D01*
X179247440Y-128105000D01*
X179203162Y-127869683D01*
X179064090Y-127653559D01*
X178851890Y-127508569D01*
X178696911Y-127477185D01*
X178842811Y-127379698D01*
X178929473Y-127250000D01*
X181878420Y-127250000D01*
X182378840Y-127750420D01*
X182315319Y-127903395D01*
X182314682Y-128633403D01*
X182593455Y-129308086D01*
X183109199Y-129824730D01*
X183783395Y-130104681D01*
X184513403Y-130105318D01*
X185188086Y-129826545D01*
X185704730Y-129310801D01*
X185984681Y-128636605D01*
X185985000Y-128270000D01*
X194979050Y-128270000D01*
X195118731Y-128972224D01*
X195516509Y-129567541D01*
X196111826Y-129965319D01*
X196814050Y-130105000D01*
X196885950Y-130105000D01*
X197588174Y-129965319D01*
X198183491Y-129567541D01*
X198581269Y-128972224D01*
X198720950Y-128270000D01*
X198581269Y-127567776D01*
X198183491Y-126972459D01*
X197735000Y-126672787D01*
X197735000Y-123840468D01*
X198150551Y-123425643D01*
X198384733Y-122861670D01*
X198385265Y-122251009D01*
X198152068Y-121686629D01*
X197974908Y-121509159D01*
X198109699Y-121453327D01*
X198288327Y-121274698D01*
X198385000Y-121041309D01*
X198385000Y-120300750D01*
X198226250Y-120142000D01*
X196977000Y-120142000D01*
X196977000Y-120162000D01*
X196723000Y-120162000D01*
X196723000Y-120142000D01*
X195473750Y-120142000D01*
X195315000Y-120300750D01*
X195315000Y-121041309D01*
X195411673Y-121274698D01*
X195590301Y-121453327D01*
X195724994Y-121509119D01*
X195549449Y-121684357D01*
X195315267Y-122248330D01*
X195314735Y-122858991D01*
X195547932Y-123423371D01*
X195965000Y-123841169D01*
X195965000Y-126672787D01*
X195516509Y-126972459D01*
X195118731Y-127567776D01*
X194979050Y-128270000D01*
X185985000Y-128270000D01*
X185985318Y-127906597D01*
X185706545Y-127231914D01*
X185190801Y-126715270D01*
X184516605Y-126435319D01*
X183786597Y-126434682D01*
X183630684Y-126499104D01*
X182870790Y-125739210D01*
X182857006Y-125730000D01*
X182583675Y-125547367D01*
X182527484Y-125536190D01*
X182245000Y-125479999D01*
X182244995Y-125480000D01*
X178929473Y-125480000D01*
X178842811Y-125350302D01*
X178460725Y-125095000D01*
X178842811Y-124839698D01*
X179153880Y-124374151D01*
X179263113Y-123825000D01*
X179153880Y-123275849D01*
X178842811Y-122810302D01*
X178460725Y-122555000D01*
X178842811Y-122299698D01*
X179153880Y-121834151D01*
X179263113Y-121285000D01*
X179153880Y-120735849D01*
X178842811Y-120270302D01*
X178460725Y-120015000D01*
X178842811Y-119759698D01*
X178929473Y-119630000D01*
X182363420Y-119630000D01*
X182381858Y-119648438D01*
X182365284Y-119688352D01*
X182364716Y-120338795D01*
X182613106Y-120939943D01*
X183072637Y-121400278D01*
X183673352Y-121649716D01*
X184323795Y-121650284D01*
X184924943Y-121401894D01*
X185385278Y-120942363D01*
X185634716Y-120341648D01*
X185634718Y-120338795D01*
X188864716Y-120338795D01*
X189113106Y-120939943D01*
X189572637Y-121400278D01*
X190173352Y-121649716D01*
X190823795Y-121650284D01*
X191424943Y-121401894D01*
X191885278Y-120942363D01*
X192134716Y-120341648D01*
X192135284Y-119691205D01*
X191886894Y-119090057D01*
X191785706Y-118988691D01*
X195315000Y-118988691D01*
X195315000Y-119729250D01*
X195473750Y-119888000D01*
X196723000Y-119888000D01*
X196723000Y-118638750D01*
X196977000Y-118638750D01*
X196977000Y-119888000D01*
X198226250Y-119888000D01*
X198385000Y-119729250D01*
X198385000Y-118988691D01*
X198288327Y-118755302D01*
X198109699Y-118576673D01*
X197876310Y-118480000D01*
X197135750Y-118480000D01*
X196977000Y-118638750D01*
X196723000Y-118638750D01*
X196564250Y-118480000D01*
X195823690Y-118480000D01*
X195590301Y-118576673D01*
X195411673Y-118755302D01*
X195315000Y-118988691D01*
X191785706Y-118988691D01*
X191427363Y-118629722D01*
X190826648Y-118380284D01*
X190176205Y-118379716D01*
X189575057Y-118628106D01*
X189114722Y-119087637D01*
X188865284Y-119688352D01*
X188864716Y-120338795D01*
X185634718Y-120338795D01*
X185635284Y-119691205D01*
X185386894Y-119090057D01*
X184927363Y-118629722D01*
X184326648Y-118380284D01*
X183676205Y-118379716D01*
X183633812Y-118397232D01*
X183355790Y-118119210D01*
X183283565Y-118070951D01*
X183068675Y-117927367D01*
X183012484Y-117916190D01*
X182730000Y-117859999D01*
X182729995Y-117860000D01*
X178929473Y-117860000D01*
X178842811Y-117730302D01*
X178460725Y-117475000D01*
X178842811Y-117219698D01*
X179153880Y-116754151D01*
X179171109Y-116667532D01*
X183027073Y-116667532D01*
X183125736Y-116934387D01*
X183735461Y-117160908D01*
X184385460Y-117136856D01*
X184874264Y-116934387D01*
X184972927Y-116667532D01*
X189527073Y-116667532D01*
X189625736Y-116934387D01*
X190235461Y-117160908D01*
X190885460Y-117136856D01*
X191374264Y-116934387D01*
X191472927Y-116667532D01*
X190500000Y-115694605D01*
X189527073Y-116667532D01*
X184972927Y-116667532D01*
X184000000Y-115694605D01*
X183027073Y-116667532D01*
X179171109Y-116667532D01*
X179263113Y-116205000D01*
X179153880Y-115655849D01*
X178883009Y-115250461D01*
X182354092Y-115250461D01*
X182378144Y-115900460D01*
X182580613Y-116389264D01*
X182847468Y-116487927D01*
X183820395Y-115515000D01*
X184179605Y-115515000D01*
X185152532Y-116487927D01*
X185419387Y-116389264D01*
X185645908Y-115779539D01*
X185626331Y-115250461D01*
X188854092Y-115250461D01*
X188878144Y-115900460D01*
X189080613Y-116389264D01*
X189347468Y-116487927D01*
X190320395Y-115515000D01*
X190679605Y-115515000D01*
X191652532Y-116487927D01*
X191919387Y-116389264D01*
X192145908Y-115779539D01*
X192125232Y-115220750D01*
X195315000Y-115220750D01*
X195315000Y-115961309D01*
X195411673Y-116194698D01*
X195590301Y-116373327D01*
X195823690Y-116470000D01*
X196564250Y-116470000D01*
X196723000Y-116311250D01*
X196723000Y-115062000D01*
X196977000Y-115062000D01*
X196977000Y-116311250D01*
X197135750Y-116470000D01*
X197876310Y-116470000D01*
X198109699Y-116373327D01*
X198288327Y-116194698D01*
X198385000Y-115961309D01*
X198385000Y-115220750D01*
X198226250Y-115062000D01*
X196977000Y-115062000D01*
X196723000Y-115062000D01*
X195473750Y-115062000D01*
X195315000Y-115220750D01*
X192125232Y-115220750D01*
X192121856Y-115129540D01*
X191919387Y-114640736D01*
X191652532Y-114542073D01*
X190679605Y-115515000D01*
X190320395Y-115515000D01*
X189347468Y-114542073D01*
X189080613Y-114640736D01*
X188854092Y-115250461D01*
X185626331Y-115250461D01*
X185621856Y-115129540D01*
X185419387Y-114640736D01*
X185152532Y-114542073D01*
X184179605Y-115515000D01*
X183820395Y-115515000D01*
X182847468Y-114542073D01*
X182580613Y-114640736D01*
X182354092Y-115250461D01*
X178883009Y-115250461D01*
X178842811Y-115190302D01*
X178460725Y-114935000D01*
X178842811Y-114679698D01*
X179054777Y-114362468D01*
X183027073Y-114362468D01*
X184000000Y-115335395D01*
X184972927Y-114362468D01*
X189527073Y-114362468D01*
X190500000Y-115335395D01*
X191472927Y-114362468D01*
X191374264Y-114095613D01*
X190764539Y-113869092D01*
X190114540Y-113893144D01*
X189625736Y-114095613D01*
X189527073Y-114362468D01*
X184972927Y-114362468D01*
X184874264Y-114095613D01*
X184264539Y-113869092D01*
X183614540Y-113893144D01*
X183125736Y-114095613D01*
X183027073Y-114362468D01*
X179054777Y-114362468D01*
X179153880Y-114214151D01*
X179263113Y-113665000D01*
X179153880Y-113115849D01*
X178842811Y-112650302D01*
X178460725Y-112395000D01*
X178842811Y-112139698D01*
X179153880Y-111674151D01*
X179263113Y-111125000D01*
X179153880Y-110575849D01*
X178842811Y-110110302D01*
X178460725Y-109855000D01*
X178842811Y-109599698D01*
X179153880Y-109134151D01*
X179263113Y-108585000D01*
X179153880Y-108035849D01*
X178842811Y-107570302D01*
X178460725Y-107315000D01*
X178842811Y-107059698D01*
X179153880Y-106594151D01*
X179263113Y-106045000D01*
X179153880Y-105495849D01*
X178842811Y-105030302D01*
X178377264Y-104719233D01*
X177828113Y-104610000D01*
X177771887Y-104610000D01*
X177222736Y-104719233D01*
X176757189Y-105030302D01*
X176446120Y-105495849D01*
X176336887Y-106045000D01*
X176446120Y-106594151D01*
X176757189Y-107059698D01*
X177139275Y-107315000D01*
X176757189Y-107570302D01*
X176446120Y-108035849D01*
X176336887Y-108585000D01*
X176446120Y-109134151D01*
X176757189Y-109599698D01*
X177139275Y-109855000D01*
X176757189Y-110110302D01*
X176446120Y-110575849D01*
X176336887Y-111125000D01*
X176446120Y-111674151D01*
X176757189Y-112139698D01*
X177139275Y-112395000D01*
X176757189Y-112650302D01*
X176446120Y-113115849D01*
X176336887Y-113665000D01*
X176446120Y-114214151D01*
X176757189Y-114679698D01*
X177139275Y-114935000D01*
X176757189Y-115190302D01*
X176670527Y-115320000D01*
X172720000Y-115320000D01*
X172381325Y-115387367D01*
X172094210Y-115579210D01*
X171902367Y-115866325D01*
X171835000Y-116205000D01*
X171835000Y-130560000D01*
X167890000Y-130560000D01*
X167890000Y-129254039D01*
X168788096Y-129254039D01*
X168948959Y-129642423D01*
X169324866Y-130057389D01*
X169830959Y-130296914D01*
X170053000Y-130175629D01*
X170053000Y-129032000D01*
X170307000Y-129032000D01*
X170307000Y-130175629D01*
X170529041Y-130296914D01*
X171035134Y-130057389D01*
X171411041Y-129642423D01*
X171571904Y-129254039D01*
X171449915Y-129032000D01*
X170307000Y-129032000D01*
X170053000Y-129032000D01*
X168910085Y-129032000D01*
X168788096Y-129254039D01*
X167890000Y-129254039D01*
X167890000Y-125730005D01*
X167890001Y-125730000D01*
X167822633Y-125391326D01*
X167822633Y-125391325D01*
X167630790Y-125104210D01*
X167630787Y-125104208D01*
X165725790Y-123199210D01*
X165668236Y-123160754D01*
X165438675Y-123007367D01*
X165382484Y-122996190D01*
X165100000Y-122939999D01*
X165099995Y-122940000D01*
X165019432Y-122940000D01*
X164909147Y-122774946D01*
X164427378Y-122453039D01*
X163859093Y-122340000D01*
X163800907Y-122340000D01*
X163232622Y-122453039D01*
X162750853Y-122774946D01*
X162428946Y-123256715D01*
X162315907Y-123825000D01*
X160001579Y-123825000D01*
X161656579Y-122170000D01*
X169050527Y-122170000D01*
X169137189Y-122299698D01*
X169519275Y-122555000D01*
X169137189Y-122810302D01*
X168826120Y-123275849D01*
X168716887Y-123825000D01*
X168826120Y-124374151D01*
X169137189Y-124839698D01*
X169519275Y-125095000D01*
X169137189Y-125350302D01*
X168826120Y-125815849D01*
X168716887Y-126365000D01*
X168826120Y-126914151D01*
X169137189Y-127379698D01*
X169541703Y-127649986D01*
X169324866Y-127752611D01*
X168948959Y-128167577D01*
X168788096Y-128555961D01*
X168910085Y-128778000D01*
X170053000Y-128778000D01*
X170053000Y-128758000D01*
X170307000Y-128758000D01*
X170307000Y-128778000D01*
X171449915Y-128778000D01*
X171571904Y-128555961D01*
X171411041Y-128167577D01*
X171035134Y-127752611D01*
X170818297Y-127649986D01*
X171222811Y-127379698D01*
X171533880Y-126914151D01*
X171643113Y-126365000D01*
X171533880Y-125815849D01*
X171222811Y-125350302D01*
X170840725Y-125095000D01*
X171222811Y-124839698D01*
X171533880Y-124374151D01*
X171643113Y-123825000D01*
X171533880Y-123275849D01*
X171222811Y-122810302D01*
X170840725Y-122555000D01*
X171222811Y-122299698D01*
X171533880Y-121834151D01*
X171643113Y-121285000D01*
X171533880Y-120735849D01*
X171222811Y-120270302D01*
X170840725Y-120015000D01*
X171222811Y-119759698D01*
X171533880Y-119294151D01*
X171643113Y-118745000D01*
X171533880Y-118195849D01*
X171222811Y-117730302D01*
X170840725Y-117475000D01*
X171222811Y-117219698D01*
X171533880Y-116754151D01*
X171643113Y-116205000D01*
X171533880Y-115655849D01*
X171222811Y-115190302D01*
X170840725Y-114935000D01*
X171222811Y-114679698D01*
X171309473Y-114550000D01*
X172720000Y-114550000D01*
X173058675Y-114482633D01*
X173345790Y-114290790D01*
X173537633Y-114003675D01*
X173605000Y-113665000D01*
X173605000Y-105141580D01*
X175626579Y-103120000D01*
X180608420Y-103120000D01*
X182861677Y-105373256D01*
X182595270Y-105639199D01*
X182315319Y-106313395D01*
X182314682Y-107043403D01*
X182593455Y-107718086D01*
X183109199Y-108234730D01*
X183783395Y-108514681D01*
X184513403Y-108515318D01*
X185188086Y-108236545D01*
X185704730Y-107720801D01*
X185984681Y-107046605D01*
X185985000Y-106680000D01*
X194979050Y-106680000D01*
X195118731Y-107382224D01*
X195516509Y-107977541D01*
X195965000Y-108277213D01*
X195965000Y-111109532D01*
X195549449Y-111524357D01*
X195315267Y-112088330D01*
X195314735Y-112698991D01*
X195547932Y-113263371D01*
X195725092Y-113440841D01*
X195590301Y-113496673D01*
X195411673Y-113675302D01*
X195315000Y-113908691D01*
X195315000Y-114649250D01*
X195473750Y-114808000D01*
X196723000Y-114808000D01*
X196723000Y-114788000D01*
X196977000Y-114788000D01*
X196977000Y-114808000D01*
X198226250Y-114808000D01*
X198385000Y-114649250D01*
X198385000Y-113908691D01*
X198288327Y-113675302D01*
X198109699Y-113496673D01*
X197975006Y-113440881D01*
X198150551Y-113265643D01*
X198384733Y-112701670D01*
X198385265Y-112091009D01*
X198152068Y-111526629D01*
X197735000Y-111108831D01*
X197735000Y-108277213D01*
X198183491Y-107977541D01*
X198581269Y-107382224D01*
X198720950Y-106680000D01*
X198581269Y-105977776D01*
X198183491Y-105382459D01*
X197588174Y-104984681D01*
X196885950Y-104845000D01*
X196814050Y-104845000D01*
X196111826Y-104984681D01*
X195516509Y-105382459D01*
X195118731Y-105977776D01*
X194979050Y-106680000D01*
X185985000Y-106680000D01*
X185985318Y-106316597D01*
X185706545Y-105641914D01*
X185190801Y-105125270D01*
X184931824Y-105017733D01*
X184775790Y-104784210D01*
X184775787Y-104784208D01*
X181666580Y-101675000D01*
X201220000Y-101675000D01*
X201220000Y-133275000D01*
X107390000Y-133275000D01*
X107390000Y-129872745D01*
X141411861Y-129872745D01*
X141485995Y-130118864D01*
X142023223Y-130311965D01*
X142593454Y-130284778D01*
X142994005Y-130118864D01*
X143068139Y-129872745D01*
X142240000Y-129044605D01*
X141411861Y-129872745D01*
X107390000Y-129872745D01*
X107390000Y-128648223D01*
X140793035Y-128648223D01*
X140820222Y-129218454D01*
X140986136Y-129619005D01*
X141232255Y-129693139D01*
X142060395Y-128865000D01*
X142419605Y-128865000D01*
X143247745Y-129693139D01*
X143493864Y-129619005D01*
X143647795Y-129190750D01*
X154725000Y-129190750D01*
X154725000Y-129881310D01*
X154821673Y-130114699D01*
X155000302Y-130293327D01*
X155233691Y-130390000D01*
X155924250Y-130390000D01*
X156083000Y-130231250D01*
X156083000Y-129032000D01*
X156337000Y-129032000D01*
X156337000Y-130231250D01*
X156495750Y-130390000D01*
X157186309Y-130390000D01*
X157419698Y-130293327D01*
X157598327Y-130114699D01*
X157695000Y-129881310D01*
X157695000Y-129190750D01*
X162345000Y-129190750D01*
X162345000Y-129881310D01*
X162441673Y-130114699D01*
X162620302Y-130293327D01*
X162853691Y-130390000D01*
X163544250Y-130390000D01*
X163703000Y-130231250D01*
X163703000Y-129032000D01*
X163957000Y-129032000D01*
X163957000Y-130231250D01*
X164115750Y-130390000D01*
X164806309Y-130390000D01*
X165039698Y-130293327D01*
X165218327Y-130114699D01*
X165315000Y-129881310D01*
X165315000Y-129190750D01*
X165156250Y-129032000D01*
X163957000Y-129032000D01*
X163703000Y-129032000D01*
X162503750Y-129032000D01*
X162345000Y-129190750D01*
X157695000Y-129190750D01*
X157536250Y-129032000D01*
X156337000Y-129032000D01*
X156083000Y-129032000D01*
X154883750Y-129032000D01*
X154725000Y-129190750D01*
X143647795Y-129190750D01*
X143686965Y-129081777D01*
X143659778Y-128511546D01*
X143493864Y-128110995D01*
X143247745Y-128036861D01*
X142419605Y-128865000D01*
X142060395Y-128865000D01*
X141232255Y-128036861D01*
X140986136Y-128110995D01*
X140793035Y-128648223D01*
X107390000Y-128648223D01*
X107390000Y-124598865D01*
X113634782Y-124598865D01*
X113665095Y-124724528D01*
X113976149Y-125279246D01*
X114475807Y-125672703D01*
X115088000Y-125845000D01*
X116078000Y-125845000D01*
X116078000Y-124347000D01*
X116332000Y-124347000D01*
X116332000Y-125845000D01*
X117322000Y-125845000D01*
X117934193Y-125672703D01*
X118070966Y-125565000D01*
X140792560Y-125565000D01*
X140792560Y-127165000D01*
X140836838Y-127400317D01*
X140975910Y-127616441D01*
X141188110Y-127761431D01*
X141426201Y-127809646D01*
X141411861Y-127857255D01*
X142240000Y-128685395D01*
X143068139Y-127857255D01*
X143053855Y-127809833D01*
X143275317Y-127768162D01*
X143491441Y-127629090D01*
X143636431Y-127416890D01*
X143687440Y-127165000D01*
X143687440Y-125565000D01*
X143643162Y-125329683D01*
X143504090Y-125113559D01*
X143291890Y-124968569D01*
X143040000Y-124917560D01*
X141440000Y-124917560D01*
X141204683Y-124961838D01*
X140988559Y-125100910D01*
X140843569Y-125313110D01*
X140792560Y-125565000D01*
X118070966Y-125565000D01*
X118433851Y-125279246D01*
X118744905Y-124724528D01*
X118775218Y-124598865D01*
X118655740Y-124347000D01*
X116332000Y-124347000D01*
X116078000Y-124347000D01*
X113754260Y-124347000D01*
X113634782Y-124598865D01*
X107390000Y-124598865D01*
X107390000Y-123841135D01*
X113634782Y-123841135D01*
X113754260Y-124093000D01*
X116078000Y-124093000D01*
X116078000Y-122595000D01*
X116332000Y-122595000D01*
X116332000Y-124093000D01*
X118655740Y-124093000D01*
X118775218Y-123841135D01*
X118744905Y-123715472D01*
X118433851Y-123160754D01*
X117934193Y-122767297D01*
X117322000Y-122595000D01*
X116332000Y-122595000D01*
X116078000Y-122595000D01*
X115088000Y-122595000D01*
X114475807Y-122767297D01*
X113976149Y-123160754D01*
X113665095Y-123715472D01*
X113634782Y-123841135D01*
X107390000Y-123841135D01*
X107390000Y-111760000D01*
X110625000Y-111760000D01*
X110625000Y-116840000D01*
X110657451Y-117003143D01*
X110673637Y-117168694D01*
X110700333Y-117218726D01*
X110711397Y-117274346D01*
X110803810Y-117412652D01*
X110882117Y-117559407D01*
X110925929Y-117595415D01*
X110957434Y-117642566D01*
X111095738Y-117734978D01*
X111224247Y-117840597D01*
X113563960Y-119093356D01*
X113538769Y-119220000D01*
X113662465Y-119841861D01*
X114014720Y-120369049D01*
X114541908Y-120721304D01*
X115163769Y-120845000D01*
X117246231Y-120845000D01*
X117868092Y-120721304D01*
X118395280Y-120369049D01*
X118747535Y-119841861D01*
X118782876Y-119664187D01*
X128104752Y-119664187D01*
X128322757Y-120191800D01*
X128726077Y-120595824D01*
X129253309Y-120814750D01*
X129824187Y-120815248D01*
X130351800Y-120597243D01*
X130561663Y-120387745D01*
X133711861Y-120387745D01*
X133785995Y-120633864D01*
X134323223Y-120826965D01*
X134893454Y-120799778D01*
X135294005Y-120633864D01*
X135368139Y-120387745D01*
X134540000Y-119559605D01*
X133711861Y-120387745D01*
X130561663Y-120387745D01*
X130755824Y-120193923D01*
X130974750Y-119666691D01*
X130975189Y-119163223D01*
X133093035Y-119163223D01*
X133120222Y-119733454D01*
X133286136Y-120134005D01*
X133532255Y-120208139D01*
X134360395Y-119380000D01*
X134719605Y-119380000D01*
X135547745Y-120208139D01*
X135793864Y-120134005D01*
X135986965Y-119596777D01*
X135959778Y-119026546D01*
X135793864Y-118625995D01*
X135547745Y-118551861D01*
X134719605Y-119380000D01*
X134360395Y-119380000D01*
X133532255Y-118551861D01*
X133286136Y-118625995D01*
X133093035Y-119163223D01*
X130975189Y-119163223D01*
X130975248Y-119095813D01*
X130757243Y-118568200D01*
X130561640Y-118372255D01*
X133711861Y-118372255D01*
X134540000Y-119200395D01*
X135368139Y-118372255D01*
X135294005Y-118126136D01*
X134756777Y-117933035D01*
X134186546Y-117960222D01*
X133785995Y-118126136D01*
X133711861Y-118372255D01*
X130561640Y-118372255D01*
X130353923Y-118164176D01*
X129826691Y-117945250D01*
X129255813Y-117944752D01*
X128728200Y-118162757D01*
X128324176Y-118566077D01*
X128105250Y-119093309D01*
X128104752Y-119664187D01*
X118782876Y-119664187D01*
X118871231Y-119220000D01*
X118747535Y-118598139D01*
X118395280Y-118070951D01*
X117868092Y-117718696D01*
X117246231Y-117595000D01*
X115574589Y-117595000D01*
X113512239Y-116490750D01*
X150280000Y-116490750D01*
X150280000Y-117181310D01*
X150376673Y-117414699D01*
X150555302Y-117593327D01*
X150788691Y-117690000D01*
X151479250Y-117690000D01*
X151638000Y-117531250D01*
X151638000Y-116332000D01*
X151892000Y-116332000D01*
X151892000Y-117531250D01*
X152050750Y-117690000D01*
X152741309Y-117690000D01*
X152974698Y-117593327D01*
X153153327Y-117414699D01*
X153250000Y-117181310D01*
X153250000Y-116490750D01*
X153091250Y-116332000D01*
X151892000Y-116332000D01*
X151638000Y-116332000D01*
X150438750Y-116332000D01*
X150280000Y-116490750D01*
X113512239Y-116490750D01*
X112895000Y-116160260D01*
X112895000Y-114220000D01*
X113538769Y-114220000D01*
X113662465Y-114841861D01*
X114014720Y-115369049D01*
X114541908Y-115721304D01*
X115163769Y-115845000D01*
X117246231Y-115845000D01*
X117868092Y-115721304D01*
X118395280Y-115369049D01*
X118747535Y-114841861D01*
X118871231Y-114220000D01*
X118747535Y-113598139D01*
X118395280Y-113070951D01*
X117868092Y-112718696D01*
X117246231Y-112595000D01*
X115163769Y-112595000D01*
X114541908Y-112718696D01*
X114014720Y-113070951D01*
X113662465Y-113598139D01*
X113538769Y-114220000D01*
X112895000Y-114220000D01*
X112895000Y-112367434D01*
X114330026Y-111410750D01*
X140755000Y-111410750D01*
X140755000Y-112101310D01*
X140851673Y-112334699D01*
X141030302Y-112513327D01*
X141263691Y-112610000D01*
X141954250Y-112610000D01*
X142113000Y-112451250D01*
X142113000Y-111252000D01*
X142367000Y-111252000D01*
X142367000Y-112451250D01*
X142525750Y-112610000D01*
X143216309Y-112610000D01*
X143449698Y-112513327D01*
X143628327Y-112334699D01*
X143725000Y-112101310D01*
X143725000Y-111410750D01*
X143566250Y-111252000D01*
X142367000Y-111252000D01*
X142113000Y-111252000D01*
X140913750Y-111252000D01*
X140755000Y-111410750D01*
X114330026Y-111410750D01*
X115159991Y-110857440D01*
X118185000Y-110857440D01*
X118420317Y-110813162D01*
X118636441Y-110674090D01*
X118781431Y-110461890D01*
X118832440Y-110210000D01*
X118832440Y-108230000D01*
X118788162Y-107994683D01*
X118649090Y-107778559D01*
X118436890Y-107633569D01*
X118185000Y-107582560D01*
X114225000Y-107582560D01*
X113989683Y-107626838D01*
X113773559Y-107765910D01*
X113628569Y-107978110D01*
X113577560Y-108230000D01*
X113577560Y-109184193D01*
X111130415Y-110815623D01*
X111050869Y-110895002D01*
X110957434Y-110957434D01*
X110895655Y-111049892D01*
X110816942Y-111128441D01*
X110773829Y-111232218D01*
X110711397Y-111325654D01*
X110689703Y-111434717D01*
X110647041Y-111537408D01*
X110646924Y-111649783D01*
X110625000Y-111760000D01*
X107390000Y-111760000D01*
X107390000Y-101675000D01*
X174568421Y-101675000D01*
X172094210Y-104149210D01*
X172094210Y-104149210D01*
G37*
X172094210Y-104149210D02*
X171902367Y-104436325D01*
X171902367Y-104436326D01*
X171834999Y-104775000D01*
X171835000Y-104775005D01*
X171835000Y-112780000D01*
X171309473Y-112780000D01*
X171222811Y-112650302D01*
X170840725Y-112395000D01*
X171222811Y-112139698D01*
X171533880Y-111674151D01*
X171643113Y-111125000D01*
X171533880Y-110575849D01*
X171222811Y-110110302D01*
X170840725Y-109855000D01*
X171222811Y-109599698D01*
X171533880Y-109134151D01*
X171643113Y-108585000D01*
X171533880Y-108035849D01*
X171222811Y-107570302D01*
X170840725Y-107315000D01*
X171222811Y-107059698D01*
X171533880Y-106594151D01*
X171643113Y-106045000D01*
X171533880Y-105495849D01*
X171222811Y-105030302D01*
X170757264Y-104719233D01*
X170208113Y-104610000D01*
X170151887Y-104610000D01*
X169602736Y-104719233D01*
X169137189Y-105030302D01*
X168826120Y-105495849D01*
X168716887Y-106045000D01*
X168826120Y-106594151D01*
X169137189Y-107059698D01*
X169519275Y-107315000D01*
X169137189Y-107570302D01*
X169050527Y-107700000D01*
X143429432Y-107700000D01*
X143319147Y-107534946D01*
X142989974Y-107315000D01*
X143319147Y-107095054D01*
X143641054Y-106613285D01*
X143754093Y-106045000D01*
X143641054Y-105476715D01*
X143319147Y-104994946D01*
X142837378Y-104673039D01*
X142269093Y-104560000D01*
X142210907Y-104560000D01*
X141642622Y-104673039D01*
X141160853Y-104994946D01*
X140838946Y-105476715D01*
X140725907Y-106045000D01*
X140838946Y-106613285D01*
X141160853Y-107095054D01*
X141490026Y-107315000D01*
X141160853Y-107534946D01*
X140838946Y-108016715D01*
X140725907Y-108585000D01*
X140838946Y-109153285D01*
X141160853Y-109635054D01*
X141204777Y-109664403D01*
X141030302Y-109736673D01*
X140851673Y-109915301D01*
X140755000Y-110148690D01*
X140755000Y-110839250D01*
X140913750Y-110998000D01*
X142113000Y-110998000D01*
X142113000Y-110978000D01*
X142367000Y-110978000D01*
X142367000Y-110998000D01*
X143566250Y-110998000D01*
X143725000Y-110839250D01*
X143725000Y-110148690D01*
X143628327Y-109915301D01*
X143449698Y-109736673D01*
X143275223Y-109664403D01*
X143319147Y-109635054D01*
X143429432Y-109470000D01*
X169050527Y-109470000D01*
X169137189Y-109599698D01*
X169519275Y-109855000D01*
X169137189Y-110110302D01*
X169050527Y-110240000D01*
X154305000Y-110240000D01*
X153966325Y-110307367D01*
X153679210Y-110499210D01*
X153679208Y-110499213D01*
X153241652Y-110936769D01*
X153166054Y-110556715D01*
X152844147Y-110074946D01*
X152362378Y-109753039D01*
X151794093Y-109640000D01*
X151735907Y-109640000D01*
X151167622Y-109753039D01*
X150685853Y-110074946D01*
X150363946Y-110556715D01*
X150250907Y-111125000D01*
X150363946Y-111693285D01*
X150685853Y-112175054D01*
X151015026Y-112395000D01*
X150685853Y-112614946D01*
X150363946Y-113096715D01*
X150250907Y-113665000D01*
X150363946Y-114233285D01*
X150685853Y-114715054D01*
X150729777Y-114744403D01*
X150555302Y-114816673D01*
X150376673Y-114995301D01*
X150280000Y-115228690D01*
X150280000Y-115919250D01*
X150438750Y-116078000D01*
X151638000Y-116078000D01*
X151638000Y-116058000D01*
X151892000Y-116058000D01*
X151892000Y-116078000D01*
X153091250Y-116078000D01*
X153250000Y-115919250D01*
X153250000Y-115228690D01*
X153153327Y-114995301D01*
X152974698Y-114816673D01*
X152800223Y-114744403D01*
X152844147Y-114715054D01*
X153166054Y-114233285D01*
X153279093Y-113665000D01*
X153235539Y-113446040D01*
X154671579Y-112010000D01*
X169050527Y-112010000D01*
X169137189Y-112139698D01*
X169519275Y-112395000D01*
X169137189Y-112650302D01*
X168826120Y-113115849D01*
X168716887Y-113665000D01*
X168826120Y-114214151D01*
X169137189Y-114679698D01*
X169519275Y-114935000D01*
X169137189Y-115190302D01*
X168826120Y-115655849D01*
X168716887Y-116205000D01*
X168826120Y-116754151D01*
X169137189Y-117219698D01*
X169519275Y-117475000D01*
X169137189Y-117730302D01*
X169050527Y-117860000D01*
X161290005Y-117860000D01*
X161290000Y-117859999D01*
X161007516Y-117916190D01*
X160951325Y-117927367D01*
X160664210Y-118119210D01*
X160664208Y-118119213D01*
X157686651Y-121096769D01*
X157611054Y-120716715D01*
X157289147Y-120234946D01*
X156807378Y-119913039D01*
X156239093Y-119800000D01*
X156180907Y-119800000D01*
X155612622Y-119913039D01*
X155130853Y-120234946D01*
X154808946Y-120716715D01*
X154695907Y-121285000D01*
X154808946Y-121853285D01*
X155130853Y-122335054D01*
X155460026Y-122555000D01*
X155130853Y-122774946D01*
X154808946Y-123256715D01*
X154695907Y-123825000D01*
X154808946Y-124393285D01*
X155130853Y-124875054D01*
X155460026Y-125095000D01*
X155130853Y-125314946D01*
X154808946Y-125796715D01*
X154695907Y-126365000D01*
X154808946Y-126933285D01*
X155130853Y-127415054D01*
X155174777Y-127444403D01*
X155000302Y-127516673D01*
X154821673Y-127695301D01*
X154725000Y-127928690D01*
X154725000Y-128619250D01*
X154883750Y-128778000D01*
X156083000Y-128778000D01*
X156083000Y-128758000D01*
X156337000Y-128758000D01*
X156337000Y-128778000D01*
X157536250Y-128778000D01*
X157695000Y-128619250D01*
X157695000Y-127928690D01*
X157598327Y-127695301D01*
X157419698Y-127516673D01*
X157245223Y-127444403D01*
X157289147Y-127415054D01*
X157611054Y-126933285D01*
X157724093Y-126365000D01*
X157680539Y-126146041D01*
X160001579Y-123825000D01*
X162315907Y-123825000D01*
X162428946Y-124393285D01*
X162750853Y-124875054D01*
X163080026Y-125095000D01*
X162750853Y-125314946D01*
X162428946Y-125796715D01*
X162315907Y-126365000D01*
X162428946Y-126933285D01*
X162750853Y-127415054D01*
X162794777Y-127444403D01*
X162620302Y-127516673D01*
X162441673Y-127695301D01*
X162345000Y-127928690D01*
X162345000Y-128619250D01*
X162503750Y-128778000D01*
X163703000Y-128778000D01*
X163703000Y-128758000D01*
X163957000Y-128758000D01*
X163957000Y-128778000D01*
X165156250Y-128778000D01*
X165315000Y-128619250D01*
X165315000Y-127928690D01*
X165218327Y-127695301D01*
X165039698Y-127516673D01*
X164865223Y-127444403D01*
X164909147Y-127415054D01*
X165231054Y-126933285D01*
X165344093Y-126365000D01*
X165231054Y-125796715D01*
X164909147Y-125314946D01*
X164579974Y-125095000D01*
X164902749Y-124879329D01*
X166120000Y-126096579D01*
X166120000Y-131445000D01*
X166187367Y-131783675D01*
X166379210Y-132070790D01*
X166666325Y-132262633D01*
X167005000Y-132330000D01*
X172720000Y-132330000D01*
X173058675Y-132262633D01*
X173345790Y-132070790D01*
X173537633Y-131783675D01*
X173605000Y-131445000D01*
X173605000Y-117090000D01*
X176670527Y-117090000D01*
X176757189Y-117219698D01*
X177139275Y-117475000D01*
X176757189Y-117730302D01*
X176446120Y-118195849D01*
X176336887Y-118745000D01*
X176446120Y-119294151D01*
X176757189Y-119759698D01*
X177139275Y-120015000D01*
X176757189Y-120270302D01*
X176446120Y-120735849D01*
X176336887Y-121285000D01*
X176446120Y-121834151D01*
X176757189Y-122299698D01*
X177139275Y-122555000D01*
X176757189Y-122810302D01*
X176446120Y-123275849D01*
X176336887Y-123825000D01*
X176446120Y-124374151D01*
X176757189Y-124839698D01*
X177139275Y-125095000D01*
X176757189Y-125350302D01*
X176446120Y-125815849D01*
X176336887Y-126365000D01*
X176446120Y-126914151D01*
X176757189Y-127379698D01*
X176901465Y-127476101D01*
X176764683Y-127501838D01*
X176548559Y-127640910D01*
X176403569Y-127853110D01*
X176352560Y-128105000D01*
X176352560Y-129705000D01*
X176396838Y-129940317D01*
X176535910Y-130156441D01*
X176748110Y-130301431D01*
X177000000Y-130352440D01*
X178600000Y-130352440D01*
X178835317Y-130308162D01*
X179051441Y-130169090D01*
X179196431Y-129956890D01*
X179247440Y-129705000D01*
X179247440Y-128105000D01*
X179203162Y-127869683D01*
X179064090Y-127653559D01*
X178851890Y-127508569D01*
X178696911Y-127477185D01*
X178842811Y-127379698D01*
X178929473Y-127250000D01*
X181878420Y-127250000D01*
X182378840Y-127750420D01*
X182315319Y-127903395D01*
X182314682Y-128633403D01*
X182593455Y-129308086D01*
X183109199Y-129824730D01*
X183783395Y-130104681D01*
X184513403Y-130105318D01*
X185188086Y-129826545D01*
X185704730Y-129310801D01*
X185984681Y-128636605D01*
X185985000Y-128270000D01*
X194979050Y-128270000D01*
X195118731Y-128972224D01*
X195516509Y-129567541D01*
X196111826Y-129965319D01*
X196814050Y-130105000D01*
X196885950Y-130105000D01*
X197588174Y-129965319D01*
X198183491Y-129567541D01*
X198581269Y-128972224D01*
X198720950Y-128270000D01*
X198581269Y-127567776D01*
X198183491Y-126972459D01*
X197735000Y-126672787D01*
X197735000Y-123840468D01*
X198150551Y-123425643D01*
X198384733Y-122861670D01*
X198385265Y-122251009D01*
X198152068Y-121686629D01*
X197974908Y-121509159D01*
X198109699Y-121453327D01*
X198288327Y-121274698D01*
X198385000Y-121041309D01*
X198385000Y-120300750D01*
X198226250Y-120142000D01*
X196977000Y-120142000D01*
X196977000Y-120162000D01*
X196723000Y-120162000D01*
X196723000Y-120142000D01*
X195473750Y-120142000D01*
X195315000Y-120300750D01*
X195315000Y-121041309D01*
X195411673Y-121274698D01*
X195590301Y-121453327D01*
X195724994Y-121509119D01*
X195549449Y-121684357D01*
X195315267Y-122248330D01*
X195314735Y-122858991D01*
X195547932Y-123423371D01*
X195965000Y-123841169D01*
X195965000Y-126672787D01*
X195516509Y-126972459D01*
X195118731Y-127567776D01*
X194979050Y-128270000D01*
X185985000Y-128270000D01*
X185985318Y-127906597D01*
X185706545Y-127231914D01*
X185190801Y-126715270D01*
X184516605Y-126435319D01*
X183786597Y-126434682D01*
X183630684Y-126499104D01*
X182870790Y-125739210D01*
X182857006Y-125730000D01*
X182583675Y-125547367D01*
X182527484Y-125536190D01*
X182245000Y-125479999D01*
X182244995Y-125480000D01*
X178929473Y-125480000D01*
X178842811Y-125350302D01*
X178460725Y-125095000D01*
X178842811Y-124839698D01*
X179153880Y-124374151D01*
X179263113Y-123825000D01*
X179153880Y-123275849D01*
X178842811Y-122810302D01*
X178460725Y-122555000D01*
X178842811Y-122299698D01*
X179153880Y-121834151D01*
X179263113Y-121285000D01*
X179153880Y-120735849D01*
X178842811Y-120270302D01*
X178460725Y-120015000D01*
X178842811Y-119759698D01*
X178929473Y-119630000D01*
X182363420Y-119630000D01*
X182381858Y-119648438D01*
X182365284Y-119688352D01*
X182364716Y-120338795D01*
X182613106Y-120939943D01*
X183072637Y-121400278D01*
X183673352Y-121649716D01*
X184323795Y-121650284D01*
X184924943Y-121401894D01*
X185385278Y-120942363D01*
X185634716Y-120341648D01*
X185634718Y-120338795D01*
X188864716Y-120338795D01*
X189113106Y-120939943D01*
X189572637Y-121400278D01*
X190173352Y-121649716D01*
X190823795Y-121650284D01*
X191424943Y-121401894D01*
X191885278Y-120942363D01*
X192134716Y-120341648D01*
X192135284Y-119691205D01*
X191886894Y-119090057D01*
X191785706Y-118988691D01*
X195315000Y-118988691D01*
X195315000Y-119729250D01*
X195473750Y-119888000D01*
X196723000Y-119888000D01*
X196723000Y-118638750D01*
X196977000Y-118638750D01*
X196977000Y-119888000D01*
X198226250Y-119888000D01*
X198385000Y-119729250D01*
X198385000Y-118988691D01*
X198288327Y-118755302D01*
X198109699Y-118576673D01*
X197876310Y-118480000D01*
X197135750Y-118480000D01*
X196977000Y-118638750D01*
X196723000Y-118638750D01*
X196564250Y-118480000D01*
X195823690Y-118480000D01*
X195590301Y-118576673D01*
X195411673Y-118755302D01*
X195315000Y-118988691D01*
X191785706Y-118988691D01*
X191427363Y-118629722D01*
X190826648Y-118380284D01*
X190176205Y-118379716D01*
X189575057Y-118628106D01*
X189114722Y-119087637D01*
X188865284Y-119688352D01*
X188864716Y-120338795D01*
X185634718Y-120338795D01*
X185635284Y-119691205D01*
X185386894Y-119090057D01*
X184927363Y-118629722D01*
X184326648Y-118380284D01*
X183676205Y-118379716D01*
X183633812Y-118397232D01*
X183355790Y-118119210D01*
X183283565Y-118070951D01*
X183068675Y-117927367D01*
X183012484Y-117916190D01*
X182730000Y-117859999D01*
X182729995Y-117860000D01*
X178929473Y-117860000D01*
X178842811Y-117730302D01*
X178460725Y-117475000D01*
X178842811Y-117219698D01*
X179153880Y-116754151D01*
X179171109Y-116667532D01*
X183027073Y-116667532D01*
X183125736Y-116934387D01*
X183735461Y-117160908D01*
X184385460Y-117136856D01*
X184874264Y-116934387D01*
X184972927Y-116667532D01*
X189527073Y-116667532D01*
X189625736Y-116934387D01*
X190235461Y-117160908D01*
X190885460Y-117136856D01*
X191374264Y-116934387D01*
X191472927Y-116667532D01*
X190500000Y-115694605D01*
X189527073Y-116667532D01*
X184972927Y-116667532D01*
X184000000Y-115694605D01*
X183027073Y-116667532D01*
X179171109Y-116667532D01*
X179263113Y-116205000D01*
X179153880Y-115655849D01*
X178883009Y-115250461D01*
X182354092Y-115250461D01*
X182378144Y-115900460D01*
X182580613Y-116389264D01*
X182847468Y-116487927D01*
X183820395Y-115515000D01*
X184179605Y-115515000D01*
X185152532Y-116487927D01*
X185419387Y-116389264D01*
X185645908Y-115779539D01*
X185626331Y-115250461D01*
X188854092Y-115250461D01*
X188878144Y-115900460D01*
X189080613Y-116389264D01*
X189347468Y-116487927D01*
X190320395Y-115515000D01*
X190679605Y-115515000D01*
X191652532Y-116487927D01*
X191919387Y-116389264D01*
X192145908Y-115779539D01*
X192125232Y-115220750D01*
X195315000Y-115220750D01*
X195315000Y-115961309D01*
X195411673Y-116194698D01*
X195590301Y-116373327D01*
X195823690Y-116470000D01*
X196564250Y-116470000D01*
X196723000Y-116311250D01*
X196723000Y-115062000D01*
X196977000Y-115062000D01*
X196977000Y-116311250D01*
X197135750Y-116470000D01*
X197876310Y-116470000D01*
X198109699Y-116373327D01*
X198288327Y-116194698D01*
X198385000Y-115961309D01*
X198385000Y-115220750D01*
X198226250Y-115062000D01*
X196977000Y-115062000D01*
X196723000Y-115062000D01*
X195473750Y-115062000D01*
X195315000Y-115220750D01*
X192125232Y-115220750D01*
X192121856Y-115129540D01*
X191919387Y-114640736D01*
X191652532Y-114542073D01*
X190679605Y-115515000D01*
X190320395Y-115515000D01*
X189347468Y-114542073D01*
X189080613Y-114640736D01*
X188854092Y-115250461D01*
X185626331Y-115250461D01*
X185621856Y-115129540D01*
X185419387Y-114640736D01*
X185152532Y-114542073D01*
X184179605Y-115515000D01*
X183820395Y-115515000D01*
X182847468Y-114542073D01*
X182580613Y-114640736D01*
X182354092Y-115250461D01*
X178883009Y-115250461D01*
X178842811Y-115190302D01*
X178460725Y-114935000D01*
X178842811Y-114679698D01*
X179054777Y-114362468D01*
X183027073Y-114362468D01*
X184000000Y-115335395D01*
X184972927Y-114362468D01*
X189527073Y-114362468D01*
X190500000Y-115335395D01*
X191472927Y-114362468D01*
X191374264Y-114095613D01*
X190764539Y-113869092D01*
X190114540Y-113893144D01*
X189625736Y-114095613D01*
X189527073Y-114362468D01*
X184972927Y-114362468D01*
X184874264Y-114095613D01*
X184264539Y-113869092D01*
X183614540Y-113893144D01*
X183125736Y-114095613D01*
X183027073Y-114362468D01*
X179054777Y-114362468D01*
X179153880Y-114214151D01*
X179263113Y-113665000D01*
X179153880Y-113115849D01*
X178842811Y-112650302D01*
X178460725Y-112395000D01*
X178842811Y-112139698D01*
X179153880Y-111674151D01*
X179263113Y-111125000D01*
X179153880Y-110575849D01*
X178842811Y-110110302D01*
X178460725Y-109855000D01*
X178842811Y-109599698D01*
X179153880Y-109134151D01*
X179263113Y-108585000D01*
X179153880Y-108035849D01*
X178842811Y-107570302D01*
X178460725Y-107315000D01*
X178842811Y-107059698D01*
X179153880Y-106594151D01*
X179263113Y-106045000D01*
X179153880Y-105495849D01*
X178842811Y-105030302D01*
X178377264Y-104719233D01*
X177828113Y-104610000D01*
X177771887Y-104610000D01*
X177222736Y-104719233D01*
X176757189Y-105030302D01*
X176446120Y-105495849D01*
X176336887Y-106045000D01*
X176446120Y-106594151D01*
X176757189Y-107059698D01*
X177139275Y-107315000D01*
X176757189Y-107570302D01*
X176446120Y-108035849D01*
X176336887Y-108585000D01*
X176446120Y-109134151D01*
X176757189Y-109599698D01*
X177139275Y-109855000D01*
X176757189Y-110110302D01*
X176446120Y-110575849D01*
X176336887Y-111125000D01*
X176446120Y-111674151D01*
X176757189Y-112139698D01*
X177139275Y-112395000D01*
X176757189Y-112650302D01*
X176446120Y-113115849D01*
X176336887Y-113665000D01*
X176446120Y-114214151D01*
X176757189Y-114679698D01*
X177139275Y-114935000D01*
X176757189Y-115190302D01*
X176670527Y-115320000D01*
X172720000Y-115320000D01*
X172381325Y-115387367D01*
X172094210Y-115579210D01*
X171902367Y-115866325D01*
X171835000Y-116205000D01*
X171835000Y-130560000D01*
X167890000Y-130560000D01*
X167890000Y-129254039D01*
X168788096Y-129254039D01*
X168948959Y-129642423D01*
X169324866Y-130057389D01*
X169830959Y-130296914D01*
X170053000Y-130175629D01*
X170053000Y-129032000D01*
X170307000Y-129032000D01*
X170307000Y-130175629D01*
X170529041Y-130296914D01*
X171035134Y-130057389D01*
X171411041Y-129642423D01*
X171571904Y-129254039D01*
X171449915Y-129032000D01*
X170307000Y-129032000D01*
X170053000Y-129032000D01*
X168910085Y-129032000D01*
X168788096Y-129254039D01*
X167890000Y-129254039D01*
X167890000Y-125730005D01*
X167890001Y-125730000D01*
X167822633Y-125391326D01*
X167822633Y-125391325D01*
X167630790Y-125104210D01*
X167630787Y-125104208D01*
X165725790Y-123199210D01*
X165668236Y-123160754D01*
X165438675Y-123007367D01*
X165382484Y-122996190D01*
X165100000Y-122939999D01*
X165099995Y-122940000D01*
X165019432Y-122940000D01*
X164909147Y-122774946D01*
X164427378Y-122453039D01*
X163859093Y-122340000D01*
X163800907Y-122340000D01*
X163232622Y-122453039D01*
X162750853Y-122774946D01*
X162428946Y-123256715D01*
X162315907Y-123825000D01*
X160001579Y-123825000D01*
X161656579Y-122170000D01*
X169050527Y-122170000D01*
X169137189Y-122299698D01*
X169519275Y-122555000D01*
X169137189Y-122810302D01*
X168826120Y-123275849D01*
X168716887Y-123825000D01*
X168826120Y-124374151D01*
X169137189Y-124839698D01*
X169519275Y-125095000D01*
X169137189Y-125350302D01*
X168826120Y-125815849D01*
X168716887Y-126365000D01*
X168826120Y-126914151D01*
X169137189Y-127379698D01*
X169541703Y-127649986D01*
X169324866Y-127752611D01*
X168948959Y-128167577D01*
X168788096Y-128555961D01*
X168910085Y-128778000D01*
X170053000Y-128778000D01*
X170053000Y-128758000D01*
X170307000Y-128758000D01*
X170307000Y-128778000D01*
X171449915Y-128778000D01*
X171571904Y-128555961D01*
X171411041Y-128167577D01*
X171035134Y-127752611D01*
X170818297Y-127649986D01*
X171222811Y-127379698D01*
X171533880Y-126914151D01*
X171643113Y-126365000D01*
X171533880Y-125815849D01*
X171222811Y-125350302D01*
X170840725Y-125095000D01*
X171222811Y-124839698D01*
X171533880Y-124374151D01*
X171643113Y-123825000D01*
X171533880Y-123275849D01*
X171222811Y-122810302D01*
X170840725Y-122555000D01*
X171222811Y-122299698D01*
X171533880Y-121834151D01*
X171643113Y-121285000D01*
X171533880Y-120735849D01*
X171222811Y-120270302D01*
X170840725Y-120015000D01*
X171222811Y-119759698D01*
X171533880Y-119294151D01*
X171643113Y-118745000D01*
X171533880Y-118195849D01*
X171222811Y-117730302D01*
X170840725Y-117475000D01*
X171222811Y-117219698D01*
X171533880Y-116754151D01*
X171643113Y-116205000D01*
X171533880Y-115655849D01*
X171222811Y-115190302D01*
X170840725Y-114935000D01*
X171222811Y-114679698D01*
X171309473Y-114550000D01*
X172720000Y-114550000D01*
X173058675Y-114482633D01*
X173345790Y-114290790D01*
X173537633Y-114003675D01*
X173605000Y-113665000D01*
X173605000Y-105141580D01*
X175626579Y-103120000D01*
X180608420Y-103120000D01*
X182861677Y-105373256D01*
X182595270Y-105639199D01*
X182315319Y-106313395D01*
X182314682Y-107043403D01*
X182593455Y-107718086D01*
X183109199Y-108234730D01*
X183783395Y-108514681D01*
X184513403Y-108515318D01*
X185188086Y-108236545D01*
X185704730Y-107720801D01*
X185984681Y-107046605D01*
X185985000Y-106680000D01*
X194979050Y-106680000D01*
X195118731Y-107382224D01*
X195516509Y-107977541D01*
X195965000Y-108277213D01*
X195965000Y-111109532D01*
X195549449Y-111524357D01*
X195315267Y-112088330D01*
X195314735Y-112698991D01*
X195547932Y-113263371D01*
X195725092Y-113440841D01*
X195590301Y-113496673D01*
X195411673Y-113675302D01*
X195315000Y-113908691D01*
X195315000Y-114649250D01*
X195473750Y-114808000D01*
X196723000Y-114808000D01*
X196723000Y-114788000D01*
X196977000Y-114788000D01*
X196977000Y-114808000D01*
X198226250Y-114808000D01*
X198385000Y-114649250D01*
X198385000Y-113908691D01*
X198288327Y-113675302D01*
X198109699Y-113496673D01*
X197975006Y-113440881D01*
X198150551Y-113265643D01*
X198384733Y-112701670D01*
X198385265Y-112091009D01*
X198152068Y-111526629D01*
X197735000Y-111108831D01*
X197735000Y-108277213D01*
X198183491Y-107977541D01*
X198581269Y-107382224D01*
X198720950Y-106680000D01*
X198581269Y-105977776D01*
X198183491Y-105382459D01*
X197588174Y-104984681D01*
X196885950Y-104845000D01*
X196814050Y-104845000D01*
X196111826Y-104984681D01*
X195516509Y-105382459D01*
X195118731Y-105977776D01*
X194979050Y-106680000D01*
X185985000Y-106680000D01*
X185985318Y-106316597D01*
X185706545Y-105641914D01*
X185190801Y-105125270D01*
X184931824Y-105017733D01*
X184775790Y-104784210D01*
X184775787Y-104784208D01*
X181666580Y-101675000D01*
X201220000Y-101675000D01*
X201220000Y-133275000D01*
X107390000Y-133275000D01*
X107390000Y-129872745D01*
X141411861Y-129872745D01*
X141485995Y-130118864D01*
X142023223Y-130311965D01*
X142593454Y-130284778D01*
X142994005Y-130118864D01*
X143068139Y-129872745D01*
X142240000Y-129044605D01*
X141411861Y-129872745D01*
X107390000Y-129872745D01*
X107390000Y-128648223D01*
X140793035Y-128648223D01*
X140820222Y-129218454D01*
X140986136Y-129619005D01*
X141232255Y-129693139D01*
X142060395Y-128865000D01*
X142419605Y-128865000D01*
X143247745Y-129693139D01*
X143493864Y-129619005D01*
X143647795Y-129190750D01*
X154725000Y-129190750D01*
X154725000Y-129881310D01*
X154821673Y-130114699D01*
X155000302Y-130293327D01*
X155233691Y-130390000D01*
X155924250Y-130390000D01*
X156083000Y-130231250D01*
X156083000Y-129032000D01*
X156337000Y-129032000D01*
X156337000Y-130231250D01*
X156495750Y-130390000D01*
X157186309Y-130390000D01*
X157419698Y-130293327D01*
X157598327Y-130114699D01*
X157695000Y-129881310D01*
X157695000Y-129190750D01*
X162345000Y-129190750D01*
X162345000Y-129881310D01*
X162441673Y-130114699D01*
X162620302Y-130293327D01*
X162853691Y-130390000D01*
X163544250Y-130390000D01*
X163703000Y-130231250D01*
X163703000Y-129032000D01*
X163957000Y-129032000D01*
X163957000Y-130231250D01*
X164115750Y-130390000D01*
X164806309Y-130390000D01*
X165039698Y-130293327D01*
X165218327Y-130114699D01*
X165315000Y-129881310D01*
X165315000Y-129190750D01*
X165156250Y-129032000D01*
X163957000Y-129032000D01*
X163703000Y-129032000D01*
X162503750Y-129032000D01*
X162345000Y-129190750D01*
X157695000Y-129190750D01*
X157536250Y-129032000D01*
X156337000Y-129032000D01*
X156083000Y-129032000D01*
X154883750Y-129032000D01*
X154725000Y-129190750D01*
X143647795Y-129190750D01*
X143686965Y-129081777D01*
X143659778Y-128511546D01*
X143493864Y-128110995D01*
X143247745Y-128036861D01*
X142419605Y-128865000D01*
X142060395Y-128865000D01*
X141232255Y-128036861D01*
X140986136Y-128110995D01*
X140793035Y-128648223D01*
X107390000Y-128648223D01*
X107390000Y-124598865D01*
X113634782Y-124598865D01*
X113665095Y-124724528D01*
X113976149Y-125279246D01*
X114475807Y-125672703D01*
X115088000Y-125845000D01*
X116078000Y-125845000D01*
X116078000Y-124347000D01*
X116332000Y-124347000D01*
X116332000Y-125845000D01*
X117322000Y-125845000D01*
X117934193Y-125672703D01*
X118070966Y-125565000D01*
X140792560Y-125565000D01*
X140792560Y-127165000D01*
X140836838Y-127400317D01*
X140975910Y-127616441D01*
X141188110Y-127761431D01*
X141426201Y-127809646D01*
X141411861Y-127857255D01*
X142240000Y-128685395D01*
X143068139Y-127857255D01*
X143053855Y-127809833D01*
X143275317Y-127768162D01*
X143491441Y-127629090D01*
X143636431Y-127416890D01*
X143687440Y-127165000D01*
X143687440Y-125565000D01*
X143643162Y-125329683D01*
X143504090Y-125113559D01*
X143291890Y-124968569D01*
X143040000Y-124917560D01*
X141440000Y-124917560D01*
X141204683Y-124961838D01*
X140988559Y-125100910D01*
X140843569Y-125313110D01*
X140792560Y-125565000D01*
X118070966Y-125565000D01*
X118433851Y-125279246D01*
X118744905Y-124724528D01*
X118775218Y-124598865D01*
X118655740Y-124347000D01*
X116332000Y-124347000D01*
X116078000Y-124347000D01*
X113754260Y-124347000D01*
X113634782Y-124598865D01*
X107390000Y-124598865D01*
X107390000Y-123841135D01*
X113634782Y-123841135D01*
X113754260Y-124093000D01*
X116078000Y-124093000D01*
X116078000Y-122595000D01*
X116332000Y-122595000D01*
X116332000Y-124093000D01*
X118655740Y-124093000D01*
X118775218Y-123841135D01*
X118744905Y-123715472D01*
X118433851Y-123160754D01*
X117934193Y-122767297D01*
X117322000Y-122595000D01*
X116332000Y-122595000D01*
X116078000Y-122595000D01*
X115088000Y-122595000D01*
X114475807Y-122767297D01*
X113976149Y-123160754D01*
X113665095Y-123715472D01*
X113634782Y-123841135D01*
X107390000Y-123841135D01*
X107390000Y-111760000D01*
X110625000Y-111760000D01*
X110625000Y-116840000D01*
X110657451Y-117003143D01*
X110673637Y-117168694D01*
X110700333Y-117218726D01*
X110711397Y-117274346D01*
X110803810Y-117412652D01*
X110882117Y-117559407D01*
X110925929Y-117595415D01*
X110957434Y-117642566D01*
X111095738Y-117734978D01*
X111224247Y-117840597D01*
X113563960Y-119093356D01*
X113538769Y-119220000D01*
X113662465Y-119841861D01*
X114014720Y-120369049D01*
X114541908Y-120721304D01*
X115163769Y-120845000D01*
X117246231Y-120845000D01*
X117868092Y-120721304D01*
X118395280Y-120369049D01*
X118747535Y-119841861D01*
X118782876Y-119664187D01*
X128104752Y-119664187D01*
X128322757Y-120191800D01*
X128726077Y-120595824D01*
X129253309Y-120814750D01*
X129824187Y-120815248D01*
X130351800Y-120597243D01*
X130561663Y-120387745D01*
X133711861Y-120387745D01*
X133785995Y-120633864D01*
X134323223Y-120826965D01*
X134893454Y-120799778D01*
X135294005Y-120633864D01*
X135368139Y-120387745D01*
X134540000Y-119559605D01*
X133711861Y-120387745D01*
X130561663Y-120387745D01*
X130755824Y-120193923D01*
X130974750Y-119666691D01*
X130975189Y-119163223D01*
X133093035Y-119163223D01*
X133120222Y-119733454D01*
X133286136Y-120134005D01*
X133532255Y-120208139D01*
X134360395Y-119380000D01*
X134719605Y-119380000D01*
X135547745Y-120208139D01*
X135793864Y-120134005D01*
X135986965Y-119596777D01*
X135959778Y-119026546D01*
X135793864Y-118625995D01*
X135547745Y-118551861D01*
X134719605Y-119380000D01*
X134360395Y-119380000D01*
X133532255Y-118551861D01*
X133286136Y-118625995D01*
X133093035Y-119163223D01*
X130975189Y-119163223D01*
X130975248Y-119095813D01*
X130757243Y-118568200D01*
X130561640Y-118372255D01*
X133711861Y-118372255D01*
X134540000Y-119200395D01*
X135368139Y-118372255D01*
X135294005Y-118126136D01*
X134756777Y-117933035D01*
X134186546Y-117960222D01*
X133785995Y-118126136D01*
X133711861Y-118372255D01*
X130561640Y-118372255D01*
X130353923Y-118164176D01*
X129826691Y-117945250D01*
X129255813Y-117944752D01*
X128728200Y-118162757D01*
X128324176Y-118566077D01*
X128105250Y-119093309D01*
X128104752Y-119664187D01*
X118782876Y-119664187D01*
X118871231Y-119220000D01*
X118747535Y-118598139D01*
X118395280Y-118070951D01*
X117868092Y-117718696D01*
X117246231Y-117595000D01*
X115574589Y-117595000D01*
X113512239Y-116490750D01*
X150280000Y-116490750D01*
X150280000Y-117181310D01*
X150376673Y-117414699D01*
X150555302Y-117593327D01*
X150788691Y-117690000D01*
X151479250Y-117690000D01*
X151638000Y-117531250D01*
X151638000Y-116332000D01*
X151892000Y-116332000D01*
X151892000Y-117531250D01*
X152050750Y-117690000D01*
X152741309Y-117690000D01*
X152974698Y-117593327D01*
X153153327Y-117414699D01*
X153250000Y-117181310D01*
X153250000Y-116490750D01*
X153091250Y-116332000D01*
X151892000Y-116332000D01*
X151638000Y-116332000D01*
X150438750Y-116332000D01*
X150280000Y-116490750D01*
X113512239Y-116490750D01*
X112895000Y-116160260D01*
X112895000Y-114220000D01*
X113538769Y-114220000D01*
X113662465Y-114841861D01*
X114014720Y-115369049D01*
X114541908Y-115721304D01*
X115163769Y-115845000D01*
X117246231Y-115845000D01*
X117868092Y-115721304D01*
X118395280Y-115369049D01*
X118747535Y-114841861D01*
X118871231Y-114220000D01*
X118747535Y-113598139D01*
X118395280Y-113070951D01*
X117868092Y-112718696D01*
X117246231Y-112595000D01*
X115163769Y-112595000D01*
X114541908Y-112718696D01*
X114014720Y-113070951D01*
X113662465Y-113598139D01*
X113538769Y-114220000D01*
X112895000Y-114220000D01*
X112895000Y-112367434D01*
X114330026Y-111410750D01*
X140755000Y-111410750D01*
X140755000Y-112101310D01*
X140851673Y-112334699D01*
X141030302Y-112513327D01*
X141263691Y-112610000D01*
X141954250Y-112610000D01*
X142113000Y-112451250D01*
X142113000Y-111252000D01*
X142367000Y-111252000D01*
X142367000Y-112451250D01*
X142525750Y-112610000D01*
X143216309Y-112610000D01*
X143449698Y-112513327D01*
X143628327Y-112334699D01*
X143725000Y-112101310D01*
X143725000Y-111410750D01*
X143566250Y-111252000D01*
X142367000Y-111252000D01*
X142113000Y-111252000D01*
X140913750Y-111252000D01*
X140755000Y-111410750D01*
X114330026Y-111410750D01*
X115159991Y-110857440D01*
X118185000Y-110857440D01*
X118420317Y-110813162D01*
X118636441Y-110674090D01*
X118781431Y-110461890D01*
X118832440Y-110210000D01*
X118832440Y-108230000D01*
X118788162Y-107994683D01*
X118649090Y-107778559D01*
X118436890Y-107633569D01*
X118185000Y-107582560D01*
X114225000Y-107582560D01*
X113989683Y-107626838D01*
X113773559Y-107765910D01*
X113628569Y-107978110D01*
X113577560Y-108230000D01*
X113577560Y-109184193D01*
X111130415Y-110815623D01*
X111050869Y-110895002D01*
X110957434Y-110957434D01*
X110895655Y-111049892D01*
X110816942Y-111128441D01*
X110773829Y-111232218D01*
X110711397Y-111325654D01*
X110689703Y-111434717D01*
X110647041Y-111537408D01*
X110646924Y-111649783D01*
X110625000Y-111760000D01*
X107390000Y-111760000D01*
X107390000Y-101675000D01*
X174568421Y-101675000D01*
X172094210Y-104149210D01*
M02*
