M48
;DRILL file {KiCad 4.0.2+dfsg1-stable} date Wed 21 Feb 2018 02:58:03 PM CET
;FORMAT={-:-/ absolute / inch / decimal}
FMAT,2
INCH,TZ
T1C0.031
T2C0.035
T3C0.039
T4C0.043
T5C0.047
T6C0.052
%
G90
G05
M72
T1
X5.1Y-4.7
X5.2969Y-4.7
X5.6Y-4.975
X5.6Y-5.0734
X6.7Y-4.175
X6.7Y-4.275
X6.7Y-4.375
X6.7Y-4.475
X6.7Y-4.575
X6.7Y-4.675
X6.7Y-4.775
X6.7Y-4.875
X6.7Y-4.975
X6.7Y-5.075
X7.Y-4.175
X7.Y-4.275
X7.Y-4.375
X7.Y-4.475
X7.Y-4.575
X7.Y-4.675
X7.Y-4.775
X7.Y-4.875
X7.Y-4.975
X7.Y-5.075
T2
X7.75Y-4.425
X7.75Y-4.525
X7.75Y-4.725
X7.75Y-4.825
T3
X5.6Y-4.175
X5.6Y-4.275
X5.6Y-4.375
X5.975Y-4.375
X5.975Y-4.475
X5.975Y-4.575
X6.15Y-4.775
X6.15Y-4.875
X6.15Y-4.975
X6.15Y-5.075
X6.45Y-4.875
X6.45Y-4.975
X6.45Y-5.075
T4
X7.2441Y-4.5478
X7.2441Y-4.725
X7.5Y-4.5478
X7.5Y-4.725
T5
X7.25Y-4.2
X7.25Y-5.05
X7.75Y-4.2
X7.75Y-5.05
T6
X4.575Y-4.3
X4.575Y-4.4969
X4.575Y-4.6937
X4.575Y-4.8906
T0
M30
