G04 #@! TF.FileFunction,Legend,Top*
%FSLAX46Y46*%
G04 Gerber Fmt 4.6, Leading zero omitted, Abs format (unit mm)*
G04 Created by KiCad (PCBNEW 4.0.2+dfsg1-stable) date Mon 26 Feb 2018 05:52:28 PM CET*
%MOMM*%
G01*
G04 APERTURE LIST*
%ADD10C,0.100000*%
%ADD11C,0.120000*%
%ADD12C,0.150000*%
G04 APERTURE END LIST*
D10*
D11*
X130170000Y-122955000D02*
X130170000Y-124215000D01*
X130170000Y-129775000D02*
X130170000Y-128515000D01*
X133930000Y-122955000D02*
X130170000Y-122955000D01*
X136180000Y-129775000D02*
X130170000Y-129775000D01*
X143221400Y-130011863D02*
G75*
G03X143220000Y-125217564I-981400J2396863D01*
G01*
X141258600Y-130011863D02*
G75*
G02X141260000Y-125217564I981400J2396863D01*
G01*
X141258600Y-130011863D02*
G75*
G03X143220000Y-130012436I981400J2396863D01*
G01*
X144790000Y-127615000D02*
X139690000Y-127615000D01*
X144790000Y-127655000D02*
X139690000Y-127655000D01*
X144789000Y-127695000D02*
X139691000Y-127695000D01*
X144788000Y-127735000D02*
X139692000Y-127735000D01*
X144786000Y-127775000D02*
X139694000Y-127775000D01*
X144783000Y-127815000D02*
X139697000Y-127815000D01*
X144779000Y-127855000D02*
X139701000Y-127855000D01*
X144775000Y-127895000D02*
X143220000Y-127895000D01*
X141260000Y-127895000D02*
X139705000Y-127895000D01*
X144771000Y-127935000D02*
X143220000Y-127935000D01*
X141260000Y-127935000D02*
X139709000Y-127935000D01*
X144765000Y-127975000D02*
X143220000Y-127975000D01*
X141260000Y-127975000D02*
X139715000Y-127975000D01*
X144759000Y-128015000D02*
X143220000Y-128015000D01*
X141260000Y-128015000D02*
X139721000Y-128015000D01*
X144753000Y-128055000D02*
X143220000Y-128055000D01*
X141260000Y-128055000D02*
X139727000Y-128055000D01*
X144746000Y-128095000D02*
X143220000Y-128095000D01*
X141260000Y-128095000D02*
X139734000Y-128095000D01*
X144738000Y-128135000D02*
X143220000Y-128135000D01*
X141260000Y-128135000D02*
X139742000Y-128135000D01*
X144729000Y-128175000D02*
X143220000Y-128175000D01*
X141260000Y-128175000D02*
X139751000Y-128175000D01*
X144720000Y-128215000D02*
X143220000Y-128215000D01*
X141260000Y-128215000D02*
X139760000Y-128215000D01*
X144710000Y-128255000D02*
X143220000Y-128255000D01*
X141260000Y-128255000D02*
X139770000Y-128255000D01*
X144700000Y-128295000D02*
X143220000Y-128295000D01*
X141260000Y-128295000D02*
X139780000Y-128295000D01*
X144688000Y-128336000D02*
X143220000Y-128336000D01*
X141260000Y-128336000D02*
X139792000Y-128336000D01*
X144676000Y-128376000D02*
X143220000Y-128376000D01*
X141260000Y-128376000D02*
X139804000Y-128376000D01*
X144664000Y-128416000D02*
X143220000Y-128416000D01*
X141260000Y-128416000D02*
X139816000Y-128416000D01*
X144650000Y-128456000D02*
X143220000Y-128456000D01*
X141260000Y-128456000D02*
X139830000Y-128456000D01*
X144636000Y-128496000D02*
X143220000Y-128496000D01*
X141260000Y-128496000D02*
X139844000Y-128496000D01*
X144622000Y-128536000D02*
X143220000Y-128536000D01*
X141260000Y-128536000D02*
X139858000Y-128536000D01*
X144606000Y-128576000D02*
X143220000Y-128576000D01*
X141260000Y-128576000D02*
X139874000Y-128576000D01*
X144590000Y-128616000D02*
X143220000Y-128616000D01*
X141260000Y-128616000D02*
X139890000Y-128616000D01*
X144573000Y-128656000D02*
X143220000Y-128656000D01*
X141260000Y-128656000D02*
X139907000Y-128656000D01*
X144555000Y-128696000D02*
X143220000Y-128696000D01*
X141260000Y-128696000D02*
X139925000Y-128696000D01*
X144536000Y-128736000D02*
X143220000Y-128736000D01*
X141260000Y-128736000D02*
X139944000Y-128736000D01*
X144516000Y-128776000D02*
X143220000Y-128776000D01*
X141260000Y-128776000D02*
X139964000Y-128776000D01*
X144496000Y-128816000D02*
X143220000Y-128816000D01*
X141260000Y-128816000D02*
X139984000Y-128816000D01*
X144474000Y-128856000D02*
X143220000Y-128856000D01*
X141260000Y-128856000D02*
X140006000Y-128856000D01*
X144452000Y-128896000D02*
X143220000Y-128896000D01*
X141260000Y-128896000D02*
X140028000Y-128896000D01*
X144429000Y-128936000D02*
X143220000Y-128936000D01*
X141260000Y-128936000D02*
X140051000Y-128936000D01*
X144405000Y-128976000D02*
X143220000Y-128976000D01*
X141260000Y-128976000D02*
X140075000Y-128976000D01*
X144380000Y-129016000D02*
X143220000Y-129016000D01*
X141260000Y-129016000D02*
X140100000Y-129016000D01*
X144353000Y-129056000D02*
X143220000Y-129056000D01*
X141260000Y-129056000D02*
X140127000Y-129056000D01*
X144326000Y-129096000D02*
X143220000Y-129096000D01*
X141260000Y-129096000D02*
X140154000Y-129096000D01*
X144298000Y-129136000D02*
X143220000Y-129136000D01*
X141260000Y-129136000D02*
X140182000Y-129136000D01*
X144268000Y-129176000D02*
X143220000Y-129176000D01*
X141260000Y-129176000D02*
X140212000Y-129176000D01*
X144237000Y-129216000D02*
X143220000Y-129216000D01*
X141260000Y-129216000D02*
X140243000Y-129216000D01*
X144205000Y-129256000D02*
X143220000Y-129256000D01*
X141260000Y-129256000D02*
X140275000Y-129256000D01*
X144172000Y-129296000D02*
X143220000Y-129296000D01*
X141260000Y-129296000D02*
X140308000Y-129296000D01*
X144137000Y-129336000D02*
X143220000Y-129336000D01*
X141260000Y-129336000D02*
X140343000Y-129336000D01*
X144101000Y-129376000D02*
X143220000Y-129376000D01*
X141260000Y-129376000D02*
X140379000Y-129376000D01*
X144063000Y-129416000D02*
X143220000Y-129416000D01*
X141260000Y-129416000D02*
X140417000Y-129416000D01*
X144023000Y-129456000D02*
X143220000Y-129456000D01*
X141260000Y-129456000D02*
X140457000Y-129456000D01*
X143982000Y-129496000D02*
X143220000Y-129496000D01*
X141260000Y-129496000D02*
X140498000Y-129496000D01*
X143939000Y-129536000D02*
X143220000Y-129536000D01*
X141260000Y-129536000D02*
X140541000Y-129536000D01*
X143894000Y-129576000D02*
X143220000Y-129576000D01*
X141260000Y-129576000D02*
X140586000Y-129576000D01*
X143846000Y-129616000D02*
X143220000Y-129616000D01*
X141260000Y-129616000D02*
X140634000Y-129616000D01*
X143796000Y-129656000D02*
X143220000Y-129656000D01*
X141260000Y-129656000D02*
X140684000Y-129656000D01*
X143744000Y-129696000D02*
X143220000Y-129696000D01*
X141260000Y-129696000D02*
X140736000Y-129696000D01*
X143688000Y-129736000D02*
X143220000Y-129736000D01*
X141260000Y-129736000D02*
X140792000Y-129736000D01*
X143630000Y-129776000D02*
X143220000Y-129776000D01*
X141260000Y-129776000D02*
X140850000Y-129776000D01*
X143567000Y-129816000D02*
X143220000Y-129816000D01*
X141260000Y-129816000D02*
X140913000Y-129816000D01*
X143501000Y-129856000D02*
X140979000Y-129856000D01*
X143429000Y-129896000D02*
X141051000Y-129896000D01*
X143352000Y-129936000D02*
X141128000Y-129936000D01*
X143268000Y-129976000D02*
X141212000Y-129976000D01*
X143174000Y-130016000D02*
X141306000Y-130016000D01*
X143069000Y-130056000D02*
X141411000Y-130056000D01*
X142947000Y-130096000D02*
X141533000Y-130096000D01*
X142799000Y-130136000D02*
X141681000Y-130136000D01*
X142594000Y-130176000D02*
X141886000Y-130176000D01*
X142240000Y-124165000D02*
X142240000Y-125365000D01*
X142890000Y-124765000D02*
X141590000Y-124765000D01*
X195771392Y-111992665D02*
G75*
G03X195614484Y-115225000I1078608J-1672335D01*
G01*
X197928608Y-111992665D02*
G75*
G02X198085516Y-115225000I-1078608J-1672335D01*
G01*
X195770163Y-112623870D02*
G75*
G03X195770000Y-114705961I1079837J-1041130D01*
G01*
X197929837Y-112623870D02*
G75*
G02X197930000Y-114705961I-1079837J-1041130D01*
G01*
X195614000Y-115225000D02*
X195770000Y-115225000D01*
X197930000Y-115225000D02*
X198086000Y-115225000D01*
X197928608Y-122957335D02*
G75*
G03X198085516Y-119725000I-1078608J1672335D01*
G01*
X195771392Y-122957335D02*
G75*
G02X195614484Y-119725000I1078608J1672335D01*
G01*
X197929837Y-122326130D02*
G75*
G03X197930000Y-120244039I-1079837J1041130D01*
G01*
X195770163Y-122326130D02*
G75*
G02X195770000Y-120244039I1079837J1041130D01*
G01*
X198086000Y-119725000D02*
X197930000Y-119725000D01*
X195770000Y-119725000D02*
X195614000Y-119725000D01*
X153095000Y-114935000D02*
X153095000Y-109795000D01*
X153095000Y-109795000D02*
X150435000Y-109795000D01*
X150435000Y-109795000D02*
X150435000Y-114935000D01*
X150435000Y-114935000D02*
X153095000Y-114935000D01*
X153095000Y-116205000D02*
X153095000Y-117535000D01*
X153095000Y-117535000D02*
X151765000Y-117535000D01*
X143570000Y-109855000D02*
X143570000Y-104715000D01*
X143570000Y-104715000D02*
X140910000Y-104715000D01*
X140910000Y-104715000D02*
X140910000Y-109855000D01*
X140910000Y-109855000D02*
X143570000Y-109855000D01*
X143570000Y-111125000D02*
X143570000Y-112455000D01*
X143570000Y-112455000D02*
X142240000Y-112455000D01*
X157540000Y-127635000D02*
X157540000Y-119955000D01*
X157540000Y-119955000D02*
X154880000Y-119955000D01*
X154880000Y-119955000D02*
X154880000Y-127635000D01*
X154880000Y-127635000D02*
X157540000Y-127635000D01*
X157540000Y-128905000D02*
X157540000Y-130235000D01*
X157540000Y-130235000D02*
X156210000Y-130235000D01*
X165160000Y-127635000D02*
X165160000Y-122495000D01*
X165160000Y-122495000D02*
X162500000Y-122495000D01*
X162500000Y-122495000D02*
X162500000Y-127635000D01*
X162500000Y-127635000D02*
X165160000Y-127635000D01*
X165160000Y-128905000D02*
X165160000Y-130235000D01*
X165160000Y-130235000D02*
X163830000Y-130235000D01*
X127960000Y-108710000D02*
X128890000Y-108710000D01*
X131120000Y-108710000D02*
X130190000Y-108710000D01*
X131120000Y-108710000D02*
X131120000Y-105550000D01*
X127960000Y-108710000D02*
X127960000Y-107250000D01*
X185490000Y-105300000D02*
X185490000Y-104820000D01*
X185490000Y-104820000D02*
X195510000Y-104820000D01*
X195510000Y-104820000D02*
X195510000Y-105300000D01*
X185490000Y-108060000D02*
X185490000Y-108540000D01*
X185490000Y-108540000D02*
X195510000Y-108540000D01*
X195510000Y-108540000D02*
X195510000Y-108060000D01*
X185490000Y-126890000D02*
X185490000Y-126410000D01*
X185490000Y-126410000D02*
X195510000Y-126410000D01*
X195510000Y-126410000D02*
X195510000Y-126890000D01*
X185490000Y-129650000D02*
X185490000Y-130130000D01*
X185490000Y-130130000D02*
X195510000Y-130130000D01*
X195510000Y-130130000D02*
X195510000Y-129650000D01*
D12*
X189500000Y-114515000D02*
X185000000Y-114515000D01*
X190750000Y-118515000D02*
X190750000Y-117015000D01*
X185000000Y-121015000D02*
X189500000Y-121015000D01*
X183750000Y-117015000D02*
X183750000Y-118515000D01*
D11*
X172990000Y-130295000D02*
G75*
G02X174990000Y-130295000I1000000J0D01*
G01*
X174990000Y-130295000D02*
X176760000Y-130295000D01*
X176760000Y-130295000D02*
X176760000Y-104655000D01*
X176760000Y-104655000D02*
X171220000Y-104655000D01*
X171220000Y-104655000D02*
X171220000Y-130295000D01*
X171220000Y-130295000D02*
X172990000Y-130295000D01*
X179190000Y-130295000D02*
X179190000Y-104655000D01*
X179190000Y-104655000D02*
X168790000Y-104655000D01*
X168790000Y-104655000D02*
X168790000Y-130295000D01*
X168790000Y-130295000D02*
X179190000Y-130295000D01*
X129750000Y-117435000D02*
X136870000Y-117435000D01*
X129750000Y-120055000D02*
X136870000Y-120055000D01*
X129750000Y-117435000D02*
X129750000Y-120055000D01*
X136870000Y-117435000D02*
X136870000Y-120055000D01*
D12*
X112530000Y-114935000D02*
X112530000Y-122845000D01*
X118610000Y-114935000D02*
X118610000Y-122845000D01*
X118820000Y-112115000D02*
X118820000Y-113665000D01*
X112530000Y-122845000D02*
X118610000Y-122845000D01*
X118610000Y-114935000D02*
X112530000Y-114935000D01*
X112320000Y-113665000D02*
X112320000Y-112115000D01*
X112320000Y-112115000D02*
X118820000Y-112115000D01*
X131318095Y-130317381D02*
X131318095Y-131126905D01*
X131365714Y-131222143D01*
X131413333Y-131269762D01*
X131508571Y-131317381D01*
X131699048Y-131317381D01*
X131794286Y-131269762D01*
X131841905Y-131222143D01*
X131889524Y-131126905D01*
X131889524Y-130317381D01*
X132889524Y-131317381D02*
X132318095Y-131317381D01*
X132603809Y-131317381D02*
X132603809Y-130317381D01*
X132508571Y-130460238D01*
X132413333Y-130555476D01*
X132318095Y-130603095D01*
X146157143Y-127781666D02*
X146204762Y-127829285D01*
X146252381Y-127972142D01*
X146252381Y-128067380D01*
X146204762Y-128210238D01*
X146109524Y-128305476D01*
X146014286Y-128353095D01*
X145823810Y-128400714D01*
X145680952Y-128400714D01*
X145490476Y-128353095D01*
X145395238Y-128305476D01*
X145300000Y-128210238D01*
X145252381Y-128067380D01*
X145252381Y-127972142D01*
X145300000Y-127829285D01*
X145347619Y-127781666D01*
X146252381Y-126829285D02*
X146252381Y-127400714D01*
X146252381Y-127115000D02*
X145252381Y-127115000D01*
X145395238Y-127210238D01*
X145490476Y-127305476D01*
X145538095Y-127400714D01*
X194342381Y-114403095D02*
X193342381Y-114403095D01*
X193342381Y-114165000D01*
X193390000Y-114022142D01*
X193485238Y-113926904D01*
X193580476Y-113879285D01*
X193770952Y-113831666D01*
X193913810Y-113831666D01*
X194104286Y-113879285D01*
X194199524Y-113926904D01*
X194294762Y-114022142D01*
X194342381Y-114165000D01*
X194342381Y-114403095D01*
X194342381Y-112879285D02*
X194342381Y-113450714D01*
X194342381Y-113165000D02*
X193342381Y-113165000D01*
X193485238Y-113260238D01*
X193580476Y-113355476D01*
X193628095Y-113450714D01*
X194127381Y-122023095D02*
X193127381Y-122023095D01*
X193127381Y-121785000D01*
X193175000Y-121642142D01*
X193270238Y-121546904D01*
X193365476Y-121499285D01*
X193555952Y-121451666D01*
X193698810Y-121451666D01*
X193889286Y-121499285D01*
X193984524Y-121546904D01*
X194079762Y-121642142D01*
X194127381Y-121785000D01*
X194127381Y-122023095D01*
X193222619Y-121070714D02*
X193175000Y-121023095D01*
X193127381Y-120927857D01*
X193127381Y-120689761D01*
X193175000Y-120594523D01*
X193222619Y-120546904D01*
X193317857Y-120499285D01*
X193413095Y-120499285D01*
X193555952Y-120546904D01*
X194127381Y-121118333D01*
X194127381Y-120499285D01*
X151431667Y-117987381D02*
X151431667Y-118701667D01*
X151384047Y-118844524D01*
X151288809Y-118939762D01*
X151145952Y-118987381D01*
X151050714Y-118987381D01*
X151860238Y-118082619D02*
X151907857Y-118035000D01*
X152003095Y-117987381D01*
X152241191Y-117987381D01*
X152336429Y-118035000D01*
X152384048Y-118082619D01*
X152431667Y-118177857D01*
X152431667Y-118273095D01*
X152384048Y-118415952D01*
X151812619Y-118987381D01*
X152431667Y-118987381D01*
X141906667Y-112907381D02*
X141906667Y-113621667D01*
X141859047Y-113764524D01*
X141763809Y-113859762D01*
X141620952Y-113907381D01*
X141525714Y-113907381D01*
X142287619Y-112907381D02*
X142906667Y-112907381D01*
X142573333Y-113288333D01*
X142716191Y-113288333D01*
X142811429Y-113335952D01*
X142859048Y-113383571D01*
X142906667Y-113478810D01*
X142906667Y-113716905D01*
X142859048Y-113812143D01*
X142811429Y-113859762D01*
X142716191Y-113907381D01*
X142430476Y-113907381D01*
X142335238Y-113859762D01*
X142287619Y-113812143D01*
X155876667Y-130687381D02*
X155876667Y-131401667D01*
X155829047Y-131544524D01*
X155733809Y-131639762D01*
X155590952Y-131687381D01*
X155495714Y-131687381D01*
X156781429Y-131020714D02*
X156781429Y-131687381D01*
X156543333Y-130639762D02*
X156305238Y-131354048D01*
X156924286Y-131354048D01*
X163496667Y-130687381D02*
X163496667Y-131401667D01*
X163449047Y-131544524D01*
X163353809Y-131639762D01*
X163210952Y-131687381D01*
X163115714Y-131687381D01*
X164449048Y-130687381D02*
X163972857Y-130687381D01*
X163925238Y-131163571D01*
X163972857Y-131115952D01*
X164068095Y-131068333D01*
X164306191Y-131068333D01*
X164401429Y-131115952D01*
X164449048Y-131163571D01*
X164496667Y-131258810D01*
X164496667Y-131496905D01*
X164449048Y-131592143D01*
X164401429Y-131639762D01*
X164306191Y-131687381D01*
X164068095Y-131687381D01*
X163972857Y-131639762D01*
X163925238Y-131592143D01*
X132587619Y-108045238D02*
X132540000Y-108140476D01*
X132444762Y-108235714D01*
X132301905Y-108378571D01*
X132254286Y-108473810D01*
X132254286Y-108569048D01*
X132492381Y-108521429D02*
X132444762Y-108616667D01*
X132349524Y-108711905D01*
X132159048Y-108759524D01*
X131825714Y-108759524D01*
X131635238Y-108711905D01*
X131540000Y-108616667D01*
X131492381Y-108521429D01*
X131492381Y-108330952D01*
X131540000Y-108235714D01*
X131635238Y-108140476D01*
X131825714Y-108092857D01*
X132159048Y-108092857D01*
X132349524Y-108140476D01*
X132444762Y-108235714D01*
X132492381Y-108330952D01*
X132492381Y-108521429D01*
X132492381Y-107140476D02*
X132492381Y-107711905D01*
X132492381Y-107426191D02*
X131492381Y-107426191D01*
X131635238Y-107521429D01*
X131730476Y-107616667D01*
X131778095Y-107711905D01*
X190333334Y-104272381D02*
X190000000Y-103796190D01*
X189761905Y-104272381D02*
X189761905Y-103272381D01*
X190142858Y-103272381D01*
X190238096Y-103320000D01*
X190285715Y-103367619D01*
X190333334Y-103462857D01*
X190333334Y-103605714D01*
X190285715Y-103700952D01*
X190238096Y-103748571D01*
X190142858Y-103796190D01*
X189761905Y-103796190D01*
X190666667Y-103272381D02*
X191285715Y-103272381D01*
X190952381Y-103653333D01*
X191095239Y-103653333D01*
X191190477Y-103700952D01*
X191238096Y-103748571D01*
X191285715Y-103843810D01*
X191285715Y-104081905D01*
X191238096Y-104177143D01*
X191190477Y-104224762D01*
X191095239Y-104272381D01*
X190809524Y-104272381D01*
X190714286Y-104224762D01*
X190666667Y-104177143D01*
X190333334Y-125862381D02*
X190000000Y-125386190D01*
X189761905Y-125862381D02*
X189761905Y-124862381D01*
X190142858Y-124862381D01*
X190238096Y-124910000D01*
X190285715Y-124957619D01*
X190333334Y-125052857D01*
X190333334Y-125195714D01*
X190285715Y-125290952D01*
X190238096Y-125338571D01*
X190142858Y-125386190D01*
X189761905Y-125386190D01*
X191190477Y-125195714D02*
X191190477Y-125862381D01*
X190952381Y-124814762D02*
X190714286Y-125529048D01*
X191333334Y-125529048D01*
X185916667Y-122419762D02*
X186059524Y-122467381D01*
X186297620Y-122467381D01*
X186392858Y-122419762D01*
X186440477Y-122372143D01*
X186488096Y-122276905D01*
X186488096Y-122181667D01*
X186440477Y-122086429D01*
X186392858Y-122038810D01*
X186297620Y-121991190D01*
X186107143Y-121943571D01*
X186011905Y-121895952D01*
X185964286Y-121848333D01*
X185916667Y-121753095D01*
X185916667Y-121657857D01*
X185964286Y-121562619D01*
X186011905Y-121515000D01*
X186107143Y-121467381D01*
X186345239Y-121467381D01*
X186488096Y-121515000D01*
X186821429Y-121467381D02*
X187059524Y-122467381D01*
X187250001Y-121753095D01*
X187440477Y-122467381D01*
X187678572Y-121467381D01*
X188583334Y-122467381D02*
X188011905Y-122467381D01*
X188297619Y-122467381D02*
X188297619Y-121467381D01*
X188202381Y-121610238D01*
X188107143Y-121705476D01*
X188011905Y-121753095D01*
X173228095Y-130747381D02*
X173228095Y-131556905D01*
X173275714Y-131652143D01*
X173323333Y-131699762D01*
X173418571Y-131747381D01*
X173609048Y-131747381D01*
X173704286Y-131699762D01*
X173751905Y-131652143D01*
X173799524Y-131556905D01*
X173799524Y-130747381D01*
X174228095Y-130842619D02*
X174275714Y-130795000D01*
X174370952Y-130747381D01*
X174609048Y-130747381D01*
X174704286Y-130795000D01*
X174751905Y-130842619D01*
X174799524Y-130937857D01*
X174799524Y-131033095D01*
X174751905Y-131175952D01*
X174180476Y-131747381D01*
X174799524Y-131747381D01*
X133143334Y-116792143D02*
X133095715Y-116839762D01*
X132952858Y-116887381D01*
X132857620Y-116887381D01*
X132714762Y-116839762D01*
X132619524Y-116744524D01*
X132571905Y-116649286D01*
X132524286Y-116458810D01*
X132524286Y-116315952D01*
X132571905Y-116125476D01*
X132619524Y-116030238D01*
X132714762Y-115935000D01*
X132857620Y-115887381D01*
X132952858Y-115887381D01*
X133095715Y-115935000D01*
X133143334Y-115982619D01*
X133524286Y-115982619D02*
X133571905Y-115935000D01*
X133667143Y-115887381D01*
X133905239Y-115887381D01*
X134000477Y-115935000D01*
X134048096Y-115982619D01*
X134095715Y-116077857D01*
X134095715Y-116173095D01*
X134048096Y-116315952D01*
X133476667Y-116887381D01*
X134095715Y-116887381D01*
X115236667Y-109942381D02*
X115236667Y-110656667D01*
X115189047Y-110799524D01*
X115093809Y-110894762D01*
X114950952Y-110942381D01*
X114855714Y-110942381D01*
X116141429Y-109942381D02*
X115950952Y-109942381D01*
X115855714Y-109990000D01*
X115808095Y-110037619D01*
X115712857Y-110180476D01*
X115665238Y-110370952D01*
X115665238Y-110751905D01*
X115712857Y-110847143D01*
X115760476Y-110894762D01*
X115855714Y-110942381D01*
X116046191Y-110942381D01*
X116141429Y-110894762D01*
X116189048Y-110847143D01*
X116236667Y-110751905D01*
X116236667Y-110513810D01*
X116189048Y-110418571D01*
X116141429Y-110370952D01*
X116046191Y-110323333D01*
X115855714Y-110323333D01*
X115760476Y-110370952D01*
X115712857Y-110418571D01*
X115665238Y-110513810D01*
M02*
