G04 #@! TF.FileFunction,Copper,L1,Top,Signal*
%FSLAX46Y46*%
G04 Gerber Fmt 4.6, Leading zero omitted, Abs format (unit mm)*
G04 Created by KiCad (PCBNEW 4.0.2+dfsg1-stable) date Fri 23 Feb 2018 02:24:07 PM CET*
%MOMM*%
G01*
G04 APERTURE LIST*
%ADD10C,0.100000*%
%ADD11R,2.000000X3.800000*%
%ADD12R,2.000000X1.500000*%
%ADD13R,1.600000X1.600000*%
%ADD14C,1.600000*%
%ADD15R,1.800000X1.800000*%
%ADD16C,1.800000*%
%ADD17R,1.700000X1.700000*%
%ADD18O,1.700000X1.700000*%
%ADD19R,0.800000X1.900000*%
%ADD20C,2.400000*%
%ADD21O,2.400000X2.400000*%
%ADD22C,2.000000*%
%ADD23O,1.600000X1.600000*%
%ADD24R,3.040000X1.727200*%
%ADD25O,3.040000X1.727200*%
%ADD26C,0.500000*%
%ADD27C,1.000000*%
%ADD28C,0.254000*%
G04 APERTURE END LIST*
D10*
D11*
X128930000Y-126365000D03*
D12*
X135230000Y-126365000D03*
X135230000Y-124065000D03*
X135230000Y-128665000D03*
D13*
X142240000Y-126365000D03*
D14*
X142240000Y-128865000D03*
D15*
X196850000Y-114935000D03*
D16*
X196850000Y-112395000D03*
D15*
X196850000Y-120015000D03*
D16*
X196850000Y-122555000D03*
D17*
X151765000Y-116205000D03*
D18*
X151765000Y-113665000D03*
X151765000Y-111125000D03*
D17*
X142240000Y-111125000D03*
D18*
X142240000Y-108585000D03*
X142240000Y-106045000D03*
D17*
X156210000Y-128905000D03*
D18*
X156210000Y-126365000D03*
X156210000Y-123825000D03*
X156210000Y-121285000D03*
D17*
X163830000Y-128905000D03*
D18*
X163830000Y-126365000D03*
X163830000Y-123825000D03*
D19*
X130490000Y-106450000D03*
X128590000Y-106450000D03*
X129540000Y-109450000D03*
D20*
X184150000Y-106680000D03*
D21*
X196850000Y-106680000D03*
D20*
X184150000Y-128270000D03*
D21*
X196850000Y-128270000D03*
D22*
X190500000Y-115515000D03*
X190500000Y-120015000D03*
X184000000Y-115515000D03*
X184000000Y-120015000D03*
D13*
X177800000Y-128905000D03*
D23*
X170180000Y-106045000D03*
X177800000Y-126365000D03*
X170180000Y-108585000D03*
X177800000Y-123825000D03*
X170180000Y-111125000D03*
X177800000Y-121285000D03*
X170180000Y-113665000D03*
X177800000Y-118745000D03*
X170180000Y-116205000D03*
X177800000Y-116205000D03*
X170180000Y-118745000D03*
X177800000Y-113665000D03*
X170180000Y-121285000D03*
X177800000Y-111125000D03*
X170180000Y-123825000D03*
X177800000Y-108585000D03*
X170180000Y-126365000D03*
X177800000Y-106045000D03*
X170180000Y-128905000D03*
D14*
X130810000Y-118745000D03*
X135810000Y-118745000D03*
D24*
X115570000Y-113665000D03*
D25*
X115570000Y-116205000D03*
X115570000Y-118745000D03*
X115570000Y-121285000D03*
D26*
X160020000Y-132715000D02*
X160020000Y-128270000D01*
X147320000Y-110490000D02*
X147320000Y-111125000D01*
X147320000Y-111125000D02*
X147955000Y-111125000D01*
X151765000Y-111125000D02*
X147955000Y-111125000D01*
X147955000Y-111125000D02*
X147320000Y-111125000D01*
X142240000Y-126365000D02*
X135230000Y-126365000D01*
X142240000Y-126365000D02*
X147320000Y-126365000D01*
X147320000Y-126365000D02*
X147320000Y-125730000D01*
X161925000Y-126365000D02*
X163830000Y-126365000D01*
X160020000Y-128270000D02*
X161925000Y-126365000D01*
X156210000Y-121285000D02*
X147320000Y-121285000D01*
X147320000Y-121285000D02*
X147320000Y-121920000D01*
X160020000Y-132715000D02*
X150495000Y-132715000D01*
X147320000Y-111125000D02*
X147320000Y-114300000D01*
X147320000Y-114300000D02*
X147320000Y-121920000D01*
X147320000Y-121920000D02*
X147320000Y-125730000D01*
X147320000Y-125730000D02*
X147320000Y-129540000D01*
X147320000Y-110490000D02*
X142875000Y-106045000D01*
X150495000Y-132715000D02*
X147320000Y-129540000D01*
X142240000Y-106045000D02*
X142875000Y-106045000D01*
X177800000Y-128905000D02*
X177800000Y-129540000D01*
X177800000Y-129540000D02*
X174625000Y-132715000D01*
X174625000Y-132715000D02*
X160020000Y-132715000D01*
X142040000Y-128665000D02*
X142240000Y-128865000D01*
D27*
X116205000Y-116205000D02*
X121285000Y-116205000D01*
X121285000Y-116205000D02*
X125095000Y-112395000D01*
D26*
X129540000Y-109450000D02*
X129540000Y-109855000D01*
X175260000Y-104775000D02*
X172085000Y-102235000D01*
X172085000Y-102235000D02*
X135255000Y-102235000D01*
X177800000Y-121285000D02*
X175260000Y-121285000D01*
X175260000Y-104775000D02*
X175260000Y-121285000D01*
X135255000Y-102235000D02*
X130810000Y-106680000D01*
X130810000Y-106680000D02*
X130490000Y-106450000D01*
D27*
X115570000Y-118745000D02*
X130810000Y-118745000D01*
X130810000Y-118745000D02*
X131445000Y-119380000D01*
X116205000Y-118745000D02*
X114300000Y-118745000D01*
X113030000Y-114935000D02*
X114935000Y-113665000D01*
X113030000Y-117475000D02*
X113030000Y-114935000D01*
X114300000Y-118745000D02*
X113030000Y-117475000D01*
X114935000Y-113665000D02*
X115570000Y-113665000D01*
X131445000Y-119380000D02*
X133985000Y-123825000D01*
X133985000Y-123825000D02*
X134990000Y-123825000D01*
D26*
X134990000Y-123825000D02*
X135230000Y-124065000D01*
X131285000Y-119220000D02*
X131445000Y-119380000D01*
X135230000Y-124065000D02*
X135230000Y-123800000D01*
D28*
G36*
X135128000Y-112903000D02*
X123952000Y-112903000D01*
X123952000Y-109735750D01*
X128505000Y-109735750D01*
X128505000Y-110526309D01*
X128601673Y-110759698D01*
X128780301Y-110938327D01*
X129013690Y-111035000D01*
X129254250Y-111035000D01*
X129413000Y-110876250D01*
X129413000Y-109577000D01*
X129667000Y-109577000D01*
X129667000Y-110876250D01*
X129825750Y-111035000D01*
X130066310Y-111035000D01*
X130299699Y-110938327D01*
X130478327Y-110759698D01*
X130575000Y-110526309D01*
X130575000Y-109735750D01*
X130416250Y-109577000D01*
X129667000Y-109577000D01*
X129413000Y-109577000D01*
X128663750Y-109577000D01*
X128505000Y-109735750D01*
X123952000Y-109735750D01*
X123952000Y-109347000D01*
X135128000Y-109347000D01*
X135128000Y-112903000D01*
X135128000Y-112903000D01*
G37*
X135128000Y-112903000D02*
X123952000Y-112903000D01*
X123952000Y-109735750D01*
X128505000Y-109735750D01*
X128505000Y-110526309D01*
X128601673Y-110759698D01*
X128780301Y-110938327D01*
X129013690Y-111035000D01*
X129254250Y-111035000D01*
X129413000Y-110876250D01*
X129413000Y-109577000D01*
X129667000Y-109577000D01*
X129667000Y-110876250D01*
X129825750Y-111035000D01*
X130066310Y-111035000D01*
X130299699Y-110938327D01*
X130478327Y-110759698D01*
X130575000Y-110526309D01*
X130575000Y-109735750D01*
X130416250Y-109577000D01*
X129667000Y-109577000D01*
X129413000Y-109577000D01*
X128663750Y-109577000D01*
X128505000Y-109735750D01*
X123952000Y-109735750D01*
X123952000Y-109347000D01*
X135128000Y-109347000D01*
X135128000Y-112903000D01*
G36*
X201220000Y-133275000D02*
X175316580Y-133275000D01*
X178239139Y-130352440D01*
X178600000Y-130352440D01*
X178835317Y-130308162D01*
X179051441Y-130169090D01*
X179196431Y-129956890D01*
X179247440Y-129705000D01*
X179247440Y-128633403D01*
X182314682Y-128633403D01*
X182593455Y-129308086D01*
X183109199Y-129824730D01*
X183783395Y-130104681D01*
X184513403Y-130105318D01*
X185188086Y-129826545D01*
X185704730Y-129310801D01*
X185984681Y-128636605D01*
X185985000Y-128270000D01*
X194979050Y-128270000D01*
X195118731Y-128972224D01*
X195516509Y-129567541D01*
X196111826Y-129965319D01*
X196814050Y-130105000D01*
X196885950Y-130105000D01*
X197588174Y-129965319D01*
X198183491Y-129567541D01*
X198581269Y-128972224D01*
X198720950Y-128270000D01*
X198581269Y-127567776D01*
X198183491Y-126972459D01*
X197588174Y-126574681D01*
X196885950Y-126435000D01*
X196814050Y-126435000D01*
X196111826Y-126574681D01*
X195516509Y-126972459D01*
X195118731Y-127567776D01*
X194979050Y-128270000D01*
X185985000Y-128270000D01*
X185985318Y-127906597D01*
X185706545Y-127231914D01*
X185190801Y-126715270D01*
X184516605Y-126435319D01*
X183786597Y-126434682D01*
X183111914Y-126713455D01*
X182595270Y-127229199D01*
X182315319Y-127903395D01*
X182314682Y-128633403D01*
X179247440Y-128633403D01*
X179247440Y-128105000D01*
X179203162Y-127869683D01*
X179064090Y-127653559D01*
X178851890Y-127508569D01*
X178696911Y-127477185D01*
X178842811Y-127379698D01*
X179153880Y-126914151D01*
X179263113Y-126365000D01*
X179153880Y-125815849D01*
X178842811Y-125350302D01*
X178460725Y-125095000D01*
X178842811Y-124839698D01*
X179153880Y-124374151D01*
X179263113Y-123825000D01*
X179153880Y-123275849D01*
X178875344Y-122858991D01*
X195314735Y-122858991D01*
X195547932Y-123423371D01*
X195979357Y-123855551D01*
X196543330Y-124089733D01*
X197153991Y-124090265D01*
X197718371Y-123857068D01*
X198150551Y-123425643D01*
X198384733Y-122861670D01*
X198385265Y-122251009D01*
X198152068Y-121686629D01*
X197974908Y-121509159D01*
X198109699Y-121453327D01*
X198288327Y-121274698D01*
X198385000Y-121041309D01*
X198385000Y-120300750D01*
X198226250Y-120142000D01*
X196977000Y-120142000D01*
X196977000Y-120162000D01*
X196723000Y-120162000D01*
X196723000Y-120142000D01*
X195473750Y-120142000D01*
X195315000Y-120300750D01*
X195315000Y-121041309D01*
X195411673Y-121274698D01*
X195590301Y-121453327D01*
X195724994Y-121509119D01*
X195549449Y-121684357D01*
X195315267Y-122248330D01*
X195314735Y-122858991D01*
X178875344Y-122858991D01*
X178842811Y-122810302D01*
X178460725Y-122555000D01*
X178842811Y-122299698D01*
X179153880Y-121834151D01*
X179263113Y-121285000D01*
X179153880Y-120735849D01*
X178888577Y-120338795D01*
X182364716Y-120338795D01*
X182613106Y-120939943D01*
X183072637Y-121400278D01*
X183673352Y-121649716D01*
X184323795Y-121650284D01*
X184924943Y-121401894D01*
X185385278Y-120942363D01*
X185634716Y-120341648D01*
X185634718Y-120338795D01*
X188864716Y-120338795D01*
X189113106Y-120939943D01*
X189572637Y-121400278D01*
X190173352Y-121649716D01*
X190823795Y-121650284D01*
X191424943Y-121401894D01*
X191885278Y-120942363D01*
X192134716Y-120341648D01*
X192135284Y-119691205D01*
X191886894Y-119090057D01*
X191785706Y-118988691D01*
X195315000Y-118988691D01*
X195315000Y-119729250D01*
X195473750Y-119888000D01*
X196723000Y-119888000D01*
X196723000Y-118638750D01*
X196977000Y-118638750D01*
X196977000Y-119888000D01*
X198226250Y-119888000D01*
X198385000Y-119729250D01*
X198385000Y-118988691D01*
X198288327Y-118755302D01*
X198109699Y-118576673D01*
X197876310Y-118480000D01*
X197135750Y-118480000D01*
X196977000Y-118638750D01*
X196723000Y-118638750D01*
X196564250Y-118480000D01*
X195823690Y-118480000D01*
X195590301Y-118576673D01*
X195411673Y-118755302D01*
X195315000Y-118988691D01*
X191785706Y-118988691D01*
X191427363Y-118629722D01*
X190826648Y-118380284D01*
X190176205Y-118379716D01*
X189575057Y-118628106D01*
X189114722Y-119087637D01*
X188865284Y-119688352D01*
X188864716Y-120338795D01*
X185634718Y-120338795D01*
X185635284Y-119691205D01*
X185386894Y-119090057D01*
X184927363Y-118629722D01*
X184326648Y-118380284D01*
X183676205Y-118379716D01*
X183075057Y-118628106D01*
X182614722Y-119087637D01*
X182365284Y-119688352D01*
X182364716Y-120338795D01*
X178888577Y-120338795D01*
X178842811Y-120270302D01*
X178460725Y-120015000D01*
X178842811Y-119759698D01*
X179153880Y-119294151D01*
X179263113Y-118745000D01*
X179153880Y-118195849D01*
X178842811Y-117730302D01*
X178460725Y-117475000D01*
X178842811Y-117219698D01*
X179153880Y-116754151D01*
X179171109Y-116667532D01*
X183027073Y-116667532D01*
X183125736Y-116934387D01*
X183735461Y-117160908D01*
X184385460Y-117136856D01*
X184874264Y-116934387D01*
X184972927Y-116667532D01*
X189527073Y-116667532D01*
X189625736Y-116934387D01*
X190235461Y-117160908D01*
X190885460Y-117136856D01*
X191374264Y-116934387D01*
X191472927Y-116667532D01*
X190500000Y-115694605D01*
X189527073Y-116667532D01*
X184972927Y-116667532D01*
X184000000Y-115694605D01*
X183027073Y-116667532D01*
X179171109Y-116667532D01*
X179263113Y-116205000D01*
X179153880Y-115655849D01*
X178883009Y-115250461D01*
X182354092Y-115250461D01*
X182378144Y-115900460D01*
X182580613Y-116389264D01*
X182847468Y-116487927D01*
X183820395Y-115515000D01*
X184179605Y-115515000D01*
X185152532Y-116487927D01*
X185419387Y-116389264D01*
X185645908Y-115779539D01*
X185626331Y-115250461D01*
X188854092Y-115250461D01*
X188878144Y-115900460D01*
X189080613Y-116389264D01*
X189347468Y-116487927D01*
X190320395Y-115515000D01*
X190679605Y-115515000D01*
X191652532Y-116487927D01*
X191919387Y-116389264D01*
X192145908Y-115779539D01*
X192125232Y-115220750D01*
X195315000Y-115220750D01*
X195315000Y-115961309D01*
X195411673Y-116194698D01*
X195590301Y-116373327D01*
X195823690Y-116470000D01*
X196564250Y-116470000D01*
X196723000Y-116311250D01*
X196723000Y-115062000D01*
X196977000Y-115062000D01*
X196977000Y-116311250D01*
X197135750Y-116470000D01*
X197876310Y-116470000D01*
X198109699Y-116373327D01*
X198288327Y-116194698D01*
X198385000Y-115961309D01*
X198385000Y-115220750D01*
X198226250Y-115062000D01*
X196977000Y-115062000D01*
X196723000Y-115062000D01*
X195473750Y-115062000D01*
X195315000Y-115220750D01*
X192125232Y-115220750D01*
X192121856Y-115129540D01*
X191919387Y-114640736D01*
X191652532Y-114542073D01*
X190679605Y-115515000D01*
X190320395Y-115515000D01*
X189347468Y-114542073D01*
X189080613Y-114640736D01*
X188854092Y-115250461D01*
X185626331Y-115250461D01*
X185621856Y-115129540D01*
X185419387Y-114640736D01*
X185152532Y-114542073D01*
X184179605Y-115515000D01*
X183820395Y-115515000D01*
X182847468Y-114542073D01*
X182580613Y-114640736D01*
X182354092Y-115250461D01*
X178883009Y-115250461D01*
X178842811Y-115190302D01*
X178460725Y-114935000D01*
X178842811Y-114679698D01*
X179054777Y-114362468D01*
X183027073Y-114362468D01*
X184000000Y-115335395D01*
X184972927Y-114362468D01*
X189527073Y-114362468D01*
X190500000Y-115335395D01*
X191472927Y-114362468D01*
X191374264Y-114095613D01*
X190764539Y-113869092D01*
X190114540Y-113893144D01*
X189625736Y-114095613D01*
X189527073Y-114362468D01*
X184972927Y-114362468D01*
X184874264Y-114095613D01*
X184264539Y-113869092D01*
X183614540Y-113893144D01*
X183125736Y-114095613D01*
X183027073Y-114362468D01*
X179054777Y-114362468D01*
X179153880Y-114214151D01*
X179263113Y-113665000D01*
X179153880Y-113115849D01*
X178875344Y-112698991D01*
X195314735Y-112698991D01*
X195547932Y-113263371D01*
X195725092Y-113440841D01*
X195590301Y-113496673D01*
X195411673Y-113675302D01*
X195315000Y-113908691D01*
X195315000Y-114649250D01*
X195473750Y-114808000D01*
X196723000Y-114808000D01*
X196723000Y-114788000D01*
X196977000Y-114788000D01*
X196977000Y-114808000D01*
X198226250Y-114808000D01*
X198385000Y-114649250D01*
X198385000Y-113908691D01*
X198288327Y-113675302D01*
X198109699Y-113496673D01*
X197975006Y-113440881D01*
X198150551Y-113265643D01*
X198384733Y-112701670D01*
X198385265Y-112091009D01*
X198152068Y-111526629D01*
X197720643Y-111094449D01*
X197156670Y-110860267D01*
X196546009Y-110859735D01*
X195981629Y-111092932D01*
X195549449Y-111524357D01*
X195315267Y-112088330D01*
X195314735Y-112698991D01*
X178875344Y-112698991D01*
X178842811Y-112650302D01*
X178460725Y-112395000D01*
X178842811Y-112139698D01*
X179153880Y-111674151D01*
X179263113Y-111125000D01*
X179153880Y-110575849D01*
X178842811Y-110110302D01*
X178460725Y-109855000D01*
X178842811Y-109599698D01*
X179153880Y-109134151D01*
X179263113Y-108585000D01*
X179153880Y-108035849D01*
X178842811Y-107570302D01*
X178460725Y-107315000D01*
X178842811Y-107059698D01*
X178853698Y-107043403D01*
X182314682Y-107043403D01*
X182593455Y-107718086D01*
X183109199Y-108234730D01*
X183783395Y-108514681D01*
X184513403Y-108515318D01*
X185188086Y-108236545D01*
X185704730Y-107720801D01*
X185984681Y-107046605D01*
X185985000Y-106680000D01*
X194979050Y-106680000D01*
X195118731Y-107382224D01*
X195516509Y-107977541D01*
X196111826Y-108375319D01*
X196814050Y-108515000D01*
X196885950Y-108515000D01*
X197588174Y-108375319D01*
X198183491Y-107977541D01*
X198581269Y-107382224D01*
X198720950Y-106680000D01*
X198581269Y-105977776D01*
X198183491Y-105382459D01*
X197588174Y-104984681D01*
X196885950Y-104845000D01*
X196814050Y-104845000D01*
X196111826Y-104984681D01*
X195516509Y-105382459D01*
X195118731Y-105977776D01*
X194979050Y-106680000D01*
X185985000Y-106680000D01*
X185985318Y-106316597D01*
X185706545Y-105641914D01*
X185190801Y-105125270D01*
X184516605Y-104845319D01*
X183786597Y-104844682D01*
X183111914Y-105123455D01*
X182595270Y-105639199D01*
X182315319Y-106313395D01*
X182314682Y-107043403D01*
X178853698Y-107043403D01*
X179153880Y-106594151D01*
X179263113Y-106045000D01*
X179153880Y-105495849D01*
X178842811Y-105030302D01*
X178377264Y-104719233D01*
X177828113Y-104610000D01*
X177771887Y-104610000D01*
X177222736Y-104719233D01*
X176757189Y-105030302D01*
X176446120Y-105495849D01*
X176336887Y-106045000D01*
X176446120Y-106594151D01*
X176757189Y-107059698D01*
X177139275Y-107315000D01*
X176757189Y-107570302D01*
X176446120Y-108035849D01*
X176336887Y-108585000D01*
X176446120Y-109134151D01*
X176757189Y-109599698D01*
X177139275Y-109855000D01*
X176757189Y-110110302D01*
X176446120Y-110575849D01*
X176336887Y-111125000D01*
X176446120Y-111674151D01*
X176757189Y-112139698D01*
X177139275Y-112395000D01*
X176757189Y-112650302D01*
X176446120Y-113115849D01*
X176336887Y-113665000D01*
X176446120Y-114214151D01*
X176757189Y-114679698D01*
X177139275Y-114935000D01*
X176757189Y-115190302D01*
X176446120Y-115655849D01*
X176336887Y-116205000D01*
X176446120Y-116754151D01*
X176757189Y-117219698D01*
X177139275Y-117475000D01*
X176757189Y-117730302D01*
X176446120Y-118195849D01*
X176336887Y-118745000D01*
X176446120Y-119294151D01*
X176757189Y-119759698D01*
X177139275Y-120015000D01*
X176757189Y-120270302D01*
X176670527Y-120400000D01*
X176145000Y-120400000D01*
X176145000Y-104775000D01*
X176135357Y-104726521D01*
X176139588Y-104677268D01*
X176101937Y-104558507D01*
X176077633Y-104436325D01*
X176050170Y-104395224D01*
X176035232Y-104348105D01*
X175955007Y-104252802D01*
X175885790Y-104149210D01*
X175844687Y-104121746D01*
X175812855Y-104083931D01*
X172801691Y-101675000D01*
X201220000Y-101675000D01*
X201220000Y-133275000D01*
X201220000Y-133275000D01*
G37*
X201220000Y-133275000D02*
X175316580Y-133275000D01*
X178239139Y-130352440D01*
X178600000Y-130352440D01*
X178835317Y-130308162D01*
X179051441Y-130169090D01*
X179196431Y-129956890D01*
X179247440Y-129705000D01*
X179247440Y-128633403D01*
X182314682Y-128633403D01*
X182593455Y-129308086D01*
X183109199Y-129824730D01*
X183783395Y-130104681D01*
X184513403Y-130105318D01*
X185188086Y-129826545D01*
X185704730Y-129310801D01*
X185984681Y-128636605D01*
X185985000Y-128270000D01*
X194979050Y-128270000D01*
X195118731Y-128972224D01*
X195516509Y-129567541D01*
X196111826Y-129965319D01*
X196814050Y-130105000D01*
X196885950Y-130105000D01*
X197588174Y-129965319D01*
X198183491Y-129567541D01*
X198581269Y-128972224D01*
X198720950Y-128270000D01*
X198581269Y-127567776D01*
X198183491Y-126972459D01*
X197588174Y-126574681D01*
X196885950Y-126435000D01*
X196814050Y-126435000D01*
X196111826Y-126574681D01*
X195516509Y-126972459D01*
X195118731Y-127567776D01*
X194979050Y-128270000D01*
X185985000Y-128270000D01*
X185985318Y-127906597D01*
X185706545Y-127231914D01*
X185190801Y-126715270D01*
X184516605Y-126435319D01*
X183786597Y-126434682D01*
X183111914Y-126713455D01*
X182595270Y-127229199D01*
X182315319Y-127903395D01*
X182314682Y-128633403D01*
X179247440Y-128633403D01*
X179247440Y-128105000D01*
X179203162Y-127869683D01*
X179064090Y-127653559D01*
X178851890Y-127508569D01*
X178696911Y-127477185D01*
X178842811Y-127379698D01*
X179153880Y-126914151D01*
X179263113Y-126365000D01*
X179153880Y-125815849D01*
X178842811Y-125350302D01*
X178460725Y-125095000D01*
X178842811Y-124839698D01*
X179153880Y-124374151D01*
X179263113Y-123825000D01*
X179153880Y-123275849D01*
X178875344Y-122858991D01*
X195314735Y-122858991D01*
X195547932Y-123423371D01*
X195979357Y-123855551D01*
X196543330Y-124089733D01*
X197153991Y-124090265D01*
X197718371Y-123857068D01*
X198150551Y-123425643D01*
X198384733Y-122861670D01*
X198385265Y-122251009D01*
X198152068Y-121686629D01*
X197974908Y-121509159D01*
X198109699Y-121453327D01*
X198288327Y-121274698D01*
X198385000Y-121041309D01*
X198385000Y-120300750D01*
X198226250Y-120142000D01*
X196977000Y-120142000D01*
X196977000Y-120162000D01*
X196723000Y-120162000D01*
X196723000Y-120142000D01*
X195473750Y-120142000D01*
X195315000Y-120300750D01*
X195315000Y-121041309D01*
X195411673Y-121274698D01*
X195590301Y-121453327D01*
X195724994Y-121509119D01*
X195549449Y-121684357D01*
X195315267Y-122248330D01*
X195314735Y-122858991D01*
X178875344Y-122858991D01*
X178842811Y-122810302D01*
X178460725Y-122555000D01*
X178842811Y-122299698D01*
X179153880Y-121834151D01*
X179263113Y-121285000D01*
X179153880Y-120735849D01*
X178888577Y-120338795D01*
X182364716Y-120338795D01*
X182613106Y-120939943D01*
X183072637Y-121400278D01*
X183673352Y-121649716D01*
X184323795Y-121650284D01*
X184924943Y-121401894D01*
X185385278Y-120942363D01*
X185634716Y-120341648D01*
X185634718Y-120338795D01*
X188864716Y-120338795D01*
X189113106Y-120939943D01*
X189572637Y-121400278D01*
X190173352Y-121649716D01*
X190823795Y-121650284D01*
X191424943Y-121401894D01*
X191885278Y-120942363D01*
X192134716Y-120341648D01*
X192135284Y-119691205D01*
X191886894Y-119090057D01*
X191785706Y-118988691D01*
X195315000Y-118988691D01*
X195315000Y-119729250D01*
X195473750Y-119888000D01*
X196723000Y-119888000D01*
X196723000Y-118638750D01*
X196977000Y-118638750D01*
X196977000Y-119888000D01*
X198226250Y-119888000D01*
X198385000Y-119729250D01*
X198385000Y-118988691D01*
X198288327Y-118755302D01*
X198109699Y-118576673D01*
X197876310Y-118480000D01*
X197135750Y-118480000D01*
X196977000Y-118638750D01*
X196723000Y-118638750D01*
X196564250Y-118480000D01*
X195823690Y-118480000D01*
X195590301Y-118576673D01*
X195411673Y-118755302D01*
X195315000Y-118988691D01*
X191785706Y-118988691D01*
X191427363Y-118629722D01*
X190826648Y-118380284D01*
X190176205Y-118379716D01*
X189575057Y-118628106D01*
X189114722Y-119087637D01*
X188865284Y-119688352D01*
X188864716Y-120338795D01*
X185634718Y-120338795D01*
X185635284Y-119691205D01*
X185386894Y-119090057D01*
X184927363Y-118629722D01*
X184326648Y-118380284D01*
X183676205Y-118379716D01*
X183075057Y-118628106D01*
X182614722Y-119087637D01*
X182365284Y-119688352D01*
X182364716Y-120338795D01*
X178888577Y-120338795D01*
X178842811Y-120270302D01*
X178460725Y-120015000D01*
X178842811Y-119759698D01*
X179153880Y-119294151D01*
X179263113Y-118745000D01*
X179153880Y-118195849D01*
X178842811Y-117730302D01*
X178460725Y-117475000D01*
X178842811Y-117219698D01*
X179153880Y-116754151D01*
X179171109Y-116667532D01*
X183027073Y-116667532D01*
X183125736Y-116934387D01*
X183735461Y-117160908D01*
X184385460Y-117136856D01*
X184874264Y-116934387D01*
X184972927Y-116667532D01*
X189527073Y-116667532D01*
X189625736Y-116934387D01*
X190235461Y-117160908D01*
X190885460Y-117136856D01*
X191374264Y-116934387D01*
X191472927Y-116667532D01*
X190500000Y-115694605D01*
X189527073Y-116667532D01*
X184972927Y-116667532D01*
X184000000Y-115694605D01*
X183027073Y-116667532D01*
X179171109Y-116667532D01*
X179263113Y-116205000D01*
X179153880Y-115655849D01*
X178883009Y-115250461D01*
X182354092Y-115250461D01*
X182378144Y-115900460D01*
X182580613Y-116389264D01*
X182847468Y-116487927D01*
X183820395Y-115515000D01*
X184179605Y-115515000D01*
X185152532Y-116487927D01*
X185419387Y-116389264D01*
X185645908Y-115779539D01*
X185626331Y-115250461D01*
X188854092Y-115250461D01*
X188878144Y-115900460D01*
X189080613Y-116389264D01*
X189347468Y-116487927D01*
X190320395Y-115515000D01*
X190679605Y-115515000D01*
X191652532Y-116487927D01*
X191919387Y-116389264D01*
X192145908Y-115779539D01*
X192125232Y-115220750D01*
X195315000Y-115220750D01*
X195315000Y-115961309D01*
X195411673Y-116194698D01*
X195590301Y-116373327D01*
X195823690Y-116470000D01*
X196564250Y-116470000D01*
X196723000Y-116311250D01*
X196723000Y-115062000D01*
X196977000Y-115062000D01*
X196977000Y-116311250D01*
X197135750Y-116470000D01*
X197876310Y-116470000D01*
X198109699Y-116373327D01*
X198288327Y-116194698D01*
X198385000Y-115961309D01*
X198385000Y-115220750D01*
X198226250Y-115062000D01*
X196977000Y-115062000D01*
X196723000Y-115062000D01*
X195473750Y-115062000D01*
X195315000Y-115220750D01*
X192125232Y-115220750D01*
X192121856Y-115129540D01*
X191919387Y-114640736D01*
X191652532Y-114542073D01*
X190679605Y-115515000D01*
X190320395Y-115515000D01*
X189347468Y-114542073D01*
X189080613Y-114640736D01*
X188854092Y-115250461D01*
X185626331Y-115250461D01*
X185621856Y-115129540D01*
X185419387Y-114640736D01*
X185152532Y-114542073D01*
X184179605Y-115515000D01*
X183820395Y-115515000D01*
X182847468Y-114542073D01*
X182580613Y-114640736D01*
X182354092Y-115250461D01*
X178883009Y-115250461D01*
X178842811Y-115190302D01*
X178460725Y-114935000D01*
X178842811Y-114679698D01*
X179054777Y-114362468D01*
X183027073Y-114362468D01*
X184000000Y-115335395D01*
X184972927Y-114362468D01*
X189527073Y-114362468D01*
X190500000Y-115335395D01*
X191472927Y-114362468D01*
X191374264Y-114095613D01*
X190764539Y-113869092D01*
X190114540Y-113893144D01*
X189625736Y-114095613D01*
X189527073Y-114362468D01*
X184972927Y-114362468D01*
X184874264Y-114095613D01*
X184264539Y-113869092D01*
X183614540Y-113893144D01*
X183125736Y-114095613D01*
X183027073Y-114362468D01*
X179054777Y-114362468D01*
X179153880Y-114214151D01*
X179263113Y-113665000D01*
X179153880Y-113115849D01*
X178875344Y-112698991D01*
X195314735Y-112698991D01*
X195547932Y-113263371D01*
X195725092Y-113440841D01*
X195590301Y-113496673D01*
X195411673Y-113675302D01*
X195315000Y-113908691D01*
X195315000Y-114649250D01*
X195473750Y-114808000D01*
X196723000Y-114808000D01*
X196723000Y-114788000D01*
X196977000Y-114788000D01*
X196977000Y-114808000D01*
X198226250Y-114808000D01*
X198385000Y-114649250D01*
X198385000Y-113908691D01*
X198288327Y-113675302D01*
X198109699Y-113496673D01*
X197975006Y-113440881D01*
X198150551Y-113265643D01*
X198384733Y-112701670D01*
X198385265Y-112091009D01*
X198152068Y-111526629D01*
X197720643Y-111094449D01*
X197156670Y-110860267D01*
X196546009Y-110859735D01*
X195981629Y-111092932D01*
X195549449Y-111524357D01*
X195315267Y-112088330D01*
X195314735Y-112698991D01*
X178875344Y-112698991D01*
X178842811Y-112650302D01*
X178460725Y-112395000D01*
X178842811Y-112139698D01*
X179153880Y-111674151D01*
X179263113Y-111125000D01*
X179153880Y-110575849D01*
X178842811Y-110110302D01*
X178460725Y-109855000D01*
X178842811Y-109599698D01*
X179153880Y-109134151D01*
X179263113Y-108585000D01*
X179153880Y-108035849D01*
X178842811Y-107570302D01*
X178460725Y-107315000D01*
X178842811Y-107059698D01*
X178853698Y-107043403D01*
X182314682Y-107043403D01*
X182593455Y-107718086D01*
X183109199Y-108234730D01*
X183783395Y-108514681D01*
X184513403Y-108515318D01*
X185188086Y-108236545D01*
X185704730Y-107720801D01*
X185984681Y-107046605D01*
X185985000Y-106680000D01*
X194979050Y-106680000D01*
X195118731Y-107382224D01*
X195516509Y-107977541D01*
X196111826Y-108375319D01*
X196814050Y-108515000D01*
X196885950Y-108515000D01*
X197588174Y-108375319D01*
X198183491Y-107977541D01*
X198581269Y-107382224D01*
X198720950Y-106680000D01*
X198581269Y-105977776D01*
X198183491Y-105382459D01*
X197588174Y-104984681D01*
X196885950Y-104845000D01*
X196814050Y-104845000D01*
X196111826Y-104984681D01*
X195516509Y-105382459D01*
X195118731Y-105977776D01*
X194979050Y-106680000D01*
X185985000Y-106680000D01*
X185985318Y-106316597D01*
X185706545Y-105641914D01*
X185190801Y-105125270D01*
X184516605Y-104845319D01*
X183786597Y-104844682D01*
X183111914Y-105123455D01*
X182595270Y-105639199D01*
X182315319Y-106313395D01*
X182314682Y-107043403D01*
X178853698Y-107043403D01*
X179153880Y-106594151D01*
X179263113Y-106045000D01*
X179153880Y-105495849D01*
X178842811Y-105030302D01*
X178377264Y-104719233D01*
X177828113Y-104610000D01*
X177771887Y-104610000D01*
X177222736Y-104719233D01*
X176757189Y-105030302D01*
X176446120Y-105495849D01*
X176336887Y-106045000D01*
X176446120Y-106594151D01*
X176757189Y-107059698D01*
X177139275Y-107315000D01*
X176757189Y-107570302D01*
X176446120Y-108035849D01*
X176336887Y-108585000D01*
X176446120Y-109134151D01*
X176757189Y-109599698D01*
X177139275Y-109855000D01*
X176757189Y-110110302D01*
X176446120Y-110575849D01*
X176336887Y-111125000D01*
X176446120Y-111674151D01*
X176757189Y-112139698D01*
X177139275Y-112395000D01*
X176757189Y-112650302D01*
X176446120Y-113115849D01*
X176336887Y-113665000D01*
X176446120Y-114214151D01*
X176757189Y-114679698D01*
X177139275Y-114935000D01*
X176757189Y-115190302D01*
X176446120Y-115655849D01*
X176336887Y-116205000D01*
X176446120Y-116754151D01*
X176757189Y-117219698D01*
X177139275Y-117475000D01*
X176757189Y-117730302D01*
X176446120Y-118195849D01*
X176336887Y-118745000D01*
X176446120Y-119294151D01*
X176757189Y-119759698D01*
X177139275Y-120015000D01*
X176757189Y-120270302D01*
X176670527Y-120400000D01*
X176145000Y-120400000D01*
X176145000Y-104775000D01*
X176135357Y-104726521D01*
X176139588Y-104677268D01*
X176101937Y-104558507D01*
X176077633Y-104436325D01*
X176050170Y-104395224D01*
X176035232Y-104348105D01*
X175955007Y-104252802D01*
X175885790Y-104149210D01*
X175844687Y-104121746D01*
X175812855Y-104083931D01*
X172801691Y-101675000D01*
X201220000Y-101675000D01*
X201220000Y-133275000D01*
G36*
X131256525Y-104981896D02*
X131141890Y-104903569D01*
X130890000Y-104852560D01*
X130090000Y-104852560D01*
X129854683Y-104896838D01*
X129638559Y-105035910D01*
X129543010Y-105175750D01*
X129528327Y-105140302D01*
X129349699Y-104961673D01*
X129116310Y-104865000D01*
X128875750Y-104865000D01*
X128717000Y-105023750D01*
X128717000Y-106323000D01*
X128737000Y-106323000D01*
X128737000Y-106577000D01*
X128717000Y-106577000D01*
X128717000Y-106597000D01*
X128463000Y-106597000D01*
X128463000Y-106577000D01*
X127713750Y-106577000D01*
X127555000Y-106735750D01*
X127555000Y-107526309D01*
X127651673Y-107759698D01*
X127714975Y-107823000D01*
X123190000Y-107823000D01*
X123140590Y-107833006D01*
X123098965Y-107861447D01*
X123071685Y-107903841D01*
X123063000Y-107950000D01*
X123063000Y-112821868D01*
X120814868Y-115070000D01*
X117421298Y-115070000D01*
X117541441Y-114992690D01*
X117686431Y-114780490D01*
X117737440Y-114528600D01*
X117737440Y-112801400D01*
X117693162Y-112566083D01*
X117554090Y-112349959D01*
X117341890Y-112204969D01*
X117090000Y-112153960D01*
X114050000Y-112153960D01*
X113814683Y-112198238D01*
X113598559Y-112337310D01*
X113453569Y-112549510D01*
X113402560Y-112801400D01*
X113402560Y-113322526D01*
X112400415Y-113990623D01*
X112320869Y-114070002D01*
X112227434Y-114132434D01*
X112165655Y-114224892D01*
X112086942Y-114303441D01*
X112043829Y-114407218D01*
X111981397Y-114500654D01*
X111959703Y-114609717D01*
X111917041Y-114712408D01*
X111916924Y-114824783D01*
X111895000Y-114935000D01*
X111895000Y-117475000D01*
X111981397Y-117909346D01*
X112211729Y-118254062D01*
X112227434Y-118277566D01*
X113497434Y-119547566D01*
X113754843Y-119719562D01*
X113811711Y-119804670D01*
X114133941Y-120019977D01*
X113764127Y-120315132D01*
X113480473Y-120828843D01*
X113458642Y-120925974D01*
X113579783Y-121158000D01*
X115443000Y-121158000D01*
X115443000Y-121138000D01*
X115697000Y-121138000D01*
X115697000Y-121158000D01*
X117560217Y-121158000D01*
X117681358Y-120925974D01*
X117659527Y-120828843D01*
X117375873Y-120315132D01*
X117006059Y-120019977D01*
X117215550Y-119880000D01*
X129915394Y-119880000D01*
X129996077Y-119960824D01*
X130523309Y-120179750D01*
X130594798Y-120179812D01*
X130790905Y-120523000D01*
X123190000Y-120523000D01*
X123140590Y-120533006D01*
X123098965Y-120561447D01*
X123071685Y-120603841D01*
X123063000Y-120650000D01*
X123063000Y-132080000D01*
X123073006Y-132129410D01*
X123101447Y-132171035D01*
X123143841Y-132198315D01*
X123190000Y-132207000D01*
X131445000Y-132207000D01*
X131494410Y-132196994D01*
X131536035Y-132168553D01*
X131563315Y-132126159D01*
X131572000Y-132080000D01*
X131572000Y-128950750D01*
X133595000Y-128950750D01*
X133595000Y-129541310D01*
X133691673Y-129774699D01*
X133870302Y-129953327D01*
X134103691Y-130050000D01*
X134944250Y-130050000D01*
X135103000Y-129891250D01*
X135103000Y-128792000D01*
X135357000Y-128792000D01*
X135357000Y-129891250D01*
X135515750Y-130050000D01*
X136356309Y-130050000D01*
X136589698Y-129953327D01*
X136670280Y-129872745D01*
X141411861Y-129872745D01*
X141485995Y-130118864D01*
X142023223Y-130311965D01*
X142593454Y-130284778D01*
X142994005Y-130118864D01*
X143068139Y-129872745D01*
X142240000Y-129044605D01*
X141411861Y-129872745D01*
X136670280Y-129872745D01*
X136768327Y-129774699D01*
X136865000Y-129541310D01*
X136865000Y-128950750D01*
X136706250Y-128792000D01*
X135357000Y-128792000D01*
X135103000Y-128792000D01*
X133753750Y-128792000D01*
X133595000Y-128950750D01*
X131572000Y-128950750D01*
X131572000Y-128648223D01*
X140793035Y-128648223D01*
X140820222Y-129218454D01*
X140986136Y-129619005D01*
X141232255Y-129693139D01*
X142060395Y-128865000D01*
X142419605Y-128865000D01*
X143247745Y-129693139D01*
X143493864Y-129619005D01*
X143686965Y-129081777D01*
X143659778Y-128511546D01*
X143493864Y-128110995D01*
X143247745Y-128036861D01*
X142419605Y-128865000D01*
X142060395Y-128865000D01*
X141232255Y-128036861D01*
X140986136Y-128110995D01*
X140793035Y-128648223D01*
X131572000Y-128648223D01*
X131572000Y-121889916D01*
X132999544Y-124388118D01*
X133098570Y-124502054D01*
X133182434Y-124627566D01*
X133242592Y-124667762D01*
X133290054Y-124722371D01*
X133425142Y-124789738D01*
X133550654Y-124873603D01*
X133595256Y-124882475D01*
X133626838Y-125050317D01*
X133733759Y-125216477D01*
X133633569Y-125363110D01*
X133582560Y-125615000D01*
X133582560Y-127115000D01*
X133626838Y-127350317D01*
X133732482Y-127514492D01*
X133691673Y-127555301D01*
X133595000Y-127788690D01*
X133595000Y-128379250D01*
X133753750Y-128538000D01*
X135103000Y-128538000D01*
X135103000Y-128518000D01*
X135357000Y-128518000D01*
X135357000Y-128538000D01*
X136706250Y-128538000D01*
X136865000Y-128379250D01*
X136865000Y-127788690D01*
X136768327Y-127555301D01*
X136726366Y-127513340D01*
X136826431Y-127366890D01*
X136850102Y-127250000D01*
X140808554Y-127250000D01*
X140836838Y-127400317D01*
X140975910Y-127616441D01*
X141188110Y-127761431D01*
X141426201Y-127809646D01*
X141411861Y-127857255D01*
X142240000Y-128685395D01*
X143068139Y-127857255D01*
X143053855Y-127809833D01*
X143275317Y-127768162D01*
X143491441Y-127629090D01*
X143636431Y-127416890D01*
X143670227Y-127250000D01*
X146435000Y-127250000D01*
X146435000Y-129539995D01*
X146434999Y-129540000D01*
X146481685Y-129774699D01*
X146502367Y-129878675D01*
X146616842Y-130050000D01*
X146694210Y-130165790D01*
X149803421Y-133275000D01*
X107390000Y-133275000D01*
X107390000Y-121644026D01*
X113458642Y-121644026D01*
X113480473Y-121741157D01*
X113764127Y-122254868D01*
X114222778Y-122620925D01*
X114786600Y-122783600D01*
X115443000Y-122783600D01*
X115443000Y-121412000D01*
X115697000Y-121412000D01*
X115697000Y-122783600D01*
X116353400Y-122783600D01*
X116917222Y-122620925D01*
X117375873Y-122254868D01*
X117659527Y-121741157D01*
X117681358Y-121644026D01*
X117560217Y-121412000D01*
X115697000Y-121412000D01*
X115443000Y-121412000D01*
X113579783Y-121412000D01*
X113458642Y-121644026D01*
X107390000Y-121644026D01*
X107390000Y-105373691D01*
X127555000Y-105373691D01*
X127555000Y-106164250D01*
X127713750Y-106323000D01*
X128463000Y-106323000D01*
X128463000Y-105023750D01*
X128304250Y-104865000D01*
X128063690Y-104865000D01*
X127830301Y-104961673D01*
X127651673Y-105140302D01*
X127555000Y-105373691D01*
X107390000Y-105373691D01*
X107390000Y-101675000D01*
X134563421Y-101675000D01*
X131256525Y-104981896D01*
X131256525Y-104981896D01*
G37*
X131256525Y-104981896D02*
X131141890Y-104903569D01*
X130890000Y-104852560D01*
X130090000Y-104852560D01*
X129854683Y-104896838D01*
X129638559Y-105035910D01*
X129543010Y-105175750D01*
X129528327Y-105140302D01*
X129349699Y-104961673D01*
X129116310Y-104865000D01*
X128875750Y-104865000D01*
X128717000Y-105023750D01*
X128717000Y-106323000D01*
X128737000Y-106323000D01*
X128737000Y-106577000D01*
X128717000Y-106577000D01*
X128717000Y-106597000D01*
X128463000Y-106597000D01*
X128463000Y-106577000D01*
X127713750Y-106577000D01*
X127555000Y-106735750D01*
X127555000Y-107526309D01*
X127651673Y-107759698D01*
X127714975Y-107823000D01*
X123190000Y-107823000D01*
X123140590Y-107833006D01*
X123098965Y-107861447D01*
X123071685Y-107903841D01*
X123063000Y-107950000D01*
X123063000Y-112821868D01*
X120814868Y-115070000D01*
X117421298Y-115070000D01*
X117541441Y-114992690D01*
X117686431Y-114780490D01*
X117737440Y-114528600D01*
X117737440Y-112801400D01*
X117693162Y-112566083D01*
X117554090Y-112349959D01*
X117341890Y-112204969D01*
X117090000Y-112153960D01*
X114050000Y-112153960D01*
X113814683Y-112198238D01*
X113598559Y-112337310D01*
X113453569Y-112549510D01*
X113402560Y-112801400D01*
X113402560Y-113322526D01*
X112400415Y-113990623D01*
X112320869Y-114070002D01*
X112227434Y-114132434D01*
X112165655Y-114224892D01*
X112086942Y-114303441D01*
X112043829Y-114407218D01*
X111981397Y-114500654D01*
X111959703Y-114609717D01*
X111917041Y-114712408D01*
X111916924Y-114824783D01*
X111895000Y-114935000D01*
X111895000Y-117475000D01*
X111981397Y-117909346D01*
X112211729Y-118254062D01*
X112227434Y-118277566D01*
X113497434Y-119547566D01*
X113754843Y-119719562D01*
X113811711Y-119804670D01*
X114133941Y-120019977D01*
X113764127Y-120315132D01*
X113480473Y-120828843D01*
X113458642Y-120925974D01*
X113579783Y-121158000D01*
X115443000Y-121158000D01*
X115443000Y-121138000D01*
X115697000Y-121138000D01*
X115697000Y-121158000D01*
X117560217Y-121158000D01*
X117681358Y-120925974D01*
X117659527Y-120828843D01*
X117375873Y-120315132D01*
X117006059Y-120019977D01*
X117215550Y-119880000D01*
X129915394Y-119880000D01*
X129996077Y-119960824D01*
X130523309Y-120179750D01*
X130594798Y-120179812D01*
X130790905Y-120523000D01*
X123190000Y-120523000D01*
X123140590Y-120533006D01*
X123098965Y-120561447D01*
X123071685Y-120603841D01*
X123063000Y-120650000D01*
X123063000Y-132080000D01*
X123073006Y-132129410D01*
X123101447Y-132171035D01*
X123143841Y-132198315D01*
X123190000Y-132207000D01*
X131445000Y-132207000D01*
X131494410Y-132196994D01*
X131536035Y-132168553D01*
X131563315Y-132126159D01*
X131572000Y-132080000D01*
X131572000Y-128950750D01*
X133595000Y-128950750D01*
X133595000Y-129541310D01*
X133691673Y-129774699D01*
X133870302Y-129953327D01*
X134103691Y-130050000D01*
X134944250Y-130050000D01*
X135103000Y-129891250D01*
X135103000Y-128792000D01*
X135357000Y-128792000D01*
X135357000Y-129891250D01*
X135515750Y-130050000D01*
X136356309Y-130050000D01*
X136589698Y-129953327D01*
X136670280Y-129872745D01*
X141411861Y-129872745D01*
X141485995Y-130118864D01*
X142023223Y-130311965D01*
X142593454Y-130284778D01*
X142994005Y-130118864D01*
X143068139Y-129872745D01*
X142240000Y-129044605D01*
X141411861Y-129872745D01*
X136670280Y-129872745D01*
X136768327Y-129774699D01*
X136865000Y-129541310D01*
X136865000Y-128950750D01*
X136706250Y-128792000D01*
X135357000Y-128792000D01*
X135103000Y-128792000D01*
X133753750Y-128792000D01*
X133595000Y-128950750D01*
X131572000Y-128950750D01*
X131572000Y-128648223D01*
X140793035Y-128648223D01*
X140820222Y-129218454D01*
X140986136Y-129619005D01*
X141232255Y-129693139D01*
X142060395Y-128865000D01*
X142419605Y-128865000D01*
X143247745Y-129693139D01*
X143493864Y-129619005D01*
X143686965Y-129081777D01*
X143659778Y-128511546D01*
X143493864Y-128110995D01*
X143247745Y-128036861D01*
X142419605Y-128865000D01*
X142060395Y-128865000D01*
X141232255Y-128036861D01*
X140986136Y-128110995D01*
X140793035Y-128648223D01*
X131572000Y-128648223D01*
X131572000Y-121889916D01*
X132999544Y-124388118D01*
X133098570Y-124502054D01*
X133182434Y-124627566D01*
X133242592Y-124667762D01*
X133290054Y-124722371D01*
X133425142Y-124789738D01*
X133550654Y-124873603D01*
X133595256Y-124882475D01*
X133626838Y-125050317D01*
X133733759Y-125216477D01*
X133633569Y-125363110D01*
X133582560Y-125615000D01*
X133582560Y-127115000D01*
X133626838Y-127350317D01*
X133732482Y-127514492D01*
X133691673Y-127555301D01*
X133595000Y-127788690D01*
X133595000Y-128379250D01*
X133753750Y-128538000D01*
X135103000Y-128538000D01*
X135103000Y-128518000D01*
X135357000Y-128518000D01*
X135357000Y-128538000D01*
X136706250Y-128538000D01*
X136865000Y-128379250D01*
X136865000Y-127788690D01*
X136768327Y-127555301D01*
X136726366Y-127513340D01*
X136826431Y-127366890D01*
X136850102Y-127250000D01*
X140808554Y-127250000D01*
X140836838Y-127400317D01*
X140975910Y-127616441D01*
X141188110Y-127761431D01*
X141426201Y-127809646D01*
X141411861Y-127857255D01*
X142240000Y-128685395D01*
X143068139Y-127857255D01*
X143053855Y-127809833D01*
X143275317Y-127768162D01*
X143491441Y-127629090D01*
X143636431Y-127416890D01*
X143670227Y-127250000D01*
X146435000Y-127250000D01*
X146435000Y-129539995D01*
X146434999Y-129540000D01*
X146481685Y-129774699D01*
X146502367Y-129878675D01*
X146616842Y-130050000D01*
X146694210Y-130165790D01*
X149803421Y-133275000D01*
X107390000Y-133275000D01*
X107390000Y-121644026D01*
X113458642Y-121644026D01*
X113480473Y-121741157D01*
X113764127Y-122254868D01*
X114222778Y-122620925D01*
X114786600Y-122783600D01*
X115443000Y-122783600D01*
X115443000Y-121412000D01*
X115697000Y-121412000D01*
X115697000Y-122783600D01*
X116353400Y-122783600D01*
X116917222Y-122620925D01*
X117375873Y-122254868D01*
X117659527Y-121741157D01*
X117681358Y-121644026D01*
X117560217Y-121412000D01*
X115697000Y-121412000D01*
X115443000Y-121412000D01*
X113579783Y-121412000D01*
X113458642Y-121644026D01*
X107390000Y-121644026D01*
X107390000Y-105373691D01*
X127555000Y-105373691D01*
X127555000Y-106164250D01*
X127713750Y-106323000D01*
X128463000Y-106323000D01*
X128463000Y-105023750D01*
X128304250Y-104865000D01*
X128063690Y-104865000D01*
X127830301Y-104961673D01*
X127651673Y-105140302D01*
X127555000Y-105373691D01*
X107390000Y-105373691D01*
X107390000Y-101675000D01*
X134563421Y-101675000D01*
X131256525Y-104981896D01*
G36*
X174375000Y-105200353D02*
X174375000Y-121285000D01*
X174442367Y-121623675D01*
X174634210Y-121910790D01*
X174921325Y-122102633D01*
X175260000Y-122170000D01*
X176670527Y-122170000D01*
X176757189Y-122299698D01*
X177139275Y-122555000D01*
X176757189Y-122810302D01*
X176446120Y-123275849D01*
X176336887Y-123825000D01*
X176446120Y-124374151D01*
X176757189Y-124839698D01*
X177139275Y-125095000D01*
X176757189Y-125350302D01*
X176446120Y-125815849D01*
X176336887Y-126365000D01*
X176446120Y-126914151D01*
X176757189Y-127379698D01*
X176901465Y-127476101D01*
X176764683Y-127501838D01*
X176548559Y-127640910D01*
X176403569Y-127853110D01*
X176352560Y-128105000D01*
X176352560Y-129705000D01*
X176357447Y-129730973D01*
X174258420Y-131830000D01*
X160905000Y-131830000D01*
X160905000Y-129190750D01*
X162345000Y-129190750D01*
X162345000Y-129881310D01*
X162441673Y-130114699D01*
X162620302Y-130293327D01*
X162853691Y-130390000D01*
X163544250Y-130390000D01*
X163703000Y-130231250D01*
X163703000Y-129032000D01*
X163957000Y-129032000D01*
X163957000Y-130231250D01*
X164115750Y-130390000D01*
X164806309Y-130390000D01*
X165039698Y-130293327D01*
X165218327Y-130114699D01*
X165315000Y-129881310D01*
X165315000Y-129254039D01*
X168788096Y-129254039D01*
X168948959Y-129642423D01*
X169324866Y-130057389D01*
X169830959Y-130296914D01*
X170053000Y-130175629D01*
X170053000Y-129032000D01*
X170307000Y-129032000D01*
X170307000Y-130175629D01*
X170529041Y-130296914D01*
X171035134Y-130057389D01*
X171411041Y-129642423D01*
X171571904Y-129254039D01*
X171449915Y-129032000D01*
X170307000Y-129032000D01*
X170053000Y-129032000D01*
X168910085Y-129032000D01*
X168788096Y-129254039D01*
X165315000Y-129254039D01*
X165315000Y-129190750D01*
X165156250Y-129032000D01*
X163957000Y-129032000D01*
X163703000Y-129032000D01*
X162503750Y-129032000D01*
X162345000Y-129190750D01*
X160905000Y-129190750D01*
X160905000Y-128636580D01*
X162291579Y-127250000D01*
X162640568Y-127250000D01*
X162750853Y-127415054D01*
X162794777Y-127444403D01*
X162620302Y-127516673D01*
X162441673Y-127695301D01*
X162345000Y-127928690D01*
X162345000Y-128619250D01*
X162503750Y-128778000D01*
X163703000Y-128778000D01*
X163703000Y-128758000D01*
X163957000Y-128758000D01*
X163957000Y-128778000D01*
X165156250Y-128778000D01*
X165315000Y-128619250D01*
X165315000Y-127928690D01*
X165218327Y-127695301D01*
X165039698Y-127516673D01*
X164865223Y-127444403D01*
X164909147Y-127415054D01*
X165231054Y-126933285D01*
X165344093Y-126365000D01*
X165231054Y-125796715D01*
X164909147Y-125314946D01*
X164579974Y-125095000D01*
X164909147Y-124875054D01*
X165231054Y-124393285D01*
X165344093Y-123825000D01*
X165231054Y-123256715D01*
X164909147Y-122774946D01*
X164427378Y-122453039D01*
X163859093Y-122340000D01*
X163800907Y-122340000D01*
X163232622Y-122453039D01*
X162750853Y-122774946D01*
X162428946Y-123256715D01*
X162315907Y-123825000D01*
X162428946Y-124393285D01*
X162750853Y-124875054D01*
X163080026Y-125095000D01*
X162750853Y-125314946D01*
X162640568Y-125480000D01*
X161925005Y-125480000D01*
X161925000Y-125479999D01*
X161642516Y-125536190D01*
X161586325Y-125547367D01*
X161299210Y-125739210D01*
X161299208Y-125739213D01*
X159394210Y-127644210D01*
X159202367Y-127931325D01*
X159202367Y-127931326D01*
X159134999Y-128270000D01*
X159135000Y-128270005D01*
X159135000Y-131830000D01*
X150861579Y-131830000D01*
X148222330Y-129190750D01*
X154725000Y-129190750D01*
X154725000Y-129881310D01*
X154821673Y-130114699D01*
X155000302Y-130293327D01*
X155233691Y-130390000D01*
X155924250Y-130390000D01*
X156083000Y-130231250D01*
X156083000Y-129032000D01*
X156337000Y-129032000D01*
X156337000Y-130231250D01*
X156495750Y-130390000D01*
X157186309Y-130390000D01*
X157419698Y-130293327D01*
X157598327Y-130114699D01*
X157695000Y-129881310D01*
X157695000Y-129190750D01*
X157536250Y-129032000D01*
X156337000Y-129032000D01*
X156083000Y-129032000D01*
X154883750Y-129032000D01*
X154725000Y-129190750D01*
X148222330Y-129190750D01*
X148205000Y-129173420D01*
X148205000Y-122170000D01*
X155020568Y-122170000D01*
X155130853Y-122335054D01*
X155460026Y-122555000D01*
X155130853Y-122774946D01*
X154808946Y-123256715D01*
X154695907Y-123825000D01*
X154808946Y-124393285D01*
X155130853Y-124875054D01*
X155460026Y-125095000D01*
X155130853Y-125314946D01*
X154808946Y-125796715D01*
X154695907Y-126365000D01*
X154808946Y-126933285D01*
X155130853Y-127415054D01*
X155174777Y-127444403D01*
X155000302Y-127516673D01*
X154821673Y-127695301D01*
X154725000Y-127928690D01*
X154725000Y-128619250D01*
X154883750Y-128778000D01*
X156083000Y-128778000D01*
X156083000Y-128758000D01*
X156337000Y-128758000D01*
X156337000Y-128778000D01*
X157536250Y-128778000D01*
X157695000Y-128619250D01*
X157695000Y-127928690D01*
X157598327Y-127695301D01*
X157419698Y-127516673D01*
X157245223Y-127444403D01*
X157289147Y-127415054D01*
X157611054Y-126933285D01*
X157724093Y-126365000D01*
X157611054Y-125796715D01*
X157289147Y-125314946D01*
X156959974Y-125095000D01*
X157289147Y-124875054D01*
X157611054Y-124393285D01*
X157724093Y-123825000D01*
X157611054Y-123256715D01*
X157289147Y-122774946D01*
X156959974Y-122555000D01*
X157289147Y-122335054D01*
X157611054Y-121853285D01*
X157724093Y-121285000D01*
X157611054Y-120716715D01*
X157289147Y-120234946D01*
X156807378Y-119913039D01*
X156239093Y-119800000D01*
X156180907Y-119800000D01*
X155612622Y-119913039D01*
X155130853Y-120234946D01*
X155020568Y-120400000D01*
X148205000Y-120400000D01*
X148205000Y-116490750D01*
X150280000Y-116490750D01*
X150280000Y-117181310D01*
X150376673Y-117414699D01*
X150555302Y-117593327D01*
X150788691Y-117690000D01*
X151479250Y-117690000D01*
X151638000Y-117531250D01*
X151638000Y-116332000D01*
X151892000Y-116332000D01*
X151892000Y-117531250D01*
X152050750Y-117690000D01*
X152741309Y-117690000D01*
X152974698Y-117593327D01*
X153153327Y-117414699D01*
X153250000Y-117181310D01*
X153250000Y-116490750D01*
X153091250Y-116332000D01*
X151892000Y-116332000D01*
X151638000Y-116332000D01*
X150438750Y-116332000D01*
X150280000Y-116490750D01*
X148205000Y-116490750D01*
X148205000Y-112010000D01*
X150575568Y-112010000D01*
X150685853Y-112175054D01*
X151015026Y-112395000D01*
X150685853Y-112614946D01*
X150363946Y-113096715D01*
X150250907Y-113665000D01*
X150363946Y-114233285D01*
X150685853Y-114715054D01*
X150729777Y-114744403D01*
X150555302Y-114816673D01*
X150376673Y-114995301D01*
X150280000Y-115228690D01*
X150280000Y-115919250D01*
X150438750Y-116078000D01*
X151638000Y-116078000D01*
X151638000Y-116058000D01*
X151892000Y-116058000D01*
X151892000Y-116078000D01*
X153091250Y-116078000D01*
X153250000Y-115919250D01*
X153250000Y-115228690D01*
X153153327Y-114995301D01*
X152974698Y-114816673D01*
X152800223Y-114744403D01*
X152844147Y-114715054D01*
X153166054Y-114233285D01*
X153279093Y-113665000D01*
X153166054Y-113096715D01*
X152844147Y-112614946D01*
X152514974Y-112395000D01*
X152844147Y-112175054D01*
X153166054Y-111693285D01*
X153279093Y-111125000D01*
X153166054Y-110556715D01*
X152844147Y-110074946D01*
X152362378Y-109753039D01*
X151794093Y-109640000D01*
X151735907Y-109640000D01*
X151167622Y-109753039D01*
X150685853Y-110074946D01*
X150575568Y-110240000D01*
X148155272Y-110240000D01*
X148137633Y-110151325D01*
X148086598Y-110074946D01*
X147945790Y-109864210D01*
X147945787Y-109864208D01*
X144126580Y-106045000D01*
X168716887Y-106045000D01*
X168826120Y-106594151D01*
X169137189Y-107059698D01*
X169519275Y-107315000D01*
X169137189Y-107570302D01*
X168826120Y-108035849D01*
X168716887Y-108585000D01*
X168826120Y-109134151D01*
X169137189Y-109599698D01*
X169519275Y-109855000D01*
X169137189Y-110110302D01*
X168826120Y-110575849D01*
X168716887Y-111125000D01*
X168826120Y-111674151D01*
X169137189Y-112139698D01*
X169519275Y-112395000D01*
X169137189Y-112650302D01*
X168826120Y-113115849D01*
X168716887Y-113665000D01*
X168826120Y-114214151D01*
X169137189Y-114679698D01*
X169519275Y-114935000D01*
X169137189Y-115190302D01*
X168826120Y-115655849D01*
X168716887Y-116205000D01*
X168826120Y-116754151D01*
X169137189Y-117219698D01*
X169519275Y-117475000D01*
X169137189Y-117730302D01*
X168826120Y-118195849D01*
X168716887Y-118745000D01*
X168826120Y-119294151D01*
X169137189Y-119759698D01*
X169519275Y-120015000D01*
X169137189Y-120270302D01*
X168826120Y-120735849D01*
X168716887Y-121285000D01*
X168826120Y-121834151D01*
X169137189Y-122299698D01*
X169519275Y-122555000D01*
X169137189Y-122810302D01*
X168826120Y-123275849D01*
X168716887Y-123825000D01*
X168826120Y-124374151D01*
X169137189Y-124839698D01*
X169519275Y-125095000D01*
X169137189Y-125350302D01*
X168826120Y-125815849D01*
X168716887Y-126365000D01*
X168826120Y-126914151D01*
X169137189Y-127379698D01*
X169541703Y-127649986D01*
X169324866Y-127752611D01*
X168948959Y-128167577D01*
X168788096Y-128555961D01*
X168910085Y-128778000D01*
X170053000Y-128778000D01*
X170053000Y-128758000D01*
X170307000Y-128758000D01*
X170307000Y-128778000D01*
X171449915Y-128778000D01*
X171571904Y-128555961D01*
X171411041Y-128167577D01*
X171035134Y-127752611D01*
X170818297Y-127649986D01*
X171222811Y-127379698D01*
X171533880Y-126914151D01*
X171643113Y-126365000D01*
X171533880Y-125815849D01*
X171222811Y-125350302D01*
X170840725Y-125095000D01*
X171222811Y-124839698D01*
X171533880Y-124374151D01*
X171643113Y-123825000D01*
X171533880Y-123275849D01*
X171222811Y-122810302D01*
X170840725Y-122555000D01*
X171222811Y-122299698D01*
X171533880Y-121834151D01*
X171643113Y-121285000D01*
X171533880Y-120735849D01*
X171222811Y-120270302D01*
X170840725Y-120015000D01*
X171222811Y-119759698D01*
X171533880Y-119294151D01*
X171643113Y-118745000D01*
X171533880Y-118195849D01*
X171222811Y-117730302D01*
X170840725Y-117475000D01*
X171222811Y-117219698D01*
X171533880Y-116754151D01*
X171643113Y-116205000D01*
X171533880Y-115655849D01*
X171222811Y-115190302D01*
X170840725Y-114935000D01*
X171222811Y-114679698D01*
X171533880Y-114214151D01*
X171643113Y-113665000D01*
X171533880Y-113115849D01*
X171222811Y-112650302D01*
X170840725Y-112395000D01*
X171222811Y-112139698D01*
X171533880Y-111674151D01*
X171643113Y-111125000D01*
X171533880Y-110575849D01*
X171222811Y-110110302D01*
X170840725Y-109855000D01*
X171222811Y-109599698D01*
X171533880Y-109134151D01*
X171643113Y-108585000D01*
X171533880Y-108035849D01*
X171222811Y-107570302D01*
X170840725Y-107315000D01*
X171222811Y-107059698D01*
X171533880Y-106594151D01*
X171643113Y-106045000D01*
X171533880Y-105495849D01*
X171222811Y-105030302D01*
X170757264Y-104719233D01*
X170208113Y-104610000D01*
X170151887Y-104610000D01*
X169602736Y-104719233D01*
X169137189Y-105030302D01*
X168826120Y-105495849D01*
X168716887Y-106045000D01*
X144126580Y-106045000D01*
X143661603Y-105580023D01*
X143641054Y-105476715D01*
X143319147Y-104994946D01*
X142837378Y-104673039D01*
X142269093Y-104560000D01*
X142210907Y-104560000D01*
X141642622Y-104673039D01*
X141160853Y-104994946D01*
X140838946Y-105476715D01*
X140725907Y-106045000D01*
X140838946Y-106613285D01*
X141160853Y-107095054D01*
X141490026Y-107315000D01*
X141160853Y-107534946D01*
X140838946Y-108016715D01*
X140725907Y-108585000D01*
X140838946Y-109153285D01*
X141160853Y-109635054D01*
X141204777Y-109664403D01*
X141030302Y-109736673D01*
X140851673Y-109915301D01*
X140755000Y-110148690D01*
X140755000Y-110839250D01*
X140913750Y-110998000D01*
X142113000Y-110998000D01*
X142113000Y-110978000D01*
X142367000Y-110978000D01*
X142367000Y-110998000D01*
X143566250Y-110998000D01*
X143725000Y-110839250D01*
X143725000Y-110148690D01*
X143628327Y-109915301D01*
X143449698Y-109736673D01*
X143275223Y-109664403D01*
X143319147Y-109635054D01*
X143641054Y-109153285D01*
X143754093Y-108585000D01*
X143652456Y-108074035D01*
X146435000Y-110856579D01*
X146435000Y-125480000D01*
X143671446Y-125480000D01*
X143643162Y-125329683D01*
X143504090Y-125113559D01*
X143291890Y-124968569D01*
X143040000Y-124917560D01*
X141440000Y-124917560D01*
X141204683Y-124961838D01*
X140988559Y-125100910D01*
X140843569Y-125313110D01*
X140809773Y-125480000D01*
X136852038Y-125480000D01*
X136833162Y-125379683D01*
X136726241Y-125213523D01*
X136826431Y-125066890D01*
X136877440Y-124815000D01*
X136877440Y-123315000D01*
X136833162Y-123079683D01*
X136694090Y-122863559D01*
X136481890Y-122718569D01*
X136230000Y-122667560D01*
X134630843Y-122667560D01*
X132965235Y-119752745D01*
X134981861Y-119752745D01*
X135055995Y-119998864D01*
X135593223Y-120191965D01*
X136163454Y-120164778D01*
X136564005Y-119998864D01*
X136638139Y-119752745D01*
X135810000Y-118924605D01*
X134981861Y-119752745D01*
X132965235Y-119752745D01*
X132430456Y-118816882D01*
X132331431Y-118702946D01*
X132247566Y-118577434D01*
X132245148Y-118575016D01*
X132245188Y-118528223D01*
X134363035Y-118528223D01*
X134390222Y-119098454D01*
X134556136Y-119499005D01*
X134802255Y-119573139D01*
X135630395Y-118745000D01*
X135989605Y-118745000D01*
X136817745Y-119573139D01*
X137063864Y-119499005D01*
X137256965Y-118961777D01*
X137229778Y-118391546D01*
X137063864Y-117990995D01*
X136817745Y-117916861D01*
X135989605Y-118745000D01*
X135630395Y-118745000D01*
X134802255Y-117916861D01*
X134556136Y-117990995D01*
X134363035Y-118528223D01*
X132245188Y-118528223D01*
X132245248Y-118460813D01*
X132027243Y-117933200D01*
X131831640Y-117737255D01*
X134981861Y-117737255D01*
X135810000Y-118565395D01*
X136638139Y-117737255D01*
X136564005Y-117491136D01*
X136026777Y-117298035D01*
X135456546Y-117325222D01*
X135055995Y-117491136D01*
X134981861Y-117737255D01*
X131831640Y-117737255D01*
X131623923Y-117529176D01*
X131096691Y-117310250D01*
X130525813Y-117309752D01*
X129998200Y-117527757D01*
X129915813Y-117610000D01*
X117215550Y-117610000D01*
X117013508Y-117475000D01*
X117215550Y-117340000D01*
X121285000Y-117340000D01*
X121719346Y-117253603D01*
X122087566Y-117007566D01*
X125303132Y-113792000D01*
X135890000Y-113792000D01*
X135939410Y-113781994D01*
X135981035Y-113753553D01*
X136008315Y-113711159D01*
X136017000Y-113665000D01*
X136017000Y-111410750D01*
X140755000Y-111410750D01*
X140755000Y-112101310D01*
X140851673Y-112334699D01*
X141030302Y-112513327D01*
X141263691Y-112610000D01*
X141954250Y-112610000D01*
X142113000Y-112451250D01*
X142113000Y-111252000D01*
X142367000Y-111252000D01*
X142367000Y-112451250D01*
X142525750Y-112610000D01*
X143216309Y-112610000D01*
X143449698Y-112513327D01*
X143628327Y-112334699D01*
X143725000Y-112101310D01*
X143725000Y-111410750D01*
X143566250Y-111252000D01*
X142367000Y-111252000D01*
X142113000Y-111252000D01*
X140913750Y-111252000D01*
X140755000Y-111410750D01*
X136017000Y-111410750D01*
X136017000Y-107950000D01*
X136006994Y-107900590D01*
X135978553Y-107858965D01*
X135936159Y-107831685D01*
X135890000Y-107823000D01*
X131369517Y-107823000D01*
X131486431Y-107651890D01*
X131537440Y-107400000D01*
X131537440Y-107204140D01*
X135621579Y-103120000D01*
X171774559Y-103120000D01*
X174375000Y-105200353D01*
X174375000Y-105200353D01*
G37*
X174375000Y-105200353D02*
X174375000Y-121285000D01*
X174442367Y-121623675D01*
X174634210Y-121910790D01*
X174921325Y-122102633D01*
X175260000Y-122170000D01*
X176670527Y-122170000D01*
X176757189Y-122299698D01*
X177139275Y-122555000D01*
X176757189Y-122810302D01*
X176446120Y-123275849D01*
X176336887Y-123825000D01*
X176446120Y-124374151D01*
X176757189Y-124839698D01*
X177139275Y-125095000D01*
X176757189Y-125350302D01*
X176446120Y-125815849D01*
X176336887Y-126365000D01*
X176446120Y-126914151D01*
X176757189Y-127379698D01*
X176901465Y-127476101D01*
X176764683Y-127501838D01*
X176548559Y-127640910D01*
X176403569Y-127853110D01*
X176352560Y-128105000D01*
X176352560Y-129705000D01*
X176357447Y-129730973D01*
X174258420Y-131830000D01*
X160905000Y-131830000D01*
X160905000Y-129190750D01*
X162345000Y-129190750D01*
X162345000Y-129881310D01*
X162441673Y-130114699D01*
X162620302Y-130293327D01*
X162853691Y-130390000D01*
X163544250Y-130390000D01*
X163703000Y-130231250D01*
X163703000Y-129032000D01*
X163957000Y-129032000D01*
X163957000Y-130231250D01*
X164115750Y-130390000D01*
X164806309Y-130390000D01*
X165039698Y-130293327D01*
X165218327Y-130114699D01*
X165315000Y-129881310D01*
X165315000Y-129254039D01*
X168788096Y-129254039D01*
X168948959Y-129642423D01*
X169324866Y-130057389D01*
X169830959Y-130296914D01*
X170053000Y-130175629D01*
X170053000Y-129032000D01*
X170307000Y-129032000D01*
X170307000Y-130175629D01*
X170529041Y-130296914D01*
X171035134Y-130057389D01*
X171411041Y-129642423D01*
X171571904Y-129254039D01*
X171449915Y-129032000D01*
X170307000Y-129032000D01*
X170053000Y-129032000D01*
X168910085Y-129032000D01*
X168788096Y-129254039D01*
X165315000Y-129254039D01*
X165315000Y-129190750D01*
X165156250Y-129032000D01*
X163957000Y-129032000D01*
X163703000Y-129032000D01*
X162503750Y-129032000D01*
X162345000Y-129190750D01*
X160905000Y-129190750D01*
X160905000Y-128636580D01*
X162291579Y-127250000D01*
X162640568Y-127250000D01*
X162750853Y-127415054D01*
X162794777Y-127444403D01*
X162620302Y-127516673D01*
X162441673Y-127695301D01*
X162345000Y-127928690D01*
X162345000Y-128619250D01*
X162503750Y-128778000D01*
X163703000Y-128778000D01*
X163703000Y-128758000D01*
X163957000Y-128758000D01*
X163957000Y-128778000D01*
X165156250Y-128778000D01*
X165315000Y-128619250D01*
X165315000Y-127928690D01*
X165218327Y-127695301D01*
X165039698Y-127516673D01*
X164865223Y-127444403D01*
X164909147Y-127415054D01*
X165231054Y-126933285D01*
X165344093Y-126365000D01*
X165231054Y-125796715D01*
X164909147Y-125314946D01*
X164579974Y-125095000D01*
X164909147Y-124875054D01*
X165231054Y-124393285D01*
X165344093Y-123825000D01*
X165231054Y-123256715D01*
X164909147Y-122774946D01*
X164427378Y-122453039D01*
X163859093Y-122340000D01*
X163800907Y-122340000D01*
X163232622Y-122453039D01*
X162750853Y-122774946D01*
X162428946Y-123256715D01*
X162315907Y-123825000D01*
X162428946Y-124393285D01*
X162750853Y-124875054D01*
X163080026Y-125095000D01*
X162750853Y-125314946D01*
X162640568Y-125480000D01*
X161925005Y-125480000D01*
X161925000Y-125479999D01*
X161642516Y-125536190D01*
X161586325Y-125547367D01*
X161299210Y-125739210D01*
X161299208Y-125739213D01*
X159394210Y-127644210D01*
X159202367Y-127931325D01*
X159202367Y-127931326D01*
X159134999Y-128270000D01*
X159135000Y-128270005D01*
X159135000Y-131830000D01*
X150861579Y-131830000D01*
X148222330Y-129190750D01*
X154725000Y-129190750D01*
X154725000Y-129881310D01*
X154821673Y-130114699D01*
X155000302Y-130293327D01*
X155233691Y-130390000D01*
X155924250Y-130390000D01*
X156083000Y-130231250D01*
X156083000Y-129032000D01*
X156337000Y-129032000D01*
X156337000Y-130231250D01*
X156495750Y-130390000D01*
X157186309Y-130390000D01*
X157419698Y-130293327D01*
X157598327Y-130114699D01*
X157695000Y-129881310D01*
X157695000Y-129190750D01*
X157536250Y-129032000D01*
X156337000Y-129032000D01*
X156083000Y-129032000D01*
X154883750Y-129032000D01*
X154725000Y-129190750D01*
X148222330Y-129190750D01*
X148205000Y-129173420D01*
X148205000Y-122170000D01*
X155020568Y-122170000D01*
X155130853Y-122335054D01*
X155460026Y-122555000D01*
X155130853Y-122774946D01*
X154808946Y-123256715D01*
X154695907Y-123825000D01*
X154808946Y-124393285D01*
X155130853Y-124875054D01*
X155460026Y-125095000D01*
X155130853Y-125314946D01*
X154808946Y-125796715D01*
X154695907Y-126365000D01*
X154808946Y-126933285D01*
X155130853Y-127415054D01*
X155174777Y-127444403D01*
X155000302Y-127516673D01*
X154821673Y-127695301D01*
X154725000Y-127928690D01*
X154725000Y-128619250D01*
X154883750Y-128778000D01*
X156083000Y-128778000D01*
X156083000Y-128758000D01*
X156337000Y-128758000D01*
X156337000Y-128778000D01*
X157536250Y-128778000D01*
X157695000Y-128619250D01*
X157695000Y-127928690D01*
X157598327Y-127695301D01*
X157419698Y-127516673D01*
X157245223Y-127444403D01*
X157289147Y-127415054D01*
X157611054Y-126933285D01*
X157724093Y-126365000D01*
X157611054Y-125796715D01*
X157289147Y-125314946D01*
X156959974Y-125095000D01*
X157289147Y-124875054D01*
X157611054Y-124393285D01*
X157724093Y-123825000D01*
X157611054Y-123256715D01*
X157289147Y-122774946D01*
X156959974Y-122555000D01*
X157289147Y-122335054D01*
X157611054Y-121853285D01*
X157724093Y-121285000D01*
X157611054Y-120716715D01*
X157289147Y-120234946D01*
X156807378Y-119913039D01*
X156239093Y-119800000D01*
X156180907Y-119800000D01*
X155612622Y-119913039D01*
X155130853Y-120234946D01*
X155020568Y-120400000D01*
X148205000Y-120400000D01*
X148205000Y-116490750D01*
X150280000Y-116490750D01*
X150280000Y-117181310D01*
X150376673Y-117414699D01*
X150555302Y-117593327D01*
X150788691Y-117690000D01*
X151479250Y-117690000D01*
X151638000Y-117531250D01*
X151638000Y-116332000D01*
X151892000Y-116332000D01*
X151892000Y-117531250D01*
X152050750Y-117690000D01*
X152741309Y-117690000D01*
X152974698Y-117593327D01*
X153153327Y-117414699D01*
X153250000Y-117181310D01*
X153250000Y-116490750D01*
X153091250Y-116332000D01*
X151892000Y-116332000D01*
X151638000Y-116332000D01*
X150438750Y-116332000D01*
X150280000Y-116490750D01*
X148205000Y-116490750D01*
X148205000Y-112010000D01*
X150575568Y-112010000D01*
X150685853Y-112175054D01*
X151015026Y-112395000D01*
X150685853Y-112614946D01*
X150363946Y-113096715D01*
X150250907Y-113665000D01*
X150363946Y-114233285D01*
X150685853Y-114715054D01*
X150729777Y-114744403D01*
X150555302Y-114816673D01*
X150376673Y-114995301D01*
X150280000Y-115228690D01*
X150280000Y-115919250D01*
X150438750Y-116078000D01*
X151638000Y-116078000D01*
X151638000Y-116058000D01*
X151892000Y-116058000D01*
X151892000Y-116078000D01*
X153091250Y-116078000D01*
X153250000Y-115919250D01*
X153250000Y-115228690D01*
X153153327Y-114995301D01*
X152974698Y-114816673D01*
X152800223Y-114744403D01*
X152844147Y-114715054D01*
X153166054Y-114233285D01*
X153279093Y-113665000D01*
X153166054Y-113096715D01*
X152844147Y-112614946D01*
X152514974Y-112395000D01*
X152844147Y-112175054D01*
X153166054Y-111693285D01*
X153279093Y-111125000D01*
X153166054Y-110556715D01*
X152844147Y-110074946D01*
X152362378Y-109753039D01*
X151794093Y-109640000D01*
X151735907Y-109640000D01*
X151167622Y-109753039D01*
X150685853Y-110074946D01*
X150575568Y-110240000D01*
X148155272Y-110240000D01*
X148137633Y-110151325D01*
X148086598Y-110074946D01*
X147945790Y-109864210D01*
X147945787Y-109864208D01*
X144126580Y-106045000D01*
X168716887Y-106045000D01*
X168826120Y-106594151D01*
X169137189Y-107059698D01*
X169519275Y-107315000D01*
X169137189Y-107570302D01*
X168826120Y-108035849D01*
X168716887Y-108585000D01*
X168826120Y-109134151D01*
X169137189Y-109599698D01*
X169519275Y-109855000D01*
X169137189Y-110110302D01*
X168826120Y-110575849D01*
X168716887Y-111125000D01*
X168826120Y-111674151D01*
X169137189Y-112139698D01*
X169519275Y-112395000D01*
X169137189Y-112650302D01*
X168826120Y-113115849D01*
X168716887Y-113665000D01*
X168826120Y-114214151D01*
X169137189Y-114679698D01*
X169519275Y-114935000D01*
X169137189Y-115190302D01*
X168826120Y-115655849D01*
X168716887Y-116205000D01*
X168826120Y-116754151D01*
X169137189Y-117219698D01*
X169519275Y-117475000D01*
X169137189Y-117730302D01*
X168826120Y-118195849D01*
X168716887Y-118745000D01*
X168826120Y-119294151D01*
X169137189Y-119759698D01*
X169519275Y-120015000D01*
X169137189Y-120270302D01*
X168826120Y-120735849D01*
X168716887Y-121285000D01*
X168826120Y-121834151D01*
X169137189Y-122299698D01*
X169519275Y-122555000D01*
X169137189Y-122810302D01*
X168826120Y-123275849D01*
X168716887Y-123825000D01*
X168826120Y-124374151D01*
X169137189Y-124839698D01*
X169519275Y-125095000D01*
X169137189Y-125350302D01*
X168826120Y-125815849D01*
X168716887Y-126365000D01*
X168826120Y-126914151D01*
X169137189Y-127379698D01*
X169541703Y-127649986D01*
X169324866Y-127752611D01*
X168948959Y-128167577D01*
X168788096Y-128555961D01*
X168910085Y-128778000D01*
X170053000Y-128778000D01*
X170053000Y-128758000D01*
X170307000Y-128758000D01*
X170307000Y-128778000D01*
X171449915Y-128778000D01*
X171571904Y-128555961D01*
X171411041Y-128167577D01*
X171035134Y-127752611D01*
X170818297Y-127649986D01*
X171222811Y-127379698D01*
X171533880Y-126914151D01*
X171643113Y-126365000D01*
X171533880Y-125815849D01*
X171222811Y-125350302D01*
X170840725Y-125095000D01*
X171222811Y-124839698D01*
X171533880Y-124374151D01*
X171643113Y-123825000D01*
X171533880Y-123275849D01*
X171222811Y-122810302D01*
X170840725Y-122555000D01*
X171222811Y-122299698D01*
X171533880Y-121834151D01*
X171643113Y-121285000D01*
X171533880Y-120735849D01*
X171222811Y-120270302D01*
X170840725Y-120015000D01*
X171222811Y-119759698D01*
X171533880Y-119294151D01*
X171643113Y-118745000D01*
X171533880Y-118195849D01*
X171222811Y-117730302D01*
X170840725Y-117475000D01*
X171222811Y-117219698D01*
X171533880Y-116754151D01*
X171643113Y-116205000D01*
X171533880Y-115655849D01*
X171222811Y-115190302D01*
X170840725Y-114935000D01*
X171222811Y-114679698D01*
X171533880Y-114214151D01*
X171643113Y-113665000D01*
X171533880Y-113115849D01*
X171222811Y-112650302D01*
X170840725Y-112395000D01*
X171222811Y-112139698D01*
X171533880Y-111674151D01*
X171643113Y-111125000D01*
X171533880Y-110575849D01*
X171222811Y-110110302D01*
X170840725Y-109855000D01*
X171222811Y-109599698D01*
X171533880Y-109134151D01*
X171643113Y-108585000D01*
X171533880Y-108035849D01*
X171222811Y-107570302D01*
X170840725Y-107315000D01*
X171222811Y-107059698D01*
X171533880Y-106594151D01*
X171643113Y-106045000D01*
X171533880Y-105495849D01*
X171222811Y-105030302D01*
X170757264Y-104719233D01*
X170208113Y-104610000D01*
X170151887Y-104610000D01*
X169602736Y-104719233D01*
X169137189Y-105030302D01*
X168826120Y-105495849D01*
X168716887Y-106045000D01*
X144126580Y-106045000D01*
X143661603Y-105580023D01*
X143641054Y-105476715D01*
X143319147Y-104994946D01*
X142837378Y-104673039D01*
X142269093Y-104560000D01*
X142210907Y-104560000D01*
X141642622Y-104673039D01*
X141160853Y-104994946D01*
X140838946Y-105476715D01*
X140725907Y-106045000D01*
X140838946Y-106613285D01*
X141160853Y-107095054D01*
X141490026Y-107315000D01*
X141160853Y-107534946D01*
X140838946Y-108016715D01*
X140725907Y-108585000D01*
X140838946Y-109153285D01*
X141160853Y-109635054D01*
X141204777Y-109664403D01*
X141030302Y-109736673D01*
X140851673Y-109915301D01*
X140755000Y-110148690D01*
X140755000Y-110839250D01*
X140913750Y-110998000D01*
X142113000Y-110998000D01*
X142113000Y-110978000D01*
X142367000Y-110978000D01*
X142367000Y-110998000D01*
X143566250Y-110998000D01*
X143725000Y-110839250D01*
X143725000Y-110148690D01*
X143628327Y-109915301D01*
X143449698Y-109736673D01*
X143275223Y-109664403D01*
X143319147Y-109635054D01*
X143641054Y-109153285D01*
X143754093Y-108585000D01*
X143652456Y-108074035D01*
X146435000Y-110856579D01*
X146435000Y-125480000D01*
X143671446Y-125480000D01*
X143643162Y-125329683D01*
X143504090Y-125113559D01*
X143291890Y-124968569D01*
X143040000Y-124917560D01*
X141440000Y-124917560D01*
X141204683Y-124961838D01*
X140988559Y-125100910D01*
X140843569Y-125313110D01*
X140809773Y-125480000D01*
X136852038Y-125480000D01*
X136833162Y-125379683D01*
X136726241Y-125213523D01*
X136826431Y-125066890D01*
X136877440Y-124815000D01*
X136877440Y-123315000D01*
X136833162Y-123079683D01*
X136694090Y-122863559D01*
X136481890Y-122718569D01*
X136230000Y-122667560D01*
X134630843Y-122667560D01*
X132965235Y-119752745D01*
X134981861Y-119752745D01*
X135055995Y-119998864D01*
X135593223Y-120191965D01*
X136163454Y-120164778D01*
X136564005Y-119998864D01*
X136638139Y-119752745D01*
X135810000Y-118924605D01*
X134981861Y-119752745D01*
X132965235Y-119752745D01*
X132430456Y-118816882D01*
X132331431Y-118702946D01*
X132247566Y-118577434D01*
X132245148Y-118575016D01*
X132245188Y-118528223D01*
X134363035Y-118528223D01*
X134390222Y-119098454D01*
X134556136Y-119499005D01*
X134802255Y-119573139D01*
X135630395Y-118745000D01*
X135989605Y-118745000D01*
X136817745Y-119573139D01*
X137063864Y-119499005D01*
X137256965Y-118961777D01*
X137229778Y-118391546D01*
X137063864Y-117990995D01*
X136817745Y-117916861D01*
X135989605Y-118745000D01*
X135630395Y-118745000D01*
X134802255Y-117916861D01*
X134556136Y-117990995D01*
X134363035Y-118528223D01*
X132245188Y-118528223D01*
X132245248Y-118460813D01*
X132027243Y-117933200D01*
X131831640Y-117737255D01*
X134981861Y-117737255D01*
X135810000Y-118565395D01*
X136638139Y-117737255D01*
X136564005Y-117491136D01*
X136026777Y-117298035D01*
X135456546Y-117325222D01*
X135055995Y-117491136D01*
X134981861Y-117737255D01*
X131831640Y-117737255D01*
X131623923Y-117529176D01*
X131096691Y-117310250D01*
X130525813Y-117309752D01*
X129998200Y-117527757D01*
X129915813Y-117610000D01*
X117215550Y-117610000D01*
X117013508Y-117475000D01*
X117215550Y-117340000D01*
X121285000Y-117340000D01*
X121719346Y-117253603D01*
X122087566Y-117007566D01*
X125303132Y-113792000D01*
X135890000Y-113792000D01*
X135939410Y-113781994D01*
X135981035Y-113753553D01*
X136008315Y-113711159D01*
X136017000Y-113665000D01*
X136017000Y-111410750D01*
X140755000Y-111410750D01*
X140755000Y-112101310D01*
X140851673Y-112334699D01*
X141030302Y-112513327D01*
X141263691Y-112610000D01*
X141954250Y-112610000D01*
X142113000Y-112451250D01*
X142113000Y-111252000D01*
X142367000Y-111252000D01*
X142367000Y-112451250D01*
X142525750Y-112610000D01*
X143216309Y-112610000D01*
X143449698Y-112513327D01*
X143628327Y-112334699D01*
X143725000Y-112101310D01*
X143725000Y-111410750D01*
X143566250Y-111252000D01*
X142367000Y-111252000D01*
X142113000Y-111252000D01*
X140913750Y-111252000D01*
X140755000Y-111410750D01*
X136017000Y-111410750D01*
X136017000Y-107950000D01*
X136006994Y-107900590D01*
X135978553Y-107858965D01*
X135936159Y-107831685D01*
X135890000Y-107823000D01*
X131369517Y-107823000D01*
X131486431Y-107651890D01*
X131537440Y-107400000D01*
X131537440Y-107204140D01*
X135621579Y-103120000D01*
X171774559Y-103120000D01*
X174375000Y-105200353D01*
G36*
X129413000Y-123830000D02*
X129215750Y-123830000D01*
X129057000Y-123988750D01*
X129057000Y-126238000D01*
X129077000Y-126238000D01*
X129077000Y-126492000D01*
X129057000Y-126492000D01*
X129057000Y-128741250D01*
X129215750Y-128900000D01*
X129413000Y-128900000D01*
X129413000Y-131318000D01*
X123952000Y-131318000D01*
X123952000Y-126650750D01*
X127295000Y-126650750D01*
X127295000Y-128391310D01*
X127391673Y-128624699D01*
X127570302Y-128803327D01*
X127803691Y-128900000D01*
X128644250Y-128900000D01*
X128803000Y-128741250D01*
X128803000Y-126492000D01*
X127453750Y-126492000D01*
X127295000Y-126650750D01*
X123952000Y-126650750D01*
X123952000Y-124338690D01*
X127295000Y-124338690D01*
X127295000Y-126079250D01*
X127453750Y-126238000D01*
X128803000Y-126238000D01*
X128803000Y-123988750D01*
X128644250Y-123830000D01*
X127803691Y-123830000D01*
X127570302Y-123926673D01*
X127391673Y-124105301D01*
X127295000Y-124338690D01*
X123952000Y-124338690D01*
X123952000Y-121412000D01*
X129413000Y-121412000D01*
X129413000Y-123830000D01*
X129413000Y-123830000D01*
G37*
X129413000Y-123830000D02*
X129215750Y-123830000D01*
X129057000Y-123988750D01*
X129057000Y-126238000D01*
X129077000Y-126238000D01*
X129077000Y-126492000D01*
X129057000Y-126492000D01*
X129057000Y-128741250D01*
X129215750Y-128900000D01*
X129413000Y-128900000D01*
X129413000Y-131318000D01*
X123952000Y-131318000D01*
X123952000Y-126650750D01*
X127295000Y-126650750D01*
X127295000Y-128391310D01*
X127391673Y-128624699D01*
X127570302Y-128803327D01*
X127803691Y-128900000D01*
X128644250Y-128900000D01*
X128803000Y-128741250D01*
X128803000Y-126492000D01*
X127453750Y-126492000D01*
X127295000Y-126650750D01*
X123952000Y-126650750D01*
X123952000Y-124338690D01*
X127295000Y-124338690D01*
X127295000Y-126079250D01*
X127453750Y-126238000D01*
X128803000Y-126238000D01*
X128803000Y-123988750D01*
X128644250Y-123830000D01*
X127803691Y-123830000D01*
X127570302Y-123926673D01*
X127391673Y-124105301D01*
X127295000Y-124338690D01*
X123952000Y-124338690D01*
X123952000Y-121412000D01*
X129413000Y-121412000D01*
X129413000Y-123830000D01*
M02*
