G04 #@! TF.FileFunction,Soldermask,Bot*
%FSLAX46Y46*%
G04 Gerber Fmt 4.6, Leading zero omitted, Abs format (unit mm)*
G04 Created by KiCad (PCBNEW 4.0.2+dfsg1-stable) date Mon 26 Feb 2018 05:52:28 PM CET*
%MOMM*%
G01*
G04 APERTURE LIST*
%ADD10C,0.100000*%
%ADD11R,2.000000X2.000000*%
%ADD12C,2.000000*%
%ADD13R,2.200000X2.200000*%
%ADD14C,2.200000*%
%ADD15R,2.100000X2.100000*%
%ADD16O,2.100000X2.100000*%
%ADD17C,2.800000*%
%ADD18O,2.800000X2.800000*%
%ADD19C,2.400000*%
%ADD20O,2.000000X2.000000*%
%ADD21R,3.440000X2.127200*%
%ADD22O,3.440000X2.127200*%
G04 APERTURE END LIST*
D10*
D11*
X142240000Y-126365000D03*
D12*
X142240000Y-128865000D03*
D13*
X196850000Y-114935000D03*
D14*
X196850000Y-112395000D03*
D13*
X196850000Y-120015000D03*
D14*
X196850000Y-122555000D03*
D15*
X151765000Y-116205000D03*
D16*
X151765000Y-113665000D03*
X151765000Y-111125000D03*
D15*
X142240000Y-111125000D03*
D16*
X142240000Y-108585000D03*
X142240000Y-106045000D03*
D15*
X156210000Y-128905000D03*
D16*
X156210000Y-126365000D03*
X156210000Y-123825000D03*
X156210000Y-121285000D03*
D15*
X163830000Y-128905000D03*
D16*
X163830000Y-126365000D03*
X163830000Y-123825000D03*
D17*
X184150000Y-106680000D03*
D18*
X196850000Y-106680000D03*
D17*
X184150000Y-128270000D03*
D18*
X196850000Y-128270000D03*
D19*
X190500000Y-115515000D03*
X190500000Y-120015000D03*
X184000000Y-115515000D03*
X184000000Y-120015000D03*
D11*
X177800000Y-128905000D03*
D20*
X170180000Y-106045000D03*
X177800000Y-126365000D03*
X170180000Y-108585000D03*
X177800000Y-123825000D03*
X170180000Y-111125000D03*
X177800000Y-121285000D03*
X170180000Y-113665000D03*
X177800000Y-118745000D03*
X170180000Y-116205000D03*
X177800000Y-116205000D03*
X170180000Y-118745000D03*
X177800000Y-113665000D03*
X170180000Y-121285000D03*
X177800000Y-111125000D03*
X170180000Y-123825000D03*
X177800000Y-108585000D03*
X170180000Y-126365000D03*
X177800000Y-106045000D03*
X170180000Y-128905000D03*
D12*
X130810000Y-118745000D03*
X135810000Y-118745000D03*
D21*
X115570000Y-113665000D03*
D22*
X115570000Y-116205000D03*
X115570000Y-118745000D03*
X115570000Y-121285000D03*
M02*
